<ttFont>
    <TTGlyph name="A" xMin="-50" yMin="0" xMax="1084" yMax="1456">
      <contour>
        <pt x="906" y="406" on="1"/>
        <pt x="290" y="406" on="1"/>
        <pt x="69" y="0" on="1"/>
        <pt x="-50" y="0" on="1"/>
        <pt x="756" y="1456" on="1"/>
        <pt x="864" y="1456" on="1"/>
        <pt x="1084" y="0" on="1"/>
        <pt x="964" y="0" on="1"/>
      </contour>
      <contour>
        <pt x="348" y="513" on="1"/>
        <pt x="891" y="513" on="1"/>
        <pt x="779" y="1294" on="1"/>
        <pt x="773" y="1295" on="1"/>
      </contour>
    </TTGlyph>
    <TTGlyph name="A.smcp" xMin="-32" yMin="0" xMax="960" yMax="1165">
      <contour>
        <pt x="788" y="304" on="1"/>
        <pt x="261" y="304" on="1"/>
        <pt x="89" y="0" on="1"/>
        <pt x="-32" y="0" on="1"/>
        <pt x="641" y="1165" on="1"/>
        <pt x="755" y="1165" on="1"/>
        <pt x="960" y="0" on="1"/>
        <pt x="840" y="0" on="1"/>
      </contour>
      <contour>
        <pt x="319" y="405" on="1"/>
        <pt x="771" y="405" on="1"/>
        <pt x="669" y="1011" on="1"/>
        <pt x="664" y="1012" on="1"/>
      </contour>
    </TTGlyph>
    <TTGlyph name="AE" xMin="-66" yMin="0" xMax="1854" yMax="1456">
      <contour>
        <pt x="1619" y="0" on="1"/>
        <pt x="855" y="0" on="1"/>
        <pt x="917" y="389" on="1"/>
        <pt x="366" y="389" on="1"/>
        <pt x="75" y="0" on="1"/>
        <pt x="-66" y="0" on="1"/>
        <pt x="1044" y="1456" on="1"/>
        <pt x="1854" y="1456" on="1"/>
        <pt x="1834" y="1354" on="1"/>
        <pt x="1187" y="1354" on="1"/>
        <pt x="1100" y="809" on="1"/>
        <pt x="1648" y="809" on="1"/>
        <pt x="1627" y="707" on="1"/>
        <pt x="1083" y="707" on="1"/>
        <pt x="986" y="101" on="1"/>
        <pt x="1639" y="101" on="1"/>
      </contour>
      <contour>
        <pt x="450" y="502" on="1"/>
        <pt x="935" y="502" on="1"/>
        <pt x="1069" y="1331" on="1"/>
        <pt x="1063" y="1333" on="1"/>
        <pt x="1046" y="1298" on="1"/>
      </contour>
    </TTGlyph>
    <TTGlyph name="AEacute" xMin="-66" yMin="0" xMax="1854" yMax="1823">
      <component glyphName="AE" x="0" y="0" flags="0x204"/>
      <component glyphName="acute" x="811" y="345" flags="0x4"/>
    </TTGlyph>
    <TTGlyph name="Aacute" xMin="-50" yMin="0" xMax="1154" yMax="1823">
      <component glyphName="A" x="0" y="0" flags="0x204"/>
      <component glyphName="acute" x="540" y="345" flags="0x4"/>
    </TTGlyph>
    <TTGlyph name="Aacute.smcp" xMin="-32" yMin="0" xMax="1015" yMax="1500">
      <component glyphName="A.smcp" x="0" y="0" flags="0x204"/>
      <component glyphName="acute" x="401" y="22" flags="0x4"/>
    </TTGlyph>
    <TTGlyph name="Abreve" xMin="-50" yMin="0" xMax="1159" yMax="1854">
      <component glyphName="A" x="0" y="0" flags="0x204"/>
      <component glyphName="breve" x="331" y="398" flags="0x4"/>
    </TTGlyph>
    <TTGlyph name="Abreve.smcp" xMin="-32" yMin="0" xMax="1020" yMax="1531">
      <component glyphName="A.smcp" x="0" y="0" flags="0x204"/>
      <component glyphName="breve" x="192" y="75" flags="0x4"/>
    </TTGlyph>
    <TTGlyph name="Acircumflex" xMin="-50" yMin="0" xMax="1119" yMax="1843">
      <component glyphName="A" x="0" y="0" flags="0x204"/>
      <component glyphName="circumflex" x="276" y="349" flags="0x4"/>
    </TTGlyph>
    <TTGlyph name="Acircumflex.smcp" xMin="-32" yMin="0" xMax="980" yMax="1520">
      <component glyphName="A.smcp" x="0" y="0" flags="0x204"/>
      <component glyphName="circumflex" x="137" y="26" flags="0x4"/>
    </TTGlyph>
    <TTGlyph name="Adieresis" xMin="-50" yMin="0" xMax="1191" yMax="1798">
      <component glyphName="A" x="0" y="0" flags="0x204"/>
      <component glyphName="dieresis" x="271" y="342" flags="0x4"/>
    </TTGlyph>
    <TTGlyph name="Adieresis.smcp" xMin="-32" yMin="0" xMax="1052" yMax="1475">
      <component glyphName="A.smcp" x="0" y="0" flags="0x204"/>
      <component glyphName="dieresis" x="132" y="19" flags="0x4"/>
    </TTGlyph>
    <TTGlyph name="Agrave" xMin="-50" yMin="0" xMax="1084" yMax="1827">
      <component glyphName="A" x="0" y="0" flags="0x204"/>
      <component glyphName="grave" x="364" y="351" flags="0x4"/>
    </TTGlyph>
    <TTGlyph name="Agrave.smcp" xMin="-32" yMin="0" xMax="960" yMax="1504">
      <component glyphName="A.smcp" x="0" y="0" flags="0x204"/>
      <component glyphName="grave" x="225" y="28" flags="0x4"/>
    </TTGlyph>
    <TTGlyph name="Alpha" xMin="-50" yMin="0" xMax="1084" yMax="1456">
      <component glyphName="A" x="0" y="0" flags="0x204"/>
    </TTGlyph>
    <TTGlyph name="Alphatonos" xMin="-50" yMin="0" xMax="1084" yMax="1617">
      <component glyphName="A" x="0" y="0" flags="0x204"/>
      <component glyphName="tonos" x="7" y="0" flags="0x4"/>
    </TTGlyph>
    <TTGlyph name="Amacron" xMin="-50" yMin="0" xMax="1197" yMax="1786">
      <component glyphName="A" x="0" y="0" flags="0x204"/>
      <component glyphName="macron" x="303" y="330" flags="0x4"/>
    </TTGlyph>
    <TTGlyph name="Amacron.smcp" xMin="-32" yMin="0" xMax="1058" yMax="1463">
      <component glyphName="A.smcp" x="0" y="0" flags="0x204"/>
      <component glyphName="macron" x="164" y="7" flags="0x4"/>
    </TTGlyph>
    <TTGlyph name="Aogonek" xMin="-50" yMin="-392" xMax="1084" yMax="1456">
      <component glyphName="A" x="0" y="0" flags="0x204"/>
      <component glyphName="ogonek" x="824" y="0" flags="0x4"/>
    </TTGlyph>
    <TTGlyph name="Aogonek.smcp" xMin="-32" yMin="-392" xMax="960" yMax="1165">
      <component glyphName="A.smcp" x="0" y="0" flags="0x204"/>
      <component glyphName="ogonek" x="696" y="0" flags="0x4"/>
    </TTGlyph>
    <TTGlyph name="Aring" xMin="-50" yMin="0" xMax="1084" yMax="1896">
      <component glyphName="A" x="0" y="0" flags="0x204"/>
      <component glyphName="ring" x="378" y="406" flags="0x4"/>
    </TTGlyph>
    <TTGlyph name="Aring.smcp" xMin="-32" yMin="0" xMax="960" yMax="1573">
      <component glyphName="A.smcp" x="0" y="0" flags="0x204"/>
      <component glyphName="ring" x="239" y="83" flags="0x4"/>
    </TTGlyph>
    <TTGlyph name="Aringacute" xMin="-50" yMin="0" xMax="1192" yMax="2083">
      <component glyphName="A" x="0" y="0" flags="0x204"/>
      <component glyphName="ringacute" x="386" y="392" flags="0x4"/>
    </TTGlyph>
    <TTGlyph name="Aringacute.smcp" xMin="-32" yMin="0" xMax="1053" yMax="1760">
      <component glyphName="A.smcp" x="0" y="0" flags="0x204"/>
      <component glyphName="ringacute" x="247" y="69" flags="0x4"/>
    </TTGlyph>
    <TTGlyph name="Atilde" xMin="-50" yMin="0" xMax="1190" yMax="1842">
      <component glyphName="A" x="0" y="0" flags="0x204"/>
      <component glyphName="tilde" x="301" y="341" flags="0x4"/>
    </TTGlyph>
    <TTGlyph name="Atilde.smcp" xMin="-32" yMin="0" xMax="1051" yMax="1519">
      <component glyphName="A.smcp" x="0" y="0" flags="0x204"/>
      <component glyphName="tilde" x="162" y="18" flags="0x4"/>
    </TTGlyph>
    <TTGlyph name="B" xMin="97" yMin="0" xMax="1194" yMax="1456">
      <contour>
        <pt x="97" y="0" on="1"/>
        <pt x="388" y="1456" on="1"/>
        <pt x="786" y="1456" on="1"/>
        <pt x="984" y="1456" on="0"/>
        <pt x="1194" y="1261" on="0"/>
        <pt x="1157" y="1073" on="1"/>
        <pt x="1133" y="954" on="0"/>
        <pt x="983" y="793" on="0"/>
        <pt x="875" y="763" on="1"/>
        <pt x="994" y="738" on="0"/>
        <pt x="1107" y="537" on="0"/>
        <pt x="1081" y="405" on="1"/>
        <pt x="1039" y="197" on="0"/>
        <pt x="770" y="0" on="0"/>
        <pt x="567" y="0" on="1"/>
      </contour>
      <contour>
        <pt x="352" y="702" on="1"/>
        <pt x="232" y="101" on="1"/>
        <pt x="587" y="101" on="1"/>
        <pt x="726" y="101" on="0"/>
        <pt x="936" y="262" on="0"/>
        <pt x="965" y="403" on="1"/>
        <pt x="992" y="542" on="0"/>
        <pt x="873" y="702" on="0"/>
        <pt x="725" y="702" on="1"/>
      </contour>
      <contour>
        <pt x="372" y="803" on="1"/>
        <pt x="697" y="803" on="1"/>
        <pt x="827" y="806" on="0"/>
        <pt x="1015" y="947" on="0"/>
        <pt x="1041" y="1077" on="1"/>
        <pt x="1070" y="1224" on="0"/>
        <pt x="932" y="1354" on="0"/>
        <pt x="766" y="1354" on="1"/>
        <pt x="483" y="1354" on="1"/>
      </contour>
    </TTGlyph>
    <TTGlyph name="B.smcp" xMin="75" yMin="0" xMax="1021" yMax="1165">
      <contour>
        <pt x="75" y="0" on="1"/>
        <pt x="308" y="1165" on="1"/>
        <pt x="656" y="1165" on="1"/>
        <pt x="833" y="1165" on="0"/>
        <pt x="1021" y="1008" on="0"/>
        <pt x="991" y="856" on="1"/>
        <pt x="971" y="760" on="0"/>
        <pt x="852" y="626" on="0"/>
        <pt x="760" y="598" on="1"/>
        <pt x="855" y="576" on="0"/>
        <pt x="944" y="422" on="0"/>
        <pt x="924" y="321" on="1"/>
        <pt x="890" y="154" on="0"/>
        <pt x="665" y="0" on="0"/>
        <pt x="488" y="0" on="1"/>
      </contour>
      <contour>
        <pt x="300" y="543" on="1"/>
        <pt x="212" y="100" on="1"/>
        <pt x="508" y="100" on="1"/>
        <pt x="623" y="100" on="0"/>
        <pt x="787" y="217" on="0"/>
        <pt x="809" y="323" on="1"/>
        <pt x="829" y="429" on="0"/>
        <pt x="720" y="543" on="0"/>
        <pt x="597" y="543" on="1"/>
      </contour>
      <contour>
        <pt x="319" y="638" on="1"/>
        <pt x="551" y="638" on="1"/>
        <pt x="680" y="638" on="0"/>
        <pt x="855" y="749" on="0"/>
        <pt x="875" y="852" on="1"/>
        <pt x="898" y="965" on="0"/>
        <pt x="780" y="1055" on="0"/>
        <pt x="634" y="1055" on="1"/>
        <pt x="403" y="1055" on="1"/>
      </contour>
    </TTGlyph>
    <TTGlyph name="Beta" xMin="97" yMin="0" xMax="1194" yMax="1456">
      <component glyphName="B" x="0" y="0" flags="0x204"/>
    </TTGlyph>
    <TTGlyph name="C" xMin="110" yMin="-21" xMax="1260" yMax="1477">
      <contour>
        <pt x="1119" y="446" on="1"/>
        <pt x="1121" y="440" on="1"/>
        <pt x="1059" y="218" on="0"/>
        <pt x="786" y="-21" on="0"/>
        <pt x="575" y="-21" on="1"/>
        <pt x="360" y="-21" on="0"/>
        <pt x="110" y="343" on="0"/>
        <pt x="165" y="613" on="1"/>
        <pt x="212" y="851" on="1"/>
        <pt x="272" y="1150" on="0"/>
        <pt x="582" y="1477" on="0"/>
        <pt x="809" y="1477" on="1"/>
        <pt x="1014" y="1477" on="0"/>
        <pt x="1260" y="1219" on="0"/>
        <pt x="1233" y="1002" on="1"/>
        <pt x="1231" y="997" on="1"/>
        <pt x="1121" y="997" on="1"/>
        <pt x="1136" y="1175" on="0"/>
        <pt x="966" y="1375" on="0"/>
        <pt x="793" y="1375" on="1"/>
        <pt x="631" y="1375" on="0"/>
        <pt x="374" y="1083" on="0"/>
        <pt x="328" y="853" on="1"/>
        <pt x="280" y="613" on="1"/>
        <pt x="230" y="368" on="0"/>
        <pt x="408" y="80" on="0"/>
        <pt x="590" y="80" on="1"/>
        <pt x="747" y="80" on="0"/>
        <pt x="953" y="260" on="0"/>
        <pt x="1011" y="446" on="1"/>
      </contour>
    </TTGlyph>
    <TTGlyph name="C.smcp" xMin="87" yMin="-17" xMax="1081" yMax="1181">
      <contour>
        <pt x="950" y="369" on="1"/>
        <pt x="952" y="363" on="1"/>
        <pt x="916" y="166" on="0"/>
        <pt x="659" y="-17" on="0"/>
        <pt x="465" y="-17" on="1"/>
        <pt x="286" y="-17" on="0"/>
        <pt x="87" y="253" on="0"/>
        <pt x="129" y="461" on="1"/>
        <pt x="178" y="704" on="1"/>
        <pt x="222" y="929" on="0"/>
        <pt x="509" y="1181" on="0"/>
        <pt x="704" y="1181" on="1"/>
        <pt x="885" y="1181" on="0"/>
        <pt x="1081" y="982" on="0"/>
        <pt x="1040" y="801" on="1"/>
        <pt x="1038" y="796" on="1"/>
        <pt x="929" y="796" on="1"/>
        <pt x="958" y="945" on="0"/>
        <pt x="832" y="1080" on="0"/>
        <pt x="684" y="1080" on="1"/>
        <pt x="552" y="1080" on="0"/>
        <pt x="326" y="867" on="0"/>
        <pt x="294" y="705" on="1"/>
        <pt x="245" y="461" on="1"/>
        <pt x="209" y="283" on="0"/>
        <pt x="341" y="84" on="0"/>
        <pt x="485" y="84" on="1"/>
        <pt x="621" y="84" on="0"/>
        <pt x="814" y="226" on="0"/>
        <pt x="843" y="369" on="1"/>
      </contour>
    </TTGlyph>
    <TTGlyph name="Cacute" xMin="110" yMin="-21" xMax="1260" yMax="1844">
      <component glyphName="C" x="0" y="0" flags="0x204"/>
      <component glyphName="acute" x="561" y="366" flags="0x4"/>
    </TTGlyph>
    <TTGlyph name="Cacute.smcp" xMin="87" yMin="-17" xMax="1081" yMax="1516">
      <component glyphName="C.smcp" x="0" y="0" flags="0x204"/>
      <component glyphName="acute" x="397" y="38" flags="0x4"/>
    </TTGlyph>
    <TTGlyph name="Ccaron" xMin="110" yMin="-21" xMax="1260" yMax="1866">
      <component glyphName="C" x="0" y="0" flags="0x204"/>
      <component glyphName="caron" x="315" y="372" flags="0x4"/>
    </TTGlyph>
    <TTGlyph name="Ccaron.smcp" xMin="87" yMin="-17" xMax="1081" yMax="1538">
      <component glyphName="C.smcp" x="0" y="0" flags="0x204"/>
      <component glyphName="caron" x="151" y="44" flags="0x4"/>
    </TTGlyph>
    <TTGlyph name="Ccedilla" xMin="110" yMin="-443" xMax="1260" yMax="1477">
      <component glyphName="C" x="0" y="0" flags="0x204"/>
      <component glyphName="cedilla" x="446" y="-8" flags="0x4"/>
    </TTGlyph>
    <TTGlyph name="Ccedilla.smcp" xMin="87" yMin="-440" xMax="1081" yMax="1181">
      <component glyphName="C.smcp" x="0" y="0" flags="0x204"/>
      <component glyphName="cedilla" x="349" y="-5" flags="0x4"/>
    </TTGlyph>
    <TTGlyph name="Ccircumflex" xMin="110" yMin="-21" xMax="1260" yMax="1864">
      <component glyphName="C" x="0" y="0" flags="0x204"/>
      <component glyphName="circumflex" x="297" y="370" flags="0x4"/>
    </TTGlyph>
    <TTGlyph name="Ccircumflex.smcp" xMin="87" yMin="-17" xMax="1081" yMax="1536">
      <component glyphName="C.smcp" x="0" y="0" flags="0x204"/>
      <component glyphName="circumflex" x="133" y="42" flags="0x4"/>
    </TTGlyph>
    <TTGlyph name="Chi" xMin="-10" yMin="0" xMax="1272" yMax="1456">
      <component glyphName="X" x="0" y="0" flags="0x204"/>
    </TTGlyph>
    <TTGlyph name="D" xMin="97" yMin="0" xMax="1282" yMax="1456">
      <contour>
        <pt x="97" y="0" on="1"/>
        <pt x="388" y="1456" on="1"/>
        <pt x="746" y="1456" on="1"/>
        <pt x="983" y="1456" on="0"/>
        <pt x="1282" y="1087" on="0"/>
        <pt x="1228" y="817" on="1"/>
        <pt x="1191" y="629" on="1"/>
        <pt x="1130" y="328" on="0"/>
        <pt x="780" y="0" on="0"/>
        <pt x="529" y="0" on="1"/>
      </contour>
      <contour>
        <pt x="482" y="1354" on="1"/>
        <pt x="232" y="101" on="1"/>
        <pt x="549" y="101" on="1"/>
        <pt x="732" y="101" on="0"/>
        <pt x="1028" y="398" on="0"/>
        <pt x="1075" y="629" on="1"/>
        <pt x="1113" y="820" on="1"/>
        <pt x="1161" y="1060" on="0"/>
        <pt x="933" y="1354" on="0"/>
        <pt x="726" y="1354" on="1"/>
      </contour>
    </TTGlyph>
    <TTGlyph name="D.smcp" xMin="75" yMin="0" xMax="1070" yMax="1165">
      <contour>
        <pt x="75" y="0" on="1"/>
        <pt x="308" y="1165" on="1"/>
        <pt x="679" y="1165" on="1"/>
        <pt x="854" y="1165" on="0"/>
        <pt x="1070" y="892" on="0"/>
        <pt x="1029" y="687" on="1"/>
        <pt x="987" y="477" on="1"/>
        <pt x="942" y="254" on="0"/>
        <pt x="637" y="0" on="0"/>
        <pt x="446" y="0" on="1"/>
      </contour>
      <contour>
        <pt x="405" y="1064" on="1"/>
        <pt x="212" y="100" on="1"/>
        <pt x="466" y="100" on="1"/>
        <pt x="594" y="100" on="0"/>
        <pt x="839" y="318" on="0"/>
        <pt x="871" y="477" on="1"/>
        <pt x="914" y="688" on="1"/>
        <pt x="948" y="859" on="0"/>
        <pt x="799" y="1064" on="0"/>
        <pt x="659" y="1064" on="1"/>
      </contour>
    </TTGlyph>
    <TTGlyph name="Dcaron" xMin="97" yMin="0" xMax="1282" yMax="1845">
      <component glyphName="D" x="0" y="0" flags="0x204"/>
      <component glyphName="caron" x="241" y="351" flags="0x4"/>
    </TTGlyph>
    <TTGlyph name="Dcaron.smcp" xMin="75" yMin="0" xMax="1070" yMax="1522">
      <component glyphName="D.smcp" x="0" y="0" flags="0x204"/>
      <component glyphName="caron" x="68" y="28" flags="0x4"/>
    </TTGlyph>
    <TTGlyph name="Dcroat" xMin="121" yMin="0" xMax="1312" yMax="1456">
      <contour>
        <pt x="127" y="0" on="1"/>
        <pt x="264" y="689" on="1"/>
        <pt x="121" y="689" on="1"/>
        <pt x="142" y="791" on="1"/>
        <pt x="285" y="791" on="1"/>
        <pt x="418" y="1456" on="1"/>
        <pt x="776" y="1456" on="1"/>
        <pt x="1013" y="1456" on="0"/>
        <pt x="1312" y="1087" on="0"/>
        <pt x="1258" y="817" on="1"/>
        <pt x="1221" y="629" on="1"/>
        <pt x="1160" y="328" on="0"/>
        <pt x="810" y="0" on="0"/>
        <pt x="559" y="0" on="1"/>
      </contour>
      <contour>
        <pt x="692" y="689" on="1"/>
        <pt x="379" y="689" on="1"/>
        <pt x="262" y="101" on="1"/>
        <pt x="579" y="101" on="1"/>
        <pt x="762" y="101" on="0"/>
        <pt x="1058" y="398" on="0"/>
        <pt x="1105" y="629" on="1"/>
        <pt x="1143" y="820" on="1"/>
        <pt x="1191" y="1060" on="0"/>
        <pt x="963" y="1354" on="0"/>
        <pt x="756" y="1354" on="1"/>
        <pt x="512" y="1354" on="1"/>
        <pt x="400" y="791" on="1"/>
        <pt x="713" y="791" on="1"/>
      </contour>
    </TTGlyph>
    <TTGlyph name="Dcroat.smcp" xMin="10" yMin="0" xMax="1070" yMax="1165">
      <component glyphName="D.smcp" x="0" y="0" flags="0x204"/>
      <component glyphName="crossbar" x="-164" y="-143" flags="0x4"/>
    </TTGlyph>
    <TTGlyph name="Delta" xMin="-39" yMin="0" xMax="1197" yMax="1456">
      <contour>
        <pt x="933" y="1456" on="1"/>
        <pt x="1197" y="0" on="1"/>
        <pt x="-39" y="0" on="1"/>
        <pt x="825" y="1456" on="1"/>
      </contour>
      <contour>
        <pt x="140" y="101" on="1"/>
        <pt x="1058" y="101" on="1"/>
        <pt x="850" y="1299" on="1"/>
        <pt x="845" y="1300" on="1"/>
      </contour>
    </TTGlyph>
    <TTGlyph name="E" xMin="97" yMin="0" xMax="1243" yMax="1456">
      <contour>
        <pt x="1003" y="705" on="1"/>
        <pt x="353" y="705" on="1"/>
        <pt x="232" y="101" on="1"/>
        <pt x="977" y="101" on="1"/>
        <pt x="957" y="0" on="1"/>
        <pt x="97" y="0" on="1"/>
        <pt x="388" y="1456" on="1"/>
        <pt x="1243" y="1456" on="1"/>
        <pt x="1223" y="1354" on="1"/>
        <pt x="482" y="1354" on="1"/>
        <pt x="373" y="807" on="1"/>
        <pt x="1023" y="807" on="1"/>
      </contour>
    </TTGlyph>
    <TTGlyph name="E.smcp" xMin="75" yMin="0" xMax="1045" yMax="1165">
      <contour>
        <pt x="843" y="556" on="1"/>
        <pt x="303" y="556" on="1"/>
        <pt x="212" y="100" on="1"/>
        <pt x="832" y="100" on="1"/>
        <pt x="812" y="0" on="1"/>
        <pt x="75" y="0" on="1"/>
        <pt x="308" y="1165" on="1"/>
        <pt x="1045" y="1165" on="1"/>
        <pt x="1025" y="1064" on="1"/>
        <pt x="404" y="1064" on="1"/>
        <pt x="323" y="657" on="1"/>
        <pt x="863" y="657" on="1"/>
      </contour>
    </TTGlyph>
    <TTGlyph name="Eacute" xMin="97" yMin="0" xMax="1243" yMax="1823">
      <component glyphName="E" x="0" y="0" flags="0x204"/>
      <component glyphName="acute" x="505" y="345" flags="0x4"/>
    </TTGlyph>
    <TTGlyph name="Eacute.smcp" xMin="75" yMin="0" xMax="1045" yMax="1500">
      <component glyphName="E.smcp" x="0" y="0" flags="0x204"/>
      <component glyphName="acute" x="364" y="22" flags="0x4"/>
    </TTGlyph>
    <TTGlyph name="Ebreve" xMin="97" yMin="0" xMax="1243" yMax="1854">
      <component glyphName="E" x="0" y="0" flags="0x204"/>
      <component glyphName="breve" x="296" y="398" flags="0x4"/>
    </TTGlyph>
    <TTGlyph name="Ebreve.smcp" xMin="75" yMin="0" xMax="1045" yMax="1531">
      <component glyphName="E.smcp" x="0" y="0" flags="0x204"/>
      <component glyphName="breve" x="155" y="75" flags="0x4"/>
    </TTGlyph>
    <TTGlyph name="Ecaron" xMin="97" yMin="0" xMax="1243" yMax="1845">
      <component glyphName="E" x="0" y="0" flags="0x204"/>
      <component glyphName="caron" x="259" y="351" flags="0x4"/>
    </TTGlyph>
    <TTGlyph name="Ecaron.smcp" xMin="75" yMin="0" xMax="1045" yMax="1522">
      <component glyphName="E.smcp" x="0" y="0" flags="0x204"/>
      <component glyphName="caron" x="118" y="28" flags="0x4"/>
    </TTGlyph>
    <TTGlyph name="Ecircumflex" xMin="97" yMin="0" xMax="1243" yMax="1843">
      <component glyphName="E" x="0" y="0" flags="0x204"/>
      <component glyphName="circumflex" x="241" y="349" flags="0x4"/>
    </TTGlyph>
    <TTGlyph name="Ecircumflex.smcp" xMin="75" yMin="0" xMax="1045" yMax="1520">
      <component glyphName="E.smcp" x="0" y="0" flags="0x204"/>
      <component glyphName="circumflex" x="100" y="26" flags="0x4"/>
    </TTGlyph>
    <TTGlyph name="Edieresis" xMin="97" yMin="0" xMax="1243" yMax="1798">
      <component glyphName="E" x="0" y="0" flags="0x204"/>
      <component glyphName="dieresis" x="236" y="342" flags="0x4"/>
    </TTGlyph>
    <TTGlyph name="Edieresis.smcp" xMin="75" yMin="0" xMax="1045" yMax="1475">
      <component glyphName="E.smcp" x="0" y="0" flags="0x204"/>
      <component glyphName="dieresis" x="95" y="19" flags="0x4"/>
    </TTGlyph>
    <TTGlyph name="Edotaccent" xMin="97" yMin="0" xMax="1243" yMax="1805">
      <component glyphName="E" x="0" y="0" flags="0x204"/>
      <component glyphName="dotaccent" x="429" y="349" flags="0x4"/>
    </TTGlyph>
    <TTGlyph name="Edotaccent.smcp" xMin="75" yMin="0" xMax="1045" yMax="1482">
      <component glyphName="E.smcp" x="0" y="0" flags="0x204"/>
      <component glyphName="dotaccent" x="288" y="26" flags="0x4"/>
    </TTGlyph>
    <TTGlyph name="Egrave" xMin="97" yMin="0" xMax="1243" yMax="1827">
      <component glyphName="E" x="0" y="0" flags="0x204"/>
      <component glyphName="grave" x="329" y="351" flags="0x4"/>
    </TTGlyph>
    <TTGlyph name="Egrave.smcp" xMin="75" yMin="0" xMax="1045" yMax="1504">
      <component glyphName="E.smcp" x="0" y="0" flags="0x204"/>
      <component glyphName="grave" x="188" y="28" flags="0x4"/>
    </TTGlyph>
    <TTGlyph name="Emacron" xMin="97" yMin="0" xMax="1243" yMax="1786">
      <component glyphName="E" x="0" y="0" flags="0x204"/>
      <component glyphName="macron" x="268" y="330" flags="0x4"/>
    </TTGlyph>
    <TTGlyph name="Emacron.smcp" xMin="75" yMin="0" xMax="1045" yMax="1463">
      <component glyphName="E.smcp" x="0" y="0" flags="0x204"/>
      <component glyphName="macron" x="127" y="7" flags="0x4"/>
    </TTGlyph>
    <TTGlyph name="Eng" xMin="88" yMin="-437" xMax="1379" yMax="1456">
      <contour>
        <pt x="1379" y="1456" on="1"/>
        <pt x="1070" y="-89" on="1"/>
        <pt x="1034" y="-267" on="0"/>
        <pt x="853" y="-437" on="0"/>
        <pt x="716" y="-437" on="1"/>
        <pt x="689" y="-437" on="0"/>
        <pt x="641" y="-427" on="0"/>
        <pt x="615" y="-418" on="1"/>
        <pt x="648" y="-319" on="1"/>
        <pt x="662" y="-325" on="0"/>
        <pt x="717" y="-335" on="0"/>
        <pt x="736" y="-335" on="1"/>
        <pt x="811" y="-335" on="0"/>
        <pt x="931" y="-203" on="0"/>
        <pt x="954" y="-89" on="1"/>
        <pt x="972" y="0" on="1"/>
        <pt x="457" y="1238" on="1"/>
        <pt x="451" y="1238" on="1"/>
        <pt x="204" y="0" on="1"/>
        <pt x="88" y="0" on="1"/>
        <pt x="379" y="1456" on="1"/>
        <pt x="495" y="1456" on="1"/>
        <pt x="1009" y="217" on="1"/>
        <pt x="1015" y="217" on="1"/>
        <pt x="1263" y="1456" on="1"/>
      </contour>
    </TTGlyph>
    <TTGlyph name="Eogonek" xMin="97" yMin="-392" xMax="1243" yMax="1456">
      <component glyphName="E" x="0" y="0" flags="0x204"/>
      <component glyphName="ogonek" x="463" y="0" flags="0x4"/>
    </TTGlyph>
    <TTGlyph name="Eogonek.smcp" xMin="75" yMin="-392" xMax="1045" yMax="1165">
      <component glyphName="E.smcp" x="0" y="0" flags="0x204"/>
      <component glyphName="ogonek" x="411" y="0" flags="0x4"/>
    </TTGlyph>
    <TTGlyph name="Epsilon" xMin="97" yMin="0" xMax="1243" yMax="1456">
      <component glyphName="E" x="0" y="0" flags="0x204"/>
    </TTGlyph>
    <TTGlyph name="Epsilontonos" xMin="173" yMin="0" xMax="1343" yMax="1619">
      <component glyphName="E" x="100" y="0" flags="0x4"/>
      <component glyphName="tonos" x="-184" y="2" flags="0x4"/>
    </TTGlyph>
    <TTGlyph name="Eta" xMin="97" yMin="0" xMax="1381" yMax="1456">
      <component glyphName="H" x="0" y="0" flags="0x204"/>
    </TTGlyph>
    <TTGlyph name="Etatonos" xMin="197" yMin="0" xMax="1481" yMax="1619">
      <component glyphName="H" x="100" y="0" flags="0x4"/>
      <component glyphName="tonos" x="-156" y="2" flags="0x4"/>
    </TTGlyph>
    <TTGlyph name="Eth" xMin="121" yMin="0" xMax="1312" yMax="1456">
      <contour>
        <pt x="127" y="0" on="1"/>
        <pt x="264" y="689" on="1"/>
        <pt x="121" y="689" on="1"/>
        <pt x="142" y="791" on="1"/>
        <pt x="285" y="791" on="1"/>
        <pt x="418" y="1456" on="1"/>
        <pt x="776" y="1456" on="1"/>
        <pt x="1013" y="1456" on="0"/>
        <pt x="1312" y="1087" on="0"/>
        <pt x="1258" y="817" on="1"/>
        <pt x="1221" y="629" on="1"/>
        <pt x="1160" y="328" on="0"/>
        <pt x="810" y="0" on="0"/>
        <pt x="559" y="0" on="1"/>
      </contour>
      <contour>
        <pt x="692" y="689" on="1"/>
        <pt x="379" y="689" on="1"/>
        <pt x="262" y="101" on="1"/>
        <pt x="579" y="101" on="1"/>
        <pt x="762" y="101" on="0"/>
        <pt x="1058" y="398" on="0"/>
        <pt x="1105" y="629" on="1"/>
        <pt x="1143" y="820" on="1"/>
        <pt x="1191" y="1060" on="0"/>
        <pt x="963" y="1354" on="0"/>
        <pt x="756" y="1354" on="1"/>
        <pt x="512" y="1354" on="1"/>
        <pt x="400" y="791" on="1"/>
        <pt x="713" y="791" on="1"/>
      </contour>
    </TTGlyph>
    <TTGlyph name="Eth.smcp" xMin="10" yMin="0" xMax="1070" yMax="1165">
      <component glyphName="D.smcp" x="0" y="0" flags="0x204"/>
      <component glyphName="crossbar" x="-164" y="-143" flags="0x4"/>
    </TTGlyph>
    <TTGlyph name="Euro" xMin="101" yMin="-21" xMax="1114" yMax="1477">
      <contour>
        <pt x="878" y="533" on="1"/>
        <pt x="372" y="533" on="1"/>
        <pt x="368" y="514" on="1"/>
        <pt x="325" y="303" on="0"/>
        <pt x="465" y="80" on="0"/>
        <pt x="626" y="80" on="1"/>
        <pt x="676" y="80" on="0"/>
        <pt x="787" y="97" on="0"/>
        <pt x="839" y="114" on="1"/>
        <pt x="827" y="10" on="1"/>
        <pt x="773" y="-5" on="0"/>
        <pt x="661" y="-21" on="0"/>
        <pt x="606" y="-21" on="1"/>
        <pt x="413" y="-21" on="0"/>
        <pt x="204" y="274" on="0"/>
        <pt x="253" y="514" on="1"/>
        <pt x="257" y="533" on="1"/>
        <pt x="101" y="533" on="1"/>
        <pt x="120" y="635" on="1"/>
        <pt x="276" y="635" on="1"/>
        <pt x="311" y="803" on="1"/>
        <pt x="155" y="803" on="1"/>
        <pt x="175" y="905" on="1"/>
        <pt x="330" y="905" on="1"/>
        <pt x="338" y="942" on="1"/>
        <pt x="390" y="1202" on="0"/>
        <pt x="693" y="1477" on="0"/>
        <pt x="903" y="1477" on="1"/>
        <pt x="953" y="1477" on="0"/>
        <pt x="1059" y="1460" on="0"/>
        <pt x="1114" y="1446" on="1"/>
        <pt x="1084" y="1340" on="1"/>
        <pt x="1036" y="1356" on="0"/>
        <pt x="936" y="1375" on="0"/>
        <pt x="883" y="1375" on="1"/>
        <pt x="735" y="1375" on="0"/>
        <pt x="492" y="1139" on="0"/>
        <pt x="454" y="944" on="1"/>
        <pt x="446" y="905" on="1"/>
        <pt x="952" y="905" on="1"/>
        <pt x="932" y="803" on="1"/>
        <pt x="426" y="803" on="1"/>
        <pt x="391" y="635" on="1"/>
        <pt x="897" y="635" on="1"/>
      </contour>
    </TTGlyph>
    <TTGlyph name="F" xMin="97" yMin="0" xMax="1254" yMax="1456">
      <contour>
        <pt x="1004" y="682" on="1"/>
        <pt x="348" y="682" on="1"/>
        <pt x="212" y="0" on="1"/>
        <pt x="97" y="0" on="1"/>
        <pt x="388" y="1456" on="1"/>
        <pt x="1254" y="1456" on="1"/>
        <pt x="1234" y="1354" on="1"/>
        <pt x="482" y="1354" on="1"/>
        <pt x="369" y="785" on="1"/>
        <pt x="1025" y="785" on="1"/>
      </contour>
    </TTGlyph>
    <TTGlyph name="F.smcp" xMin="75" yMin="0" xMax="1045" yMax="1165">
      <contour>
        <pt x="838" y="535" on="1"/>
        <pt x="299" y="535" on="1"/>
        <pt x="192" y="0" on="1"/>
        <pt x="75" y="0" on="1"/>
        <pt x="308" y="1165" on="1"/>
        <pt x="1045" y="1165" on="1"/>
        <pt x="1025" y="1064" on="1"/>
        <pt x="405" y="1064" on="1"/>
        <pt x="319" y="637" on="1"/>
        <pt x="858" y="637" on="1"/>
      </contour>
    </TTGlyph>
    <TTGlyph name="G" xMin="119" yMin="-21" xMax="1285" yMax="1477">
      <contour>
        <pt x="1099" y="173" on="1"/>
        <pt x="1038" y="101" on="0"/>
        <pt x="773" y="-21" on="0"/>
        <pt x="590" y="-21" on="1"/>
        <pt x="368" y="-21" on="0"/>
        <pt x="119" y="330" on="0"/>
        <pt x="174" y="600" on="1"/>
        <pt x="227" y="867" on="1"/>
        <pt x="285" y="1155" on="0"/>
        <pt x="632" y="1477" on="0"/>
        <pt x="866" y="1477" on="1"/>
        <pt x="1070" y="1477" on="0"/>
        <pt x="1285" y="1238" on="0"/>
        <pt x="1268" y="1054" on="1"/>
        <pt x="1265" y="1048" on="1"/>
        <pt x="1157" y="1048" on="1"/>
        <pt x="1162" y="1194" on="0"/>
        <pt x="1020" y="1375" on="0"/>
        <pt x="846" y="1375" on="1"/>
        <pt x="678" y="1375" on="0"/>
        <pt x="386" y="1086" on="0"/>
        <pt x="344" y="869" on="1"/>
        <pt x="290" y="600" on="1"/>
        <pt x="241" y="357" on="0"/>
        <pt x="418" y="80" on="0"/>
        <pt x="610" y="80" on="1"/>
        <pt x="733" y="80" on="0"/>
        <pt x="947" y="162" on="0"/>
        <pt x="990" y="209" on="1"/>
        <pt x="1066" y="589" on="1"/>
        <pt x="710" y="589" on="1"/>
        <pt x="730" y="691" on="1"/>
        <pt x="1202" y="691" on="1"/>
      </contour>
    </TTGlyph>
    <TTGlyph name="G.smcp" xMin="87" yMin="-17" xMax="1104" yMax="1181">
      <contour>
        <pt x="948" y="156" on="1"/>
        <pt x="895" y="92" on="0"/>
        <pt x="658" y="-17" on="0"/>
        <pt x="499" y="-17" on="1"/>
        <pt x="305" y="-17" on="0"/>
        <pt x="87" y="252" on="0"/>
        <pt x="129" y="461" on="1"/>
        <pt x="178" y="704" on="1"/>
        <pt x="222" y="929" on="0"/>
        <pt x="524" y="1181" on="0"/>
        <pt x="730" y="1181" on="1"/>
        <pt x="916" y="1181" on="0"/>
        <pt x="1104" y="994" on="0"/>
        <pt x="1077" y="838" on="1"/>
        <pt x="1074" y="833" on="1"/>
        <pt x="965" y="829" on="1"/>
        <pt x="982" y="954" on="0"/>
        <pt x="859" y="1080" on="0"/>
        <pt x="710" y="1080" on="1"/>
        <pt x="567" y="1080" on="0"/>
        <pt x="325" y="865" on="0"/>
        <pt x="294" y="705" on="1"/>
        <pt x="245" y="461" on="1"/>
        <pt x="209" y="284" on="0"/>
        <pt x="358" y="84" on="0"/>
        <pt x="519" y="84" on="1"/>
        <pt x="628" y="84" on="0"/>
        <pt x="803" y="150" on="0"/>
        <pt x="840" y="190" on="1"/>
        <pt x="896" y="468" on="1"/>
        <pt x="622" y="468" on="1"/>
        <pt x="642" y="570" on="1"/>
        <pt x="1031" y="570" on="1"/>
      </contour>
    </TTGlyph>
    <TTGlyph name="Gamma" xMin="93" yMin="0" xMax="1200" yMax="1456">
      <contour>
        <pt x="1180" y="1354" on="1"/>
        <pt x="480" y="1354" on="1"/>
        <pt x="209" y="0" on="1"/>
        <pt x="93" y="0" on="1"/>
        <pt x="384" y="1456" on="1"/>
        <pt x="1200" y="1456" on="1"/>
      </contour>
    </TTGlyph>
    <TTGlyph name="Gbreve" xMin="119" yMin="-21" xMax="1285" yMax="1875">
      <component glyphName="G" x="0" y="0" flags="0x204"/>
      <component glyphName="breve" x="359" y="419" flags="0x4"/>
    </TTGlyph>
    <TTGlyph name="Gbreve.smcp" xMin="87" yMin="-17" xMax="1104" yMax="1547">
      <component glyphName="G.smcp" x="0" y="0" flags="0x204"/>
      <component glyphName="breve" x="183" y="91" flags="0x4"/>
    </TTGlyph>
    <TTGlyph name="Gcircumflex" xMin="119" yMin="-21" xMax="1285" yMax="1864">
      <component glyphName="G" x="0" y="0" flags="0x204"/>
      <component glyphName="circumflex" x="304" y="370" flags="0x4"/>
    </TTGlyph>
    <TTGlyph name="Gcircumflex.smcp" xMin="87" yMin="-17" xMax="1104" yMax="1536">
      <component glyphName="G.smcp" x="0" y="0" flags="0x204"/>
      <component glyphName="circumflex" x="128" y="42" flags="0x4"/>
    </TTGlyph>
    <TTGlyph name="Gcommaaccent" xMin="119" yMin="-467" xMax="1285" yMax="1477">
      <component glyphName="G" x="0" y="0" flags="0x204"/>
      <component glyphName="commaaccent" x="357" y="-52" flags="0x4"/>
    </TTGlyph>
    <TTGlyph name="Gcommaaccent.smcp" xMin="87" yMin="-466" xMax="1104" yMax="1181">
      <component glyphName="G.smcp" x="0" y="0" flags="0x204"/>
      <component glyphName="commaaccent" x="260" y="-51" flags="0x4"/>
    </TTGlyph>
    <TTGlyph name="H" xMin="97" yMin="0" xMax="1381" yMax="1456">
      <contour>
        <pt x="1090" y="0" on="1"/>
        <pt x="975" y="0" on="1"/>
        <pt x="1109" y="670" on="1"/>
        <pt x="346" y="670" on="1"/>
        <pt x="212" y="0" on="1"/>
        <pt x="97" y="0" on="1"/>
        <pt x="388" y="1456" on="1"/>
        <pt x="503" y="1456" on="1"/>
        <pt x="366" y="772" on="1"/>
        <pt x="1129" y="772" on="1"/>
        <pt x="1266" y="1456" on="1"/>
        <pt x="1381" y="1456" on="1"/>
      </contour>
    </TTGlyph>
    <TTGlyph name="H.smcp" xMin="75" yMin="0" xMax="1159" yMax="1165">
      <contour>
        <pt x="926" y="0" on="1"/>
        <pt x="810" y="0" on="1"/>
        <pt x="914" y="521" on="1"/>
        <pt x="296" y="521" on="1"/>
        <pt x="192" y="0" on="1"/>
        <pt x="75" y="0" on="1"/>
        <pt x="308" y="1165" on="1"/>
        <pt x="425" y="1165" on="1"/>
        <pt x="316" y="622" on="1"/>
        <pt x="934" y="622" on="1"/>
        <pt x="1043" y="1165" on="1"/>
        <pt x="1159" y="1165" on="1"/>
      </contour>
    </TTGlyph>
    <TTGlyph name="Hbar" xMin="77" yMin="0" xMax="1434" yMax="1456">
      <contour>
        <pt x="1294" y="1123" on="1"/>
        <pt x="1434" y="1123" on="1"/>
        <pt x="1414" y="1026" on="1"/>
        <pt x="1275" y="1026" on="1"/>
        <pt x="1070" y="0" on="1"/>
        <pt x="955" y="0" on="1"/>
        <pt x="1089" y="670" on="1"/>
        <pt x="326" y="670" on="1"/>
        <pt x="192" y="0" on="1"/>
        <pt x="77" y="0" on="1"/>
        <pt x="282" y="1026" on="1"/>
        <pt x="149" y="1026" on="1"/>
        <pt x="169" y="1123" on="1"/>
        <pt x="301" y="1123" on="1"/>
        <pt x="368" y="1456" on="1"/>
        <pt x="483" y="1456" on="1"/>
        <pt x="416" y="1123" on="1"/>
        <pt x="1179" y="1123" on="1"/>
        <pt x="1246" y="1456" on="1"/>
        <pt x="1361" y="1456" on="1"/>
      </contour>
      <contour>
        <pt x="346" y="772" on="1"/>
        <pt x="1109" y="772" on="1"/>
        <pt x="1160" y="1026" on="1"/>
        <pt x="397" y="1026" on="1"/>
      </contour>
    </TTGlyph>
    <TTGlyph name="Hcircumflex" xMin="97" yMin="0" xMax="1381" yMax="1843">
      <component glyphName="H" x="0" y="0" flags="0x204"/>
      <component glyphName="circumflex" x="329" y="349" flags="0x4"/>
    </TTGlyph>
    <TTGlyph name="Hcircumflex.smcp" xMin="75" yMin="0" xMax="1159" yMax="1520">
      <component glyphName="H.smcp" x="0" y="0" flags="0x204"/>
      <component glyphName="circumflex" x="148" y="26" flags="0x4"/>
    </TTGlyph>
    <TTGlyph name="I" xMin="120" yMin="0" xMax="527" yMax="1456">
      <contour>
        <pt x="236" y="0" on="1"/>
        <pt x="120" y="0" on="1"/>
        <pt x="411" y="1456" on="1"/>
        <pt x="527" y="1456" on="1"/>
      </contour>
    </TTGlyph>
    <TTGlyph name="I.smcp" xMin="75" yMin="0" xMax="424" yMax="1165">
      <contour>
        <pt x="191" y="0" on="1"/>
        <pt x="75" y="0" on="1"/>
        <pt x="308" y="1165" on="1"/>
        <pt x="424" y="1165" on="1"/>
      </contour>
    </TTGlyph>
    <TTGlyph name="IJ" xMin="120" yMin="-21" xMax="1618" yMax="1456">
      <component glyphName="I" x="0" y="0" flags="0x4"/>
      <component glyphName="J" x="527" y="0" flags="0x4"/>
    </TTGlyph>
    <TTGlyph name="Iacute" xMin="120" yMin="0" xMax="797" yMax="1823">
      <component glyphName="I" x="0" y="0" flags="0x204"/>
      <component glyphName="acute" x="183" y="345" flags="0x4"/>
    </TTGlyph>
    <TTGlyph name="Iacute.smcp" xMin="75" yMin="0" xMax="687" yMax="1500">
      <component glyphName="I.smcp" x="0" y="0" flags="0x204"/>
      <component glyphName="acute" x="73" y="22" flags="0x4"/>
    </TTGlyph>
    <TTGlyph name="Ibreve" xMin="120" yMin="0" xMax="804" yMax="1854">
      <component glyphName="I" x="0" y="0" flags="0x204"/>
      <component glyphName="breve" x="-24" y="398" flags="0x4"/>
    </TTGlyph>
    <TTGlyph name="Ibreve.smcp" xMin="75" yMin="0" xMax="694" yMax="1531">
      <component glyphName="I.smcp" x="0" y="0" flags="0x204"/>
      <component glyphName="breve" x="-134" y="75" flags="0x4"/>
    </TTGlyph>
    <TTGlyph name="Icircumflex" xMin="120" yMin="0" xMax="764" yMax="1843">
      <component glyphName="I" x="0" y="0" flags="0x204"/>
      <component glyphName="circumflex" x="-79" y="349" flags="0x4"/>
    </TTGlyph>
    <TTGlyph name="Icircumflex.smcp" xMin="75" yMin="0" xMax="654" yMax="1520">
      <component glyphName="I.smcp" x="0" y="0" flags="0x204"/>
      <component glyphName="circumflex" x="-189" y="26" flags="0x4"/>
    </TTGlyph>
    <TTGlyph name="Idieresis" xMin="120" yMin="0" xMax="836" yMax="1798">
      <component glyphName="I" x="0" y="0" flags="0x204"/>
      <component glyphName="dieresis" x="-84" y="342" flags="0x4"/>
    </TTGlyph>
    <TTGlyph name="Idieresis.smcp" xMin="75" yMin="0" xMax="726" yMax="1475">
      <component glyphName="I.smcp" x="0" y="0" flags="0x204"/>
      <component glyphName="dieresis" x="-194" y="19" flags="0x4"/>
    </TTGlyph>
    <TTGlyph name="Idotaccent" xMin="120" yMin="0" xMax="609" yMax="1805">
      <component glyphName="I" x="0" y="0" flags="0x204"/>
      <component glyphName="dotaccent" x="107" y="349" flags="0x4"/>
    </TTGlyph>
    <TTGlyph name="Idotaccent.smcp" xMin="75" yMin="0" xMax="501" yMax="1482">
      <component glyphName="I.smcp" x="0" y="0" flags="0x204"/>
      <component glyphName="dotaccent" x="-1" y="26" flags="0x4"/>
    </TTGlyph>
    <TTGlyph name="Igrave" xMin="120" yMin="0" xMax="558" yMax="1827">
      <component glyphName="I" x="0" y="0" flags="0x204"/>
      <component glyphName="grave" x="7" y="351" flags="0x4"/>
    </TTGlyph>
    <TTGlyph name="Igrave.smcp" xMin="75" yMin="0" xMax="450" yMax="1504">
      <component glyphName="I.smcp" x="0" y="0" flags="0x204"/>
      <component glyphName="grave" x="-101" y="28" flags="0x4"/>
    </TTGlyph>
    <TTGlyph name="Imacron" xMin="120" yMin="0" xMax="842" yMax="1786">
      <component glyphName="I" x="0" y="0" flags="0x204"/>
      <component glyphName="macron" x="-52" y="330" flags="0x4"/>
    </TTGlyph>
    <TTGlyph name="Imacron.smcp" xMin="75" yMin="0" xMax="732" yMax="1463">
      <component glyphName="I.smcp" x="0" y="0" flags="0x204"/>
      <component glyphName="macron" x="-162" y="7" flags="0x4"/>
    </TTGlyph>
    <TTGlyph name="Iogonek" xMin="-79" yMin="-392" xMax="527" yMax="1456">
      <component glyphName="I" x="0" y="0" flags="0x204"/>
      <component glyphName="ogonek" x="-22" y="0" flags="0x4"/>
    </TTGlyph>
    <TTGlyph name="Iogonek.smcp" xMin="-124" yMin="-392" xMax="424" yMax="1165">
      <component glyphName="I.smcp" x="0" y="0" flags="0x204"/>
      <component glyphName="ogonek" x="-67" y="0" flags="0x4"/>
    </TTGlyph>
    <TTGlyph name="Iota" xMin="120" yMin="0" xMax="527" yMax="1456">
      <component glyphName="I" x="0" y="0" flags="0x204"/>
    </TTGlyph>
    <TTGlyph name="Iotadieresis" xMin="120" yMin="0" xMax="836" yMax="1798">
      <component glyphName="I" x="0" y="0" flags="0x204"/>
      <component glyphName="dieresis" x="-84" y="342" flags="0x4"/>
    </TTGlyph>
    <TTGlyph name="Iotatonos" xMin="215" yMin="0" xMax="627" yMax="1617">
      <component glyphName="I" x="100" y="0" flags="0x4"/>
      <component glyphName="tonos" x="-142" y="0" flags="0x4"/>
    </TTGlyph>
    <TTGlyph name="Itilde" xMin="120" yMin="0" xMax="835" yMax="1842">
      <component glyphName="I" x="0" y="0" flags="0x204"/>
      <component glyphName="tilde" x="-54" y="341" flags="0x4"/>
    </TTGlyph>
    <TTGlyph name="Itilde.smcp" xMin="73" yMin="0" xMax="725" yMax="1519">
      <component glyphName="I.smcp" x="0" y="0" flags="0x204"/>
      <component glyphName="tilde" x="-164" y="18" flags="0x4"/>
    </TTGlyph>
    <TTGlyph name="J" xMin="29" yMin="-21" xMax="1091" yMax="1456">
      <contour>
        <pt x="975" y="1456" on="1"/>
        <pt x="1091" y="1456" on="1"/>
        <pt x="883" y="413" on="1"/>
        <pt x="840" y="200" on="0"/>
        <pt x="579" y="-21" on="0"/>
        <pt x="400" y="-21" on="1"/>
        <pt x="221" y="-21" on="0"/>
        <pt x="29" y="196" on="0"/>
        <pt x="70" y="401" on="1"/>
        <pt x="186" y="401" on="1"/>
        <pt x="152" y="233" on="0"/>
        <pt x="273" y="80" on="0"/>
        <pt x="420" y="80" on="1"/>
        <pt x="534" y="80" on="0"/>
        <pt x="736" y="263" on="0"/>
        <pt x="767" y="413" on="1"/>
      </contour>
    </TTGlyph>
    <TTGlyph name="J.smcp" xMin="25" yMin="-17" xMax="945" yMax="1165">
      <contour>
        <pt x="829" y="1165" on="1"/>
        <pt x="945" y="1165" on="1"/>
        <pt x="781" y="345" on="1"/>
        <pt x="745" y="169" on="0"/>
        <pt x="514" y="-17" on="0"/>
        <pt x="358" y="-17" on="1"/>
        <pt x="198" y="-17" on="0"/>
        <pt x="25" y="160" on="0"/>
        <pt x="63" y="323" on="1"/>
        <pt x="65" y="328" on="1"/>
        <pt x="174" y="328" on="1"/>
        <pt x="147" y="196" on="0"/>
        <pt x="252" y="84" on="0"/>
        <pt x="378" y="84" on="1"/>
        <pt x="473" y="84" on="0"/>
        <pt x="641" y="228" on="0"/>
        <pt x="665" y="345" on="1"/>
      </contour>
    </TTGlyph>
    <TTGlyph name="Jcircumflex" xMin="29" yMin="-21" xMax="1318" yMax="1821">
      <component glyphName="J" x="0" y="0" flags="0x204"/>
      <component glyphName="circumflex" x="475" y="327" flags="0x4"/>
    </TTGlyph>
    <TTGlyph name="Jcircumflex.smcp" xMin="25" yMin="-17" xMax="1162" yMax="1503">
      <component glyphName="J.smcp" x="0" y="0" flags="0x204"/>
      <component glyphName="circumflex" x="319" y="9" flags="0x4"/>
    </TTGlyph>
    <TTGlyph name="K" xMin="75" yMin="0" xMax="1294" yMax="1456">
      <contour>
        <pt x="510" y="691" on="1"/>
        <pt x="330" y="691" on="1"/>
        <pt x="192" y="0" on="1"/>
        <pt x="75" y="0" on="1"/>
        <pt x="366" y="1456" on="1"/>
        <pt x="483" y="1456" on="1"/>
        <pt x="351" y="797" on="1"/>
        <pt x="537" y="797" on="1"/>
        <pt x="1148" y="1456" on="1"/>
        <pt x="1291" y="1456" on="1"/>
        <pt x="1294" y="1450" on="1"/>
        <pt x="615" y="734" on="1"/>
        <pt x="1033" y="0" on="1"/>
        <pt x="898" y="0" on="1"/>
      </contour>
    </TTGlyph>
    <TTGlyph name="K.smcp" xMin="75" yMin="0" xMax="1090" yMax="1165">
      <contour>
        <pt x="424" y="537" on="1"/>
        <pt x="299" y="537" on="1"/>
        <pt x="192" y="0" on="1"/>
        <pt x="75" y="0" on="1"/>
        <pt x="308" y="1165" on="1"/>
        <pt x="425" y="1165" on="1"/>
        <pt x="320" y="640" on="1"/>
        <pt x="441" y="640" on="1"/>
        <pt x="956" y="1165" on="1"/>
        <pt x="1088" y="1165" on="1"/>
        <pt x="1090" y="1159" on="1"/>
        <pt x="532" y="600" on="1"/>
        <pt x="908" y="0" on="1"/>
        <pt x="761" y="0" on="1"/>
      </contour>
    </TTGlyph>
    <TTGlyph name="Kappa" xMin="75" yMin="0" xMax="1294" yMax="1456">
      <component glyphName="K" x="0" y="0" flags="0x4"/>
    </TTGlyph>
    <TTGlyph name="Kcommaaccent" xMin="75" yMin="-455" xMax="1294" yMax="1456">
      <component glyphName="K" x="0" y="0" flags="0x4"/>
      <component glyphName="commaaccent" x="294" y="-40" flags="0x4"/>
    </TTGlyph>
    <TTGlyph name="Kcommaaccent.smcp" xMin="75" yMin="-457" xMax="1090" yMax="1165">
      <component glyphName="K.smcp" x="0" y="0" flags="0x204"/>
      <component glyphName="commaaccent" x="185" y="-42" flags="0x4"/>
    </TTGlyph>
    <TTGlyph name="L" xMin="97" yMin="0" xMax="901" yMax="1456">
      <contour>
        <pt x="233" y="101" on="1"/>
        <pt x="901" y="101" on="1"/>
        <pt x="881" y="0" on="1"/>
        <pt x="97" y="0" on="1"/>
        <pt x="388" y="1456" on="1"/>
        <pt x="504" y="1456" on="1"/>
      </contour>
    </TTGlyph>
    <TTGlyph name="L.smcp" xMin="75" yMin="0" xMax="746" yMax="1165">
      <contour>
        <pt x="212" y="100" on="1"/>
        <pt x="746" y="100" on="1"/>
        <pt x="726" y="0" on="1"/>
        <pt x="75" y="0" on="1"/>
        <pt x="308" y="1165" on="1"/>
        <pt x="425" y="1165" on="1"/>
      </contour>
    </TTGlyph>
    <TTGlyph name="Lacute" xMin="97" yMin="0" xMax="901" yMax="1760">
      <component glyphName="L" x="0" y="0" flags="0x204"/>
      <component glyphName="acute" x="149" y="282" flags="0x4"/>
    </TTGlyph>
    <TTGlyph name="Lacute.smcp" xMin="75" yMin="0" xMax="746" yMax="1477">
      <component glyphName="L.smcp" x="0" y="0" flags="0x204"/>
      <component glyphName="acute" x="70" y="-1" flags="0x4"/>
    </TTGlyph>
    <TTGlyph name="Lambda" xMin="-17" yMin="0" xMax="1086" yMax="1456">
      <contour>
        <pt x="791" y="1275" on="1"/>
        <pt x="785" y="1276" on="1"/>
        <pt x="104" y="0" on="1"/>
        <pt x="-17" y="0" on="1"/>
        <pt x="771" y="1456" on="1"/>
        <pt x="880" y="1456" on="1"/>
        <pt x="1086" y="0" on="1"/>
        <pt x="966" y="0" on="1"/>
      </contour>
    </TTGlyph>
    <TTGlyph name="Lcaron" xMin="97" yMin="0" xMax="901" yMax="1456">
      <component glyphName="L" x="0" y="0" flags="0x204"/>
      <component glyphName="commaaccent" x="660" y="1540" flags="0x4"/>
    </TTGlyph>
    <TTGlyph name="Lcaron.smcp" xMin="75" yMin="0" xMax="746" yMax="1165">
      <component glyphName="L.smcp" x="0" y="0" flags="0x204"/>
      <component glyphName="commaaccent" x="472" y="1249" flags="0x4"/>
    </TTGlyph>
    <TTGlyph name="Lcommaaccent" xMin="97" yMin="-453" xMax="901" yMax="1456">
      <component glyphName="L" x="0" y="0" flags="0x204"/>
      <component glyphName="commaaccent" x="292" y="-38" flags="0x4"/>
    </TTGlyph>
    <TTGlyph name="Lcommaaccent.smcp" xMin="75" yMin="-455" xMax="746" yMax="1165">
      <component glyphName="L.smcp" x="0" y="0" flags="0x204"/>
      <component glyphName="commaaccent" x="156" y="-40" flags="0x4"/>
    </TTGlyph>
    <TTGlyph name="Ldot" xMin="97" yMin="0" xMax="901" yMax="1456">
      <component glyphName="L" x="0" y="0" flags="0x204"/>
      <component glyphName="dotaccent" x="299" y="-600" flags="0x4"/>
    </TTGlyph>
    <TTGlyph name="Ldot.smcp" xMin="75" yMin="0" xMax="746" yMax="1165">
      <component glyphName="L.smcp" x="0" y="0" flags="0x204"/>
      <component glyphName="dotaccent" x="135" y="-755" flags="0x4"/>
    </TTGlyph>
    <TTGlyph name="Lslash" xMin="66" yMin="0" xMax="890" yMax="1456">
      <contour>
        <pt x="365" y="816" on="1"/>
        <pt x="673" y="915" on="1"/>
        <pt x="651" y="806" on="1"/>
        <pt x="343" y="707" on="1"/>
        <pt x="222" y="101" on="1"/>
        <pt x="890" y="101" on="1"/>
        <pt x="870" y="0" on="1"/>
        <pt x="86" y="0" on="1"/>
        <pt x="219" y="668" on="1"/>
        <pt x="66" y="619" on="1"/>
        <pt x="88" y="728" on="1"/>
        <pt x="241" y="777" on="1"/>
        <pt x="377" y="1456" on="1"/>
        <pt x="493" y="1456" on="1"/>
      </contour>
    </TTGlyph>
    <TTGlyph name="M" xMin="97" yMin="0" xMax="1686" yMax="1456">
      <contour>
        <pt x="540" y="1456" on="1"/>
        <pt x="776" y="175" on="1"/>
        <pt x="782" y="174" on="1"/>
        <pt x="1534" y="1456" on="1"/>
        <pt x="1686" y="1456" on="1"/>
        <pt x="1395" y="0" on="1"/>
        <pt x="1280" y="0" on="1"/>
        <pt x="1409" y="643" on="1"/>
        <pt x="1544" y="1273" on="1"/>
        <pt x="1538" y="1275" on="1"/>
        <pt x="785" y="0" on="1"/>
        <pt x="705" y="0" on="1"/>
        <pt x="461" y="1269" on="1"/>
        <pt x="455" y="1269" on="1"/>
        <pt x="341" y="643" on="1"/>
        <pt x="212" y="0" on="1"/>
        <pt x="97" y="0" on="1"/>
        <pt x="388" y="1456" on="1"/>
      </contour>
    </TTGlyph>
    <TTGlyph name="M.smcp" xMin="75" yMin="0" xMax="1394" yMax="1165">
      <contour>
        <pt x="652" y="170" on="1"/>
        <pt x="658" y="169" on="1"/>
        <pt x="1250" y="1165" on="1"/>
        <pt x="1394" y="1165" on="1"/>
        <pt x="1161" y="0" on="1"/>
        <pt x="1045" y="0" on="1"/>
        <pt x="1232" y="932" on="1"/>
        <pt x="1226" y="934" on="1"/>
        <pt x="662" y="0" on="1"/>
        <pt x="580" y="0" on="1"/>
        <pt x="388" y="951" on="1"/>
        <pt x="382" y="951" on="1"/>
        <pt x="192" y="0" on="1"/>
        <pt x="75" y="0" on="1"/>
        <pt x="308" y="1165" on="1"/>
        <pt x="460" y="1165" on="1"/>
      </contour>
    </TTGlyph>
    <TTGlyph name="Mu" xMin="97" yMin="0" xMax="1686" yMax="1456">
      <component glyphName="M" x="0" y="0" flags="0x204"/>
    </TTGlyph>
    <TTGlyph name="N" xMin="97" yMin="0" xMax="1387" yMax="1456">
      <contour>
        <pt x="1096" y="0" on="1"/>
        <pt x="980" y="0" on="1"/>
        <pt x="468" y="1245" on="1"/>
        <pt x="462" y="1245" on="1"/>
        <pt x="213" y="0" on="1"/>
        <pt x="97" y="0" on="1"/>
        <pt x="388" y="1456" on="1"/>
        <pt x="504" y="1456" on="1"/>
        <pt x="1016" y="213" on="1"/>
        <pt x="1022" y="213" on="1"/>
        <pt x="1271" y="1456" on="1"/>
        <pt x="1387" y="1456" on="1"/>
      </contour>
    </TTGlyph>
    <TTGlyph name="N.smcp" xMin="75" yMin="0" xMax="1191" yMax="1165">
      <contour>
        <pt x="958" y="0" on="1"/>
        <pt x="843" y="0" on="1"/>
        <pt x="391" y="966" on="1"/>
        <pt x="385" y="966" on="1"/>
        <pt x="192" y="0" on="1"/>
        <pt x="75" y="0" on="1"/>
        <pt x="308" y="1165" on="1"/>
        <pt x="425" y="1165" on="1"/>
        <pt x="877" y="200" on="1"/>
        <pt x="883" y="200" on="1"/>
        <pt x="1076" y="1165" on="1"/>
        <pt x="1191" y="1165" on="1"/>
      </contour>
    </TTGlyph>
    <TTGlyph name="Nacute" xMin="97" yMin="0" xMax="1387" yMax="1823">
      <component glyphName="N" x="0" y="0" flags="0x204"/>
      <component glyphName="acute" x="601" y="345" flags="0x4"/>
    </TTGlyph>
    <TTGlyph name="Nacute.smcp" xMin="75" yMin="0" xMax="1191" yMax="1500">
      <component glyphName="N.smcp" x="0" y="0" flags="0x204"/>
      <component glyphName="acute" x="438" y="22" flags="0x4"/>
    </TTGlyph>
    <TTGlyph name="Ncaron" xMin="97" yMin="0" xMax="1387" yMax="1845">
      <component glyphName="N" x="0" y="0" flags="0x204"/>
      <component glyphName="caron" x="355" y="351" flags="0x4"/>
    </TTGlyph>
    <TTGlyph name="Ncaron.smcp" xMin="75" yMin="0" xMax="1191" yMax="1522">
      <component glyphName="N.smcp" x="0" y="0" flags="0x204"/>
      <component glyphName="caron" x="192" y="28" flags="0x4"/>
    </TTGlyph>
    <TTGlyph name="Ncommaaccent" xMin="97" yMin="-453" xMax="1387" yMax="1456">
      <component glyphName="N" x="0" y="0" flags="0x204"/>
      <component glyphName="commaaccent" x="386" y="-38" flags="0x4"/>
    </TTGlyph>
    <TTGlyph name="Ncommaaccent.smcp" xMin="75" yMin="-455" xMax="1191" yMax="1165">
      <component glyphName="N.smcp" x="0" y="0" flags="0x204"/>
      <component glyphName="commaaccent" x="287" y="-40" flags="0x4"/>
    </TTGlyph>
    <TTGlyph name="Ntilde" xMin="97" yMin="0" xMax="1387" yMax="1842">
      <component glyphName="N" x="0" y="0" flags="0x204"/>
      <component glyphName="tilde" x="362" y="341" flags="0x4"/>
    </TTGlyph>
    <TTGlyph name="Ntilde.smcp" xMin="75" yMin="0" xMax="1191" yMax="1519">
      <component glyphName="N.smcp" x="0" y="0" flags="0x204"/>
      <component glyphName="tilde" x="199" y="18" flags="0x4"/>
    </TTGlyph>
    <TTGlyph name="Nu" xMin="97" yMin="0" xMax="1387" yMax="1456">
      <component glyphName="N" x="0" y="0" flags="0x204"/>
    </TTGlyph>
    <TTGlyph name="O" xMin="102" yMin="-21" xMax="1311" yMax="1477">
      <contour>
        <pt x="1209" y="604" on="1"/>
        <pt x="1147" y="300" on="0"/>
        <pt x="829" y="-21" on="0"/>
        <pt x="585" y="-21" on="1"/>
        <pt x="359" y="-21" on="0"/>
        <pt x="102" y="340" on="0"/>
        <pt x="158" y="613" on="1"/>
        <pt x="205" y="851" on="1"/>
        <pt x="266" y="1154" on="0"/>
        <pt x="579" y="1477" on="0"/>
        <pt x="818" y="1477" on="1"/>
        <pt x="1047" y="1477" on="0"/>
        <pt x="1311" y="1114" on="0"/>
        <pt x="1256" y="842" on="1"/>
      </contour>
      <contour>
        <pt x="1142" y="844" on="1"/>
        <pt x="1191" y="1091" on="0"/>
        <pt x="1000" y="1372" on="0"/>
        <pt x="797" y="1372" on="1"/>
        <pt x="622" y="1372" on="0"/>
        <pt x="368" y="1088" on="0"/>
        <pt x="322" y="853" on="1"/>
        <pt x="274" y="613" on="1"/>
        <pt x="223" y="364" on="0"/>
        <pt x="408" y="83" on="0"/>
        <pt x="606" y="83" on="1"/>
        <pt x="786" y="83" on="0"/>
        <pt x="1046" y="366" on="0"/>
        <pt x="1094" y="604" on="1"/>
      </contour>
    </TTGlyph>
    <TTGlyph name="O.smcp" xMin="86" yMin="-17" xMax="1116" yMax="1181">
      <contour>
        <pt x="1025" y="461" on="1"/>
        <pt x="978" y="228" on="0"/>
        <pt x="688" y="-17" on="0"/>
        <pt x="483" y="-17" on="1"/>
        <pt x="294" y="-17" on="0"/>
        <pt x="86" y="247" on="0"/>
        <pt x="129" y="461" on="1"/>
        <pt x="178" y="704" on="1"/>
        <pt x="224" y="934" on="0"/>
        <pt x="515" y="1181" on="0"/>
        <pt x="720" y="1181" on="1"/>
        <pt x="908" y="1181" on="0"/>
        <pt x="1116" y="916" on="0"/>
        <pt x="1074" y="704" on="1"/>
      </contour>
      <contour>
        <pt x="959" y="705" on="1"/>
        <pt x="997" y="897" on="0"/>
        <pt x="859" y="1080" on="0"/>
        <pt x="700" y="1080" on="1"/>
        <pt x="555" y="1080" on="0"/>
        <pt x="329" y="882" on="0"/>
        <pt x="294" y="705" on="1"/>
        <pt x="245" y="461" on="1"/>
        <pt x="206" y="267" on="0"/>
        <pt x="343" y="84" on="0"/>
        <pt x="503" y="84" on="1"/>
        <pt x="649" y="84" on="0"/>
        <pt x="874" y="282" on="0"/>
        <pt x="910" y="461" on="1"/>
      </contour>
    </TTGlyph>
    <TTGlyph name="OE" xMin="83" yMin="-21" xMax="1904" yMax="1477">
      <contour>
        <pt x="1618" y="0" on="1"/>
        <pt x="810" y="0" on="1"/>
        <pt x="718" y="-10" on="0"/>
        <pt x="585" y="-21" on="0"/>
        <pt x="518" y="-21" on="1"/>
        <pt x="309" y="-21" on="0"/>
        <pt x="83" y="316" on="0"/>
        <pt x="135" y="576" on="1"/>
        <pt x="196" y="880" on="1"/>
        <pt x="252" y="1162" on="0"/>
        <pt x="587" y="1477" on="0"/>
        <pt x="815" y="1477" on="1"/>
        <pt x="879" y="1477" on="0"/>
        <pt x="1028" y="1465" on="0"/>
        <pt x="1101" y="1456" on="1"/>
        <pt x="1904" y="1456" on="1"/>
        <pt x="1884" y="1354" on="1"/>
        <pt x="1143" y="1354" on="1"/>
        <pt x="1034" y="807" on="1"/>
        <pt x="1684" y="807" on="1"/>
        <pt x="1664" y="705" on="1"/>
        <pt x="1014" y="705" on="1"/>
        <pt x="893" y="101" on="1"/>
        <pt x="1638" y="101" on="1"/>
      </contour>
      <contour>
        <pt x="538" y="81" on="1"/>
        <pt x="595" y="81" on="0"/>
        <pt x="720" y="88" on="0"/>
        <pt x="777" y="96" on="1"/>
        <pt x="1030" y="1360" on="1"/>
        <pt x="977" y="1367" on="0"/>
        <pt x="858" y="1375" on="0"/>
        <pt x="795" y="1375" on="1"/>
        <pt x="630" y="1375" on="0"/>
        <pt x="357" y="1106" on="0"/>
        <pt x="312" y="882" on="1"/>
        <pt x="251" y="576" on="1"/>
        <pt x="202" y="333" on="0"/>
        <pt x="358" y="81" on="0"/>
      </contour>
    </TTGlyph>
    <TTGlyph name="Oacute" xMin="102" yMin="-21" xMax="1311" yMax="1844">
      <component glyphName="O" x="0" y="0" flags="0x204"/>
      <component glyphName="acute" x="569" y="366" flags="0x4"/>
    </TTGlyph>
    <TTGlyph name="Oacute.smcp" xMin="86" yMin="-17" xMax="1116" yMax="1516">
      <component glyphName="O.smcp" x="0" y="0" flags="0x204"/>
      <component glyphName="acute" x="410" y="38" flags="0x4"/>
    </TTGlyph>
    <TTGlyph name="Obreve" xMin="102" yMin="-21" xMax="1311" yMax="1875">
      <component glyphName="O" x="0" y="0" flags="0x204"/>
      <component glyphName="breve" x="360" y="419" flags="0x4"/>
    </TTGlyph>
    <TTGlyph name="Obreve.smcp" xMin="86" yMin="-17" xMax="1116" yMax="1547">
      <component glyphName="O.smcp" x="0" y="0" flags="0x204"/>
      <component glyphName="breve" x="201" y="91" flags="0x4"/>
    </TTGlyph>
    <TTGlyph name="Ocircumflex" xMin="102" yMin="-21" xMax="1311" yMax="1864">
      <component glyphName="O" x="0" y="0" flags="0x204"/>
      <component glyphName="circumflex" x="305" y="370" flags="0x4"/>
    </TTGlyph>
    <TTGlyph name="Ocircumflex.smcp" xMin="86" yMin="-17" xMax="1116" yMax="1536">
      <component glyphName="O.smcp" x="0" y="0" flags="0x204"/>
      <component glyphName="circumflex" x="146" y="42" flags="0x4"/>
    </TTGlyph>
    <TTGlyph name="Odieresis" xMin="102" yMin="-21" xMax="1311" yMax="1819">
      <component glyphName="O" x="0" y="0" flags="0x204"/>
      <component glyphName="dieresis" x="300" y="363" flags="0x4"/>
    </TTGlyph>
    <TTGlyph name="Odieresis.smcp" xMin="86" yMin="-17" xMax="1116" yMax="1491">
      <component glyphName="O.smcp" x="0" y="0" flags="0x204"/>
      <component glyphName="dieresis" x="141" y="35" flags="0x4"/>
    </TTGlyph>
    <TTGlyph name="Ograve" xMin="102" yMin="-21" xMax="1311" yMax="1848">
      <component glyphName="O" x="0" y="0" flags="0x204"/>
      <component glyphName="grave" x="393" y="372" flags="0x4"/>
    </TTGlyph>
    <TTGlyph name="Ograve.smcp" xMin="86" yMin="-17" xMax="1116" yMax="1520">
      <component glyphName="O.smcp" x="0" y="0" flags="0x204"/>
      <component glyphName="grave" x="234" y="44" flags="0x4"/>
    </TTGlyph>
    <TTGlyph name="Ohorn" xMin="114" yMin="-21" xMax="1665" yMax="1626">
      <contour>
        <pt x="1223" y="609" on="1"/>
        <pt x="1162" y="309" on="0"/>
        <pt x="813" y="-21" on="0"/>
        <pt x="566" y="-21" on="1"/>
        <pt x="343" y="-21" on="0"/>
        <pt x="114" y="333" on="0"/>
        <pt x="170" y="609" on="1"/>
        <pt x="217" y="846" on="1"/>
        <pt x="277" y="1146" on="0"/>
        <pt x="621" y="1477" on="0"/>
        <pt x="864" y="1477" on="1"/>
        <pt x="981" y="1477" on="0"/>
        <pt x="1165" y="1373" on="0"/>
        <pt x="1220" y="1279" on="1"/>
        <pt x="1344" y="1287" on="0"/>
        <pt x="1522" y="1469" on="0"/>
        <pt x="1554" y="1626" on="1"/>
        <pt x="1663" y="1626" on="1"/>
        <pt x="1665" y="1621" on="1"/>
        <pt x="1627" y="1420" on="0"/>
        <pt x="1422" y="1203" on="0"/>
        <pt x="1262" y="1181" on="1"/>
        <pt x="1284" y="1108" on="0"/>
        <pt x="1288" y="940" on="0"/>
        <pt x="1270" y="846" on="1"/>
      </contour>
      <contour>
        <pt x="1156" y="848" on="1"/>
        <pt x="1206" y="1099" on="0"/>
        <pt x="1043" y="1372" on="0"/>
        <pt x="843" y="1372" on="1"/>
        <pt x="664" y="1372" on="0"/>
        <pt x="379" y="1079" on="0"/>
        <pt x="334" y="848" on="1"/>
        <pt x="286" y="609" on="1"/>
        <pt x="235" y="356" on="0"/>
        <pt x="392" y="83" on="0"/>
        <pt x="587" y="83" on="1"/>
        <pt x="770" y="83" on="0"/>
        <pt x="1061" y="375" on="0"/>
        <pt x="1108" y="609" on="1"/>
      </contour>
    </TTGlyph>
    <TTGlyph name="Ohungarumlaut" xMin="102" yMin="-21" xMax="1361" yMax="1888">
      <component glyphName="O" x="0" y="0" flags="0x204"/>
      <component glyphName="hungarumlaut" x="401" y="370" flags="0x4"/>
    </TTGlyph>
    <TTGlyph name="Ohungarumlaut.smcp" xMin="86" yMin="-17" xMax="1202" yMax="1560">
      <component glyphName="O.smcp" x="0" y="0" flags="0x204"/>
      <component glyphName="hungarumlaut" x="242" y="42" flags="0x4"/>
    </TTGlyph>
    <TTGlyph name="Omacron" xMin="102" yMin="-21" xMax="1311" yMax="1807">
      <component glyphName="O" x="0" y="0" flags="0x204"/>
      <component glyphName="macron" x="332" y="351" flags="0x4"/>
    </TTGlyph>
    <TTGlyph name="Omacron.smcp" xMin="86" yMin="-17" xMax="1116" yMax="1479">
      <component glyphName="O.smcp" x="0" y="0" flags="0x204"/>
      <component glyphName="macron" x="173" y="23" flags="0x4"/>
    </TTGlyph>
    <TTGlyph name="Omega" xMin="31" yMin="0" xMax="1262" yMax="1477">
      <contour>
        <pt x="621" y="26" on="1"/>
        <pt x="639" y="116" on="1"/>
        <pt x="783" y="164" on="0"/>
        <pt x="1015" y="466" on="0"/>
        <pt x="1067" y="727" on="1"/>
        <pt x="1091" y="846" on="1"/>
        <pt x="1141" y="1100" on="0"/>
        <pt x="990" y="1375" on="0"/>
        <pt x="811" y="1375" on="1"/>
        <pt x="646" y="1375" on="0"/>
        <pt x="368" y="1081" on="0"/>
        <pt x="321" y="846" on="1"/>
        <pt x="297" y="727" on="1"/>
        <pt x="241" y="447" on="0"/>
        <pt x="355" y="166" on="0"/>
        <pt x="487" y="116" on="1"/>
        <pt x="469" y="26" on="1"/>
        <pt x="464" y="0" on="1"/>
        <pt x="31" y="0" on="1"/>
        <pt x="51" y="101" on="1"/>
        <pt x="330" y="101" on="1"/>
        <pt x="224" y="191" on="0"/>
        <pt x="139" y="517" on="0"/>
        <pt x="181" y="727" on="1"/>
        <pt x="205" y="844" on="1"/>
        <pt x="265" y="1145" on="0"/>
        <pt x="603" y="1477" on="0"/>
        <pt x="831" y="1477" on="1"/>
        <pt x="1039" y="1477" on="0"/>
        <pt x="1262" y="1121" on="0"/>
        <pt x="1207" y="844" on="1"/>
        <pt x="1183" y="727" on="1"/>
        <pt x="1138" y="504" on="0"/>
        <pt x="930" y="188" on="0"/>
        <pt x="792" y="101" on="1"/>
        <pt x="1068" y="101" on="1"/>
        <pt x="1048" y="0" on="1"/>
        <pt x="616" y="0" on="1"/>
      </contour>
    </TTGlyph>
    <TTGlyph name="Omegatonos" xMin="51" yMin="0" xMax="1282" yMax="1617">
      <component glyphName="Omega" x="20" y="0" flags="0x4"/>
      <component glyphName="tonos" x="-97" y="0" flags="0x4"/>
    </TTGlyph>
    <TTGlyph name="Omicron" xMin="102" yMin="-21" xMax="1311" yMax="1477">
      <component glyphName="O" x="0" y="0" flags="0x204"/>
    </TTGlyph>
    <TTGlyph name="Omicrontonos" xMin="122" yMin="-21" xMax="1331" yMax="1617">
      <component glyphName="O" x="20" y="0" flags="0x4"/>
      <component glyphName="tonos" x="-122" y="0" flags="0x4"/>
    </TTGlyph>
    <TTGlyph name="Oslash" xMin="59" yMin="-84" xMax="1384" yMax="1505">
      <contour>
        <pt x="1210" y="609" on="1"/>
        <pt x="1149" y="309" on="0"/>
        <pt x="800" y="-21" on="0"/>
        <pt x="553" y="-21" on="1"/>
        <pt x="472" y="-21" on="0"/>
        <pt x="334" y="29" on="0"/>
        <pt x="282" y="77" on="1"/>
        <pt x="158" y="-84" on="1"/>
        <pt x="59" y="-84" on="1"/>
        <pt x="229" y="136" on="1"/>
        <pt x="166" y="221" on="0"/>
        <pt x="127" y="464" on="0"/>
        <pt x="157" y="609" on="1"/>
        <pt x="204" y="846" on="1"/>
        <pt x="264" y="1146" on="0"/>
        <pt x="608" y="1477" on="0"/>
        <pt x="851" y="1477" on="1"/>
        <pt x="946" y="1477" on="0"/>
        <pt x="1104" y="1408" on="0"/>
        <pt x="1161" y="1344" on="1"/>
        <pt x="1285" y="1505" on="1"/>
        <pt x="1384" y="1505" on="1"/>
        <pt x="1208" y="1277" on="1"/>
        <pt x="1255" y="1193" on="0"/>
        <pt x="1282" y="972" on="0"/>
        <pt x="1257" y="846" on="1"/>
      </contour>
      <contour>
        <pt x="273" y="609" on="1"/>
        <pt x="247" y="486" on="0"/>
        <pt x="260" y="294" on="0"/>
        <pt x="296" y="234" on="1"/>
        <pt x="302" y="232" on="1"/>
        <pt x="1095" y="1259" on="1"/>
        <pt x="1053" y="1314" on="0"/>
        <pt x="920" y="1372" on="0"/>
        <pt x="830" y="1372" on="1"/>
        <pt x="651" y="1372" on="0"/>
        <pt x="366" y="1079" on="0"/>
        <pt x="321" y="848" on="1"/>
      </contour>
      <contour>
        <pt x="1143" y="848" on="1"/>
        <pt x="1163" y="950" on="0"/>
        <pt x="1159" y="1116" on="0"/>
        <pt x="1136" y="1175" on="1"/>
        <pt x="1130" y="1177" on="1"/>
        <pt x="346" y="161" on="1"/>
        <pt x="386" y="122" on="0"/>
        <pt x="500" y="83" on="0"/>
        <pt x="574" y="83" on="1"/>
        <pt x="757" y="83" on="0"/>
        <pt x="1048" y="375" on="0"/>
        <pt x="1095" y="609" on="1"/>
      </contour>
    </TTGlyph>
    <TTGlyph name="Oslashacute" xMin="59" yMin="-84" xMax="1384" yMax="1885">
      <component glyphName="Oslash" x="0" y="0" flags="0x204"/>
      <component glyphName="acute" x="594" y="407" flags="0x4"/>
    </TTGlyph>
    <TTGlyph name="Otilde" xMin="102" yMin="-21" xMax="1311" yMax="1863">
      <component glyphName="O" x="0" y="0" flags="0x204"/>
      <component glyphName="tilde" x="330" y="362" flags="0x4"/>
    </TTGlyph>
    <TTGlyph name="Otilde.smcp" xMin="86" yMin="-17" xMax="1116" yMax="1535">
      <component glyphName="O.smcp" x="0" y="0" flags="0x204"/>
      <component glyphName="tilde" x="171" y="34" flags="0x4"/>
    </TTGlyph>
    <TTGlyph name="P" xMin="97" yMin="0" xMax="1256" yMax="1456">
      <contour>
        <pt x="333" y="605" on="1"/>
        <pt x="212" y="0" on="1"/>
        <pt x="97" y="0" on="1"/>
        <pt x="388" y="1456" on="1"/>
        <pt x="857" y="1456" on="1"/>
        <pt x="1056" y="1456" on="0"/>
        <pt x="1256" y="1218" on="0"/>
        <pt x="1219" y="1031" on="1"/>
        <pt x="1178" y="825" on="0"/>
        <pt x="904" y="605" on="0"/>
        <pt x="687" y="605" on="1"/>
      </contour>
      <contour>
        <pt x="353" y="707" on="1"/>
        <pt x="707" y="707" on="1"/>
        <pt x="861" y="707" on="0"/>
        <pt x="1076" y="894" on="0"/>
        <pt x="1104" y="1029" on="1"/>
        <pt x="1133" y="1178" on="0"/>
        <pt x="1006" y="1354" on="0"/>
        <pt x="837" y="1354" on="1"/>
        <pt x="483" y="1354" on="1"/>
      </contour>
    </TTGlyph>
    <TTGlyph name="P.smcp" xMin="75" yMin="0" xMax="1060" yMax="1165">
      <contour>
        <pt x="279" y="436" on="1"/>
        <pt x="192" y="0" on="1"/>
        <pt x="75" y="0" on="1"/>
        <pt x="308" y="1165" on="1"/>
        <pt x="721" y="1165" on="1"/>
        <pt x="887" y="1165" on="0"/>
        <pt x="1060" y="957" on="0"/>
        <pt x="1029" y="800" on="1"/>
        <pt x="994" y="628" on="0"/>
        <pt x="756" y="436" on="0"/>
        <pt x="575" y="436" on="1"/>
      </contour>
      <contour>
        <pt x="299" y="537" on="1"/>
        <pt x="595" y="537" on="1"/>
        <pt x="716" y="537" on="0"/>
        <pt x="891" y="692" on="0"/>
        <pt x="913" y="798" on="1"/>
        <pt x="936" y="917" on="0"/>
        <pt x="833" y="1064" on="0"/>
        <pt x="701" y="1064" on="1"/>
        <pt x="405" y="1064" on="1"/>
      </contour>
    </TTGlyph>
    <TTGlyph name="Phi" xMin="102" yMin="0" xMax="1391" yMax="1456">
      <contour>
        <pt x="911" y="1268" on="1"/>
        <pt x="914" y="1268" on="1"/>
        <pt x="1136" y="1268" on="0"/>
        <pt x="1391" y="958" on="0"/>
        <pt x="1346" y="732" on="1"/>
        <pt x="1297" y="484" on="0"/>
        <pt x="941" y="193" on="0"/>
        <pt x="699" y="193" on="1"/>
        <pt x="696" y="193" on="1"/>
        <pt x="658" y="0" on="1"/>
        <pt x="542" y="0" on="1"/>
        <pt x="580" y="193" on="1"/>
        <pt x="356" y="193" on="0"/>
        <pt x="102" y="501" on="0"/>
        <pt x="148" y="730" on="1"/>
        <pt x="197" y="976" on="0"/>
        <pt x="552" y="1268" on="0"/>
        <pt x="795" y="1268" on="1"/>
        <pt x="833" y="1456" on="1"/>
        <pt x="949" y="1456" on="1"/>
      </contour>
      <contour>
        <pt x="891" y="1166" on="1"/>
        <pt x="716" y="294" on="1"/>
        <pt x="721" y="294" on="1"/>
        <pt x="903" y="294" on="0"/>
        <pt x="1191" y="541" on="0"/>
        <pt x="1230" y="732" on="1"/>
        <pt x="1271" y="936" on="0"/>
        <pt x="1093" y="1166" on="0"/>
        <pt x="895" y="1166" on="1"/>
      </contour>
      <contour>
        <pt x="774" y="1166" on="1"/>
        <pt x="590" y="1166" on="0"/>
        <pt x="300" y="918" on="0"/>
        <pt x="263" y="730" on="1"/>
        <pt x="221" y="522" on="0"/>
        <pt x="397" y="295" on="0"/>
        <pt x="596" y="300" on="1"/>
        <pt x="601" y="301" on="1"/>
        <pt x="775" y="1166" on="1"/>
      </contour>
    </TTGlyph>
    <TTGlyph name="Pi" xMin="97" yMin="0" xMax="1382" yMax="1456">
      <contour>
        <pt x="1091" y="0" on="1"/>
        <pt x="976" y="0" on="1"/>
        <pt x="1247" y="1354" on="1"/>
        <pt x="483" y="1354" on="1"/>
        <pt x="212" y="0" on="1"/>
        <pt x="97" y="0" on="1"/>
        <pt x="388" y="1456" on="1"/>
        <pt x="1382" y="1456" on="1"/>
      </contour>
    </TTGlyph>
    <TTGlyph name="Psi" xMin="164" yMin="0" xMax="1411" yMax="1456">
      <contour>
        <pt x="722" y="461" on="1"/>
        <pt x="727" y="458" on="1"/>
        <pt x="884" y="469" on="0"/>
        <pt x="1145" y="707" on="0"/>
        <pt x="1183" y="896" on="1"/>
        <pt x="1295" y="1456" on="1"/>
        <pt x="1411" y="1456" on="1"/>
        <pt x="1299" y="896" on="1"/>
        <pt x="1247" y="634" on="0"/>
        <pt x="927" y="361" on="0"/>
        <pt x="699" y="348" on="1"/>
        <pt x="630" y="0" on="1"/>
        <pt x="513" y="0" on="1"/>
        <pt x="583" y="349" on="1"/>
        <pt x="381" y="366" on="0"/>
        <pt x="164" y="657" on="0"/>
        <pt x="212" y="896" on="1"/>
        <pt x="324" y="1456" on="1"/>
        <pt x="440" y="1456" on="1"/>
        <pt x="328" y="896" on="1"/>
        <pt x="286" y="691" on="0"/>
        <pt x="438" y="467" on="0"/>
        <pt x="599" y="458" on="1"/>
        <pt x="605" y="459" on="1"/>
        <pt x="804" y="1456" on="1"/>
        <pt x="921" y="1456" on="1"/>
      </contour>
    </TTGlyph>
    <TTGlyph name="Q" xMin="102" yMin="-212" xMax="1311" yMax="1477">
      <contour>
        <pt x="1209" y="604" on="1"/>
        <pt x="1172" y="422" on="0"/>
        <pt x="1028" y="161" on="0"/>
        <pt x="924" y="84" on="1"/>
        <pt x="1099" y="-137" on="1"/>
        <pt x="1003" y="-212" on="1"/>
        <pt x="817" y="23" on="1"/>
        <pt x="765" y="1" on="0"/>
        <pt x="648" y="-21" on="0"/>
        <pt x="585" y="-21" on="1"/>
        <pt x="359" y="-21" on="0"/>
        <pt x="102" y="340" on="0"/>
        <pt x="158" y="613" on="1"/>
        <pt x="205" y="851" on="1"/>
        <pt x="266" y="1154" on="0"/>
        <pt x="579" y="1477" on="0"/>
        <pt x="818" y="1477" on="1"/>
        <pt x="1047" y="1477" on="0"/>
        <pt x="1311" y="1114" on="0"/>
        <pt x="1256" y="842" on="1"/>
      </contour>
      <contour>
        <pt x="1142" y="844" on="1"/>
        <pt x="1191" y="1091" on="0"/>
        <pt x="1000" y="1372" on="0"/>
        <pt x="797" y="1372" on="1"/>
        <pt x="622" y="1372" on="0"/>
        <pt x="368" y="1088" on="0"/>
        <pt x="322" y="853" on="1"/>
        <pt x="274" y="613" on="1"/>
        <pt x="223" y="364" on="0"/>
        <pt x="408" y="83" on="0"/>
        <pt x="606" y="83" on="1"/>
        <pt x="786" y="83" on="0"/>
        <pt x="1046" y="366" on="0"/>
        <pt x="1094" y="604" on="1"/>
      </contour>
    </TTGlyph>
    <TTGlyph name="Q.smcp" xMin="86" yMin="-111" xMax="1116" yMax="1181">
      <contour>
        <pt x="1025" y="461" on="1"/>
        <pt x="1005" y="360" on="0"/>
        <pt x="925" y="198" on="0"/>
        <pt x="868" y="139" on="1"/>
        <pt x="1007" y="-37" on="1"/>
        <pt x="912" y="-111" on="1"/>
        <pt x="772" y="61" on="1"/>
        <pt x="710" y="22" on="0"/>
        <pt x="563" y="-17" on="0"/>
        <pt x="483" y="-17" on="1"/>
        <pt x="294" y="-17" on="0"/>
        <pt x="86" y="247" on="0"/>
        <pt x="129" y="461" on="1"/>
        <pt x="178" y="704" on="1"/>
        <pt x="224" y="934" on="0"/>
        <pt x="515" y="1181" on="0"/>
        <pt x="720" y="1181" on="1"/>
        <pt x="908" y="1181" on="0"/>
        <pt x="1116" y="916" on="0"/>
        <pt x="1074" y="704" on="1"/>
      </contour>
      <contour>
        <pt x="959" y="705" on="1"/>
        <pt x="997" y="897" on="0"/>
        <pt x="859" y="1080" on="0"/>
        <pt x="700" y="1080" on="1"/>
        <pt x="555" y="1080" on="0"/>
        <pt x="329" y="882" on="0"/>
        <pt x="294" y="705" on="1"/>
        <pt x="245" y="461" on="1"/>
        <pt x="206" y="267" on="0"/>
        <pt x="343" y="84" on="0"/>
        <pt x="503" y="84" on="1"/>
        <pt x="649" y="84" on="0"/>
        <pt x="874" y="282" on="0"/>
        <pt x="910" y="461" on="1"/>
      </contour>
    </TTGlyph>
    <TTGlyph name="R" xMin="94" yMin="0" xMax="1254" yMax="1455">
      <contour>
        <pt x="342" y="658" on="1"/>
        <pt x="210" y="0" on="1"/>
        <pt x="94" y="0" on="1"/>
        <pt x="385" y="1455" on="1"/>
        <pt x="846" y="1455" on="1"/>
        <pt x="1050" y="1455" on="0"/>
        <pt x="1254" y="1246" on="0"/>
        <pt x="1216" y="1053" on="1"/>
        <pt x="1190" y="928" on="0"/>
        <pt x="1030" y="750" on="0"/>
        <pt x="905" y="710" on="1"/>
        <pt x="1019" y="675" on="0"/>
        <pt x="1102" y="497" on="0"/>
        <pt x="1077" y="371" on="1"/>
        <pt x="1050" y="234" on="1"/>
        <pt x="1035" y="162" on="0"/>
        <pt x="1044" y="59" on="0"/>
        <pt x="1072" y="24" on="1"/>
        <pt x="1067" y="0" on="1"/>
        <pt x="949" y="0" on="1"/>
        <pt x="922" y="36" on="0"/>
        <pt x="920" y="165" on="0"/>
        <pt x="934" y="236" on="1"/>
        <pt x="961" y="369" on="1"/>
        <pt x="989" y="511" on="0"/>
        <pt x="863" y="658" on="0"/>
        <pt x="719" y="658" on="1"/>
      </contour>
      <contour>
        <pt x="362" y="760" on="1"/>
        <pt x="693" y="760" on="1"/>
        <pt x="862" y="760" on="0"/>
        <pt x="1074" y="923" on="0"/>
        <pt x="1100" y="1054" on="1"/>
        <pt x="1130" y="1207" on="0"/>
        <pt x="998" y="1353" on="0"/>
        <pt x="826" y="1353" on="1"/>
        <pt x="481" y="1353" on="1"/>
      </contour>
    </TTGlyph>
    <TTGlyph name="R.smcp" xMin="75" yMin="0" xMax="1064" yMax="1165">
      <contour>
        <pt x="294" y="509" on="1"/>
        <pt x="192" y="0" on="1"/>
        <pt x="75" y="0" on="1"/>
        <pt x="308" y="1165" on="1"/>
        <pt x="721" y="1165" on="1"/>
        <pt x="892" y="1165" on="0"/>
        <pt x="1064" y="991" on="0"/>
        <pt x="1033" y="836" on="1"/>
        <pt x="1011" y="731" on="0"/>
        <pt x="894" y="596" on="0"/>
        <pt x="793" y="563" on="1"/>
        <pt x="880" y="533" on="0"/>
        <pt x="944" y="391" on="0"/>
        <pt x="924" y="291" on="1"/>
        <pt x="900" y="172" on="1"/>
        <pt x="889" y="119" on="0"/>
        <pt x="883" y="42" on="0"/>
        <pt x="891" y="19" on="1"/>
        <pt x="887" y="0" on="1"/>
        <pt x="766" y="0" on="1"/>
        <pt x="760" y="24" on="0"/>
        <pt x="773" y="121" on="0"/>
        <pt x="784" y="173" on="1"/>
        <pt x="807" y="289" on="1"/>
        <pt x="829" y="400" on="0"/>
        <pt x="735" y="509" on="0"/>
        <pt x="622" y="509" on="1"/>
      </contour>
      <contour>
        <pt x="314" y="610" on="1"/>
        <pt x="610" y="610" on="1"/>
        <pt x="739" y="610" on="0"/>
        <pt x="894" y="725" on="0"/>
        <pt x="917" y="833" on="1"/>
        <pt x="940" y="951" on="0"/>
        <pt x="841" y="1064" on="0"/>
        <pt x="701" y="1064" on="1"/>
        <pt x="405" y="1064" on="1"/>
      </contour>
    </TTGlyph>
    <TTGlyph name="Racute" xMin="94" yMin="0" xMax="1254" yMax="1823">
      <component glyphName="R" x="0" y="0" flags="0x204"/>
      <component glyphName="acute" x="495" y="345" flags="0x4"/>
    </TTGlyph>
    <TTGlyph name="Racute.smcp" xMin="75" yMin="0" xMax="1064" yMax="1500">
      <component glyphName="R.smcp" x="0" y="0" flags="0x204"/>
      <component glyphName="acute" x="322" y="22" flags="0x4"/>
    </TTGlyph>
    <TTGlyph name="Rcaron" xMin="94" yMin="0" xMax="1254" yMax="1845">
      <component glyphName="R" x="0" y="0" flags="0x204"/>
      <component glyphName="caron" x="249" y="351" flags="0x4"/>
    </TTGlyph>
    <TTGlyph name="Rcaron.smcp" xMin="75" yMin="0" xMax="1064" yMax="1522">
      <component glyphName="R.smcp" x="0" y="0" flags="0x204"/>
      <component glyphName="caron" x="76" y="28" flags="0x4"/>
    </TTGlyph>
    <TTGlyph name="Rcommaaccent" xMin="94" yMin="-453" xMax="1254" yMax="1455">
      <component glyphName="R" x="0" y="0" flags="0x204"/>
      <component glyphName="commaaccent" x="280" y="-38" flags="0x4"/>
    </TTGlyph>
    <TTGlyph name="Rcommaaccent.smcp" xMin="75" yMin="-455" xMax="1064" yMax="1165">
      <component glyphName="R.smcp" x="0" y="0" flags="0x204"/>
      <component glyphName="commaaccent" x="171" y="-40" flags="0x4"/>
    </TTGlyph>
    <TTGlyph name="Rho" xMin="97" yMin="0" xMax="1256" yMax="1456">
      <component glyphName="P" x="0" y="0" flags="0x204"/>
    </TTGlyph>
    <TTGlyph name="S" xMin="93" yMin="-21" xMax="1184" yMax="1477">
      <contour>
        <pt x="944" y="317" on="1"/>
        <pt x="971" y="451" on="0"/>
        <pt x="840" y="599" on="0"/>
        <pt x="641" y="676" on="1"/>
        <pt x="429" y="753" on="0"/>
        <pt x="247" y="949" on="0"/>
        <pt x="285" y="1136" on="1"/>
        <pt x="318" y="1300" on="0"/>
        <pt x="577" y="1477" on="0"/>
        <pt x="759" y="1477" on="1"/>
        <pt x="959" y="1477" on="0"/>
        <pt x="1184" y="1242" on="0"/>
        <pt x="1140" y="1042" on="1"/>
        <pt x="1138" y="1037" on="1"/>
        <pt x="1029" y="1037" on="1"/>
        <pt x="1060" y="1191" on="0"/>
        <pt x="901" y="1375" on="0"/>
        <pt x="739" y="1375" on="1"/>
        <pt x="615" y="1375" on="0"/>
        <pt x="420" y="1234" on="0"/>
        <pt x="401" y="1138" on="1"/>
        <pt x="373" y="1002" on="0"/>
        <pt x="494" y="858" on="0"/>
        <pt x="698" y="780" on="1"/>
        <pt x="910" y="702" on="0"/>
        <pt x="1097" y="500" on="0"/>
        <pt x="1061" y="319" on="1"/>
        <pt x="1027" y="150" on="0"/>
        <pt x="755" y="-21" on="0"/>
        <pt x="560" y="-21" on="1"/>
        <pt x="362" y="-21" on="0"/>
        <pt x="93" y="191" on="0"/>
        <pt x="142" y="412" on="1"/>
        <pt x="145" y="418" on="1"/>
        <pt x="252" y="418" on="1"/>
        <pt x="214" y="229" on="0"/>
        <pt x="417" y="80" on="0"/>
        <pt x="580" y="80" on="1"/>
        <pt x="708" y="80" on="0"/>
        <pt x="924" y="219" on="0"/>
      </contour>
    </TTGlyph>
    <TTGlyph name="S.smcp" xMin="47" yMin="-17" xMax="1046" yMax="1181">
      <contour>
        <pt x="806" y="291" on="1"/>
        <pt x="824" y="382" on="0"/>
        <pt x="716" y="479" on="0"/>
        <pt x="545" y="531" on="1"/>
        <pt x="355" y="588" on="0"/>
        <pt x="199" y="732" on="0"/>
        <pt x="228" y="873" on="1"/>
        <pt x="257" y="1022" on="0"/>
        <pt x="501" y="1181" on="0"/>
        <pt x="687" y="1181" on="1"/>
        <pt x="862" y="1181" on="0"/>
        <pt x="1046" y="995" on="0"/>
        <pt x="1010" y="834" on="1"/>
        <pt x="1007" y="828" on="1"/>
        <pt x="899" y="828" on="1"/>
        <pt x="922" y="946" on="0"/>
        <pt x="802" y="1080" on="0"/>
        <pt x="667" y="1080" on="1"/>
        <pt x="538" y="1080" on="0"/>
        <pt x="361" y="960" on="0"/>
        <pt x="344" y="874" on="1"/>
        <pt x="325" y="781" on="0"/>
        <pt x="424" y="686" on="0"/>
        <pt x="603" y="634" on="1"/>
        <pt x="791" y="577" on="0"/>
        <pt x="950" y="430" on="0"/>
        <pt x="922" y="292" on="1"/>
        <pt x="891" y="137" on="0"/>
        <pt x="636" y="-17" on="0"/>
        <pt x="437" y="-17" on="1"/>
        <pt x="267" y="-17" on="0"/>
        <pt x="47" y="152" on="0"/>
        <pt x="88" y="330" on="1"/>
        <pt x="90" y="336" on="1"/>
        <pt x="198" y="336" on="1"/>
        <pt x="170" y="194" on="0"/>
        <pt x="324" y="84" on="0"/>
        <pt x="457" y="84" on="1"/>
        <pt x="591" y="84" on="0"/>
        <pt x="789" y="204" on="0"/>
      </contour>
    </TTGlyph>
    <TTGlyph name="Sacute" xMin="93" yMin="-21" xMax="1184" yMax="1844">
      <component glyphName="S" x="0" y="0" flags="0x204"/>
      <component glyphName="acute" x="507" y="366" flags="0x4"/>
    </TTGlyph>
    <TTGlyph name="Sacute.smcp" xMin="47" yMin="-17" xMax="1046" yMax="1516">
      <component glyphName="S.smcp" x="0" y="0" flags="0x204"/>
      <component glyphName="acute" x="381" y="38" flags="0x4"/>
    </TTGlyph>
    <TTGlyph name="Scaron" xMin="93" yMin="-21" xMax="1184" yMax="1866">
      <component glyphName="S" x="0" y="0" flags="0x204"/>
      <component glyphName="caron" x="261" y="372" flags="0x4"/>
    </TTGlyph>
    <TTGlyph name="Scaron.smcp" xMin="47" yMin="-17" xMax="1046" yMax="1538">
      <component glyphName="S.smcp" x="0" y="0" flags="0x204"/>
      <component glyphName="caron" x="135" y="44" flags="0x4"/>
    </TTGlyph>
    <TTGlyph name="Scedilla" xMin="93" yMin="-443" xMax="1184" yMax="1477">
      <component glyphName="S" x="0" y="0" flags="0x204"/>
      <component glyphName="cedilla" x="392" y="-8" flags="0x4"/>
    </TTGlyph>
    <TTGlyph name="Scedilla.smcp" xMin="47" yMin="-440" xMax="1046" yMax="1181">
      <component glyphName="S.smcp" x="0" y="0" flags="0x204"/>
      <component glyphName="cedilla" x="333" y="-5" flags="0x4"/>
    </TTGlyph>
    <TTGlyph name="Scircumflex" xMin="93" yMin="-21" xMax="1184" yMax="1864">
      <component glyphName="S" x="0" y="0" flags="0x204"/>
      <component glyphName="circumflex" x="243" y="370" flags="0x4"/>
    </TTGlyph>
    <TTGlyph name="Scircumflex.smcp" xMin="47" yMin="-17" xMax="1046" yMax="1536">
      <component glyphName="S.smcp" x="0" y="0" flags="0x204"/>
      <component glyphName="circumflex" x="117" y="42" flags="0x4"/>
    </TTGlyph>
    <TTGlyph name="Sigma" xMin="-21" yMin="0" xMax="1157" yMax="1456">
      <contour>
        <pt x="726" y="743" on="1"/>
        <pt x="146" y="107" on="1"/>
        <pt x="148" y="102" on="1"/>
        <pt x="937" y="102" on="1"/>
        <pt x="917" y="0" on="1"/>
        <pt x="-21" y="0" on="1"/>
        <pt x="-2" y="93" on="1"/>
        <pt x="609" y="759" on="1"/>
        <pt x="252" y="1363" on="1"/>
        <pt x="270" y="1456" on="1"/>
        <pt x="1157" y="1456" on="1"/>
        <pt x="1137" y="1354" on="1"/>
        <pt x="398" y="1354" on="1"/>
        <pt x="733" y="779" on="1"/>
      </contour>
    </TTGlyph>
    <TTGlyph name="T" xMin="232" yMin="0" xMax="1296" yMax="1456">
      <contour>
        <pt x="1276" y="1354" on="1"/>
        <pt x="811" y="1354" on="1"/>
        <pt x="541" y="0" on="1"/>
        <pt x="425" y="0" on="1"/>
        <pt x="695" y="1354" on="1"/>
        <pt x="232" y="1354" on="1"/>
        <pt x="252" y="1456" on="1"/>
        <pt x="1296" y="1456" on="1"/>
      </contour>
    </TTGlyph>
    <TTGlyph name="T.smcp" xMin="200" yMin="0" xMax="1051" yMax="1165">
      <contour>
        <pt x="1031" y="1064" on="1"/>
        <pt x="667" y="1064" on="1"/>
        <pt x="454" y="0" on="1"/>
        <pt x="338" y="0" on="1"/>
        <pt x="551" y="1064" on="1"/>
        <pt x="200" y="1064" on="1"/>
        <pt x="220" y="1165" on="1"/>
        <pt x="1051" y="1165" on="1"/>
      </contour>
    </TTGlyph>
    <TTGlyph name="Tau" xMin="232" yMin="0" xMax="1296" yMax="1456">
      <component glyphName="T" x="0" y="0" flags="0x204"/>
    </TTGlyph>
    <TTGlyph name="Tbar" xMin="232" yMin="0" xMax="1296" yMax="1456">
      <contour>
        <pt x="925" y="834" on="1"/>
        <pt x="707" y="834" on="1"/>
        <pt x="541" y="0" on="1"/>
        <pt x="425" y="0" on="1"/>
        <pt x="591" y="834" on="1"/>
        <pt x="354" y="834" on="1"/>
        <pt x="375" y="936" on="1"/>
        <pt x="612" y="936" on="1"/>
        <pt x="695" y="1354" on="1"/>
        <pt x="232" y="1354" on="1"/>
        <pt x="252" y="1456" on="1"/>
        <pt x="1296" y="1456" on="1"/>
        <pt x="1276" y="1354" on="1"/>
        <pt x="811" y="1354" on="1"/>
        <pt x="728" y="936" on="1"/>
        <pt x="946" y="936" on="1"/>
      </contour>
    </TTGlyph>
    <TTGlyph name="Tbar.smcp" xMin="200" yMin="0" xMax="1051" yMax="1165">
      <component glyphName="T.smcp" x="0" y="0" flags="0x204"/>
      <component glyphName="crossbar" x="62" y="-28" flags="0x4"/>
    </TTGlyph>
    <TTGlyph name="Tcaron" xMin="232" yMin="0" xMax="1296" yMax="1840">
      <component glyphName="T" x="0" y="0" flags="0x204"/>
      <component glyphName="caron" x="241" y="346" flags="0x4"/>
    </TTGlyph>
    <TTGlyph name="Tcaron.smcp" xMin="200" yMin="0" xMax="1051" yMax="1518">
      <component glyphName="T.smcp" x="0" y="0" flags="0x204"/>
      <component glyphName="caron" x="92" y="24" flags="0x4"/>
    </TTGlyph>
    <TTGlyph name="Tcommaaccent.smcp" xMin="200" yMin="-455" xMax="1051" yMax="1165">
      <component glyphName="T.smcp" x="0" y="0" flags="0x204"/>
      <component glyphName="commaaccent" x="189" y="-40" flags="0x4"/>
    </TTGlyph>
    <TTGlyph name="Theta" xMin="102" yMin="-21" xMax="1311" yMax="1477">
      <contour>
        <pt x="953" y="676" on="1"/>
        <pt x="440" y="676" on="1"/>
        <pt x="460" y="777" on="1"/>
        <pt x="973" y="777" on="1"/>
      </contour>
      <contour>
        <pt x="1209" y="604" on="1"/>
        <pt x="1147" y="300" on="0"/>
        <pt x="829" y="-21" on="0"/>
        <pt x="585" y="-21" on="1"/>
        <pt x="359" y="-21" on="0"/>
        <pt x="102" y="340" on="0"/>
        <pt x="158" y="613" on="1"/>
        <pt x="205" y="851" on="1"/>
        <pt x="266" y="1154" on="0"/>
        <pt x="579" y="1477" on="0"/>
        <pt x="818" y="1477" on="1"/>
        <pt x="1047" y="1477" on="0"/>
        <pt x="1311" y="1114" on="0"/>
        <pt x="1256" y="842" on="1"/>
      </contour>
      <contour>
        <pt x="1142" y="844" on="1"/>
        <pt x="1191" y="1091" on="0"/>
        <pt x="1000" y="1372" on="0"/>
        <pt x="797" y="1372" on="1"/>
        <pt x="622" y="1372" on="0"/>
        <pt x="368" y="1088" on="0"/>
        <pt x="322" y="853" on="1"/>
        <pt x="274" y="613" on="1"/>
        <pt x="223" y="364" on="0"/>
        <pt x="408" y="83" on="0"/>
        <pt x="606" y="83" on="1"/>
        <pt x="786" y="83" on="0"/>
        <pt x="1046" y="366" on="0"/>
        <pt x="1094" y="604" on="1"/>
      </contour>
    </TTGlyph>
    <TTGlyph name="Thorn" xMin="89" yMin="0" xMax="1124" yMax="1456">
      <contour>
        <pt x="496" y="1456" on="1"/>
        <pt x="435" y="1152" on="1"/>
        <pt x="733" y="1152" on="1"/>
        <pt x="925" y="1152" on="0"/>
        <pt x="1124" y="917" on="0"/>
        <pt x="1089" y="738" on="1"/>
        <pt x="1049" y="542" on="0"/>
        <pt x="778" y="324" on="0"/>
        <pt x="568" y="324" on="1"/>
        <pt x="270" y="324" on="1"/>
        <pt x="205" y="0" on="1"/>
        <pt x="89" y="0" on="1"/>
        <pt x="380" y="1456" on="1"/>
      </contour>
      <contour>
        <pt x="415" y="1051" on="1"/>
        <pt x="290" y="425" on="1"/>
        <pt x="588" y="425" on="1"/>
        <pt x="736" y="425" on="0"/>
        <pt x="947" y="613" on="0"/>
        <pt x="972" y="736" on="1"/>
        <pt x="999" y="873" on="0"/>
        <pt x="875" y="1051" on="0"/>
        <pt x="713" y="1051" on="1"/>
      </contour>
    </TTGlyph>
    <TTGlyph name="U" xMin="120" yMin="-21" xMax="1337" yMax="1456">
      <contour>
        <pt x="1337" y="1456" on="1"/>
        <pt x="1140" y="469" on="1"/>
        <pt x="1089" y="215" on="0"/>
        <pt x="776" y="-21" on="0"/>
        <pt x="552" y="-21" on="1"/>
        <pt x="350" y="-21" on="0"/>
        <pt x="120" y="235" on="0"/>
        <pt x="168" y="469" on="1"/>
        <pt x="365" y="1456" on="1"/>
        <pt x="481" y="1456" on="1"/>
        <pt x="284" y="469" on="1"/>
        <pt x="244" y="270" on="0"/>
        <pt x="405" y="80" on="0"/>
        <pt x="572" y="80" on="1"/>
        <pt x="729" y="80" on="0"/>
        <pt x="988" y="285" on="0"/>
        <pt x="1025" y="469" on="1"/>
        <pt x="1222" y="1456" on="1"/>
      </contour>
    </TTGlyph>
    <TTGlyph name="U.smcp" xMin="104" yMin="-17" xMax="1193" yMax="1165">
      <contour>
        <pt x="1193" y="1165" on="1"/>
        <pt x="1039" y="394" on="1"/>
        <pt x="997" y="188" on="0"/>
        <pt x="712" y="-17" on="0"/>
        <pt x="509" y="-17" on="1"/>
        <pt x="323" y="-17" on="0"/>
        <pt x="104" y="204" on="0"/>
        <pt x="143" y="394" on="1"/>
        <pt x="297" y="1165" on="1"/>
        <pt x="412" y="1165" on="1"/>
        <pt x="258" y="394" on="1"/>
        <pt x="227" y="242" on="0"/>
        <pt x="380" y="84" on="0"/>
        <pt x="529" y="84" on="1"/>
        <pt x="666" y="84" on="0"/>
        <pt x="895" y="253" on="0"/>
        <pt x="924" y="394" on="1"/>
        <pt x="1078" y="1165" on="1"/>
      </contour>
    </TTGlyph>
    <TTGlyph name="Uacute" xMin="120" yMin="-21" xMax="1337" yMax="1823">
      <component glyphName="U" x="0" y="0" flags="0x204"/>
      <component glyphName="acute" x="573" y="345" flags="0x4"/>
    </TTGlyph>
    <TTGlyph name="Uacute.smcp" xMin="104" yMin="-17" xMax="1193" yMax="1501">
      <component glyphName="U.smcp" x="0" y="0" flags="0x204"/>
      <component glyphName="acute" x="447" y="23" flags="0x4"/>
    </TTGlyph>
    <TTGlyph name="Ubreve" xMin="120" yMin="-21" xMax="1337" yMax="1854">
      <component glyphName="U" x="0" y="0" flags="0x204"/>
      <component glyphName="breve" x="364" y="398" flags="0x4"/>
    </TTGlyph>
    <TTGlyph name="Ubreve.smcp" xMin="104" yMin="-17" xMax="1193" yMax="1532">
      <component glyphName="U.smcp" x="0" y="0" flags="0x204"/>
      <component glyphName="breve" x="238" y="76" flags="0x4"/>
    </TTGlyph>
    <TTGlyph name="Ucircumflex" xMin="120" yMin="-21" xMax="1337" yMax="1843">
      <component glyphName="U" x="0" y="0" flags="0x204"/>
      <component glyphName="circumflex" x="309" y="349" flags="0x4"/>
    </TTGlyph>
    <TTGlyph name="Ucircumflex.smcp" xMin="104" yMin="-17" xMax="1193" yMax="1521">
      <component glyphName="U.smcp" x="0" y="0" flags="0x204"/>
      <component glyphName="circumflex" x="183" y="27" flags="0x4"/>
    </TTGlyph>
    <TTGlyph name="Udieresis" xMin="120" yMin="-21" xMax="1337" yMax="1798">
      <component glyphName="U" x="0" y="0" flags="0x204"/>
      <component glyphName="dieresis" x="304" y="342" flags="0x4"/>
    </TTGlyph>
    <TTGlyph name="Udieresis.smcp" xMin="104" yMin="-17" xMax="1193" yMax="1476">
      <component glyphName="U.smcp" x="0" y="0" flags="0x204"/>
      <component glyphName="dieresis" x="178" y="20" flags="0x4"/>
    </TTGlyph>
    <TTGlyph name="Ugrave" xMin="120" yMin="-21" xMax="1337" yMax="1827">
      <component glyphName="U" x="0" y="0" flags="0x204"/>
      <component glyphName="grave" x="397" y="351" flags="0x4"/>
    </TTGlyph>
    <TTGlyph name="Ugrave.smcp" xMin="104" yMin="-17" xMax="1193" yMax="1505">
      <component glyphName="U.smcp" x="0" y="0" flags="0x204"/>
      <component glyphName="grave" x="271" y="29" flags="0x4"/>
    </TTGlyph>
    <TTGlyph name="Uhorn" xMin="120" yMin="-21" xMax="1712" yMax="1590">
      <contour>
        <pt x="1337" y="1456" on="1"/>
        <pt x="1296" y="1253" on="1"/>
        <pt x="1302" y="1251" on="1"/>
        <pt x="1411" y="1267" on="0"/>
        <pt x="1572" y="1445" on="0"/>
        <pt x="1602" y="1590" on="1"/>
        <pt x="1710" y="1590" on="1"/>
        <pt x="1712" y="1584" on="1"/>
        <pt x="1674" y="1379" on="0"/>
        <pt x="1451" y="1162" on="0"/>
        <pt x="1274" y="1144" on="1"/>
        <pt x="1140" y="469" on="1"/>
        <pt x="1089" y="215" on="0"/>
        <pt x="776" y="-21" on="0"/>
        <pt x="552" y="-21" on="1"/>
        <pt x="350" y="-21" on="0"/>
        <pt x="120" y="235" on="0"/>
        <pt x="168" y="469" on="1"/>
        <pt x="365" y="1456" on="1"/>
        <pt x="481" y="1456" on="1"/>
        <pt x="284" y="469" on="1"/>
        <pt x="244" y="270" on="0"/>
        <pt x="405" y="80" on="0"/>
        <pt x="572" y="80" on="1"/>
        <pt x="729" y="80" on="0"/>
        <pt x="988" y="285" on="0"/>
        <pt x="1025" y="469" on="1"/>
        <pt x="1222" y="1456" on="1"/>
      </contour>
    </TTGlyph>
    <TTGlyph name="Uhungarumlaut" xMin="120" yMin="-21" xMax="1365" yMax="1867">
      <component glyphName="U" x="0" y="0" flags="0x204"/>
      <component glyphName="hungarumlaut" x="405" y="349" flags="0x4"/>
    </TTGlyph>
    <TTGlyph name="Uhungarumlaut.smcp" xMin="104" yMin="-17" xMax="1239" yMax="1545">
      <component glyphName="U.smcp" x="0" y="0" flags="0x204"/>
      <component glyphName="hungarumlaut" x="279" y="27" flags="0x4"/>
    </TTGlyph>
    <TTGlyph name="Umacron" xMin="120" yMin="-21" xMax="1337" yMax="1786">
      <component glyphName="U" x="0" y="0" flags="0x204"/>
      <component glyphName="macron" x="336" y="330" flags="0x4"/>
    </TTGlyph>
    <TTGlyph name="Umacron.smcp" xMin="104" yMin="-17" xMax="1193" yMax="1464">
      <component glyphName="U.smcp" x="0" y="0" flags="0x204"/>
      <component glyphName="macron" x="210" y="8" flags="0x4"/>
    </TTGlyph>
    <TTGlyph name="Uogonek" xMin="120" yMin="-392" xMax="1337" yMax="1456">
      <component glyphName="U" x="0" y="0" flags="0x204"/>
      <component glyphName="ogonek" x="553" y="0" flags="0x4"/>
    </TTGlyph>
    <TTGlyph name="Uogonek.smcp" xMin="104" yMin="-392" xMax="1193" yMax="1165">
      <component glyphName="U.smcp" x="0" y="0" flags="0x204"/>
      <component glyphName="ogonek" x="506" y="0" flags="0x4"/>
    </TTGlyph>
    <TTGlyph name="Upsilon" xMin="241" yMin="0" xMax="1338" yMax="1456">
      <component glyphName="Y" x="0" y="0" flags="0x204"/>
    </TTGlyph>
    <TTGlyph name="Upsilondieresis" xMin="241" yMin="0" xMax="1338" yMax="1791">
      <component glyphName="Y" x="0" y="0" flags="0x204"/>
      <component glyphName="dieresis" x="232" y="335" flags="0x4"/>
    </TTGlyph>
    <TTGlyph name="Upsilontonos" xMin="85" yMin="0" xMax="1438" yMax="1617">
      <component glyphName="Y" x="100" y="0" flags="0x4"/>
      <component glyphName="tonos" x="-272" y="0" flags="0x4"/>
    </TTGlyph>
    <TTGlyph name="Uring" xMin="120" yMin="-21" xMax="1337" yMax="1896">
      <component glyphName="U" x="0" y="0" flags="0x204"/>
      <component glyphName="ring" x="411" y="406" flags="0x4"/>
    </TTGlyph>
    <TTGlyph name="Uring.smcp" xMin="104" yMin="-17" xMax="1193" yMax="1574">
      <component glyphName="U.smcp" x="0" y="0" flags="0x204"/>
      <component glyphName="ring" x="285" y="84" flags="0x4"/>
    </TTGlyph>
    <TTGlyph name="Utilde" xMin="120" yMin="-21" xMax="1337" yMax="1842">
      <component glyphName="U" x="0" y="0" flags="0x204"/>
      <component glyphName="tilde" x="334" y="341" flags="0x4"/>
    </TTGlyph>
    <TTGlyph name="Utilde.smcp" xMin="104" yMin="-17" xMax="1193" yMax="1520">
      <component glyphName="U.smcp" x="0" y="0" flags="0x204"/>
      <component glyphName="tilde" x="208" y="19" flags="0x4"/>
    </TTGlyph>
    <TTGlyph name="V" xMin="198" yMin="0" xMax="1316" yMax="1456">
      <contour>
        <pt x="533" y="246" on="1"/>
        <pt x="545" y="152" on="1"/>
        <pt x="551" y="151" on="1"/>
        <pt x="593" y="246" on="1"/>
        <pt x="1190" y="1456" on="1"/>
        <pt x="1316" y="1456" on="1"/>
        <pt x="578" y="0" on="1"/>
        <pt x="469" y="0" on="1"/>
        <pt x="198" y="1456" on="1"/>
        <pt x="323" y="1456" on="1"/>
      </contour>
    </TTGlyph>
    <TTGlyph name="V.smcp" xMin="206" yMin="0" xMax="1194" yMax="1165">
      <contour>
        <pt x="486" y="208" on="1"/>
        <pt x="491" y="137" on="1"/>
        <pt x="497" y="135" on="1"/>
        <pt x="532" y="207" on="1"/>
        <pt x="1070" y="1165" on="1"/>
        <pt x="1194" y="1165" on="1"/>
        <pt x="523" y="0" on="1"/>
        <pt x="411" y="0" on="1"/>
        <pt x="206" y="1165" on="1"/>
        <pt x="331" y="1165" on="1"/>
      </contour>
    </TTGlyph>
    <TTGlyph name="W" xMin="221" yMin="0" xMax="1812" yMax="1456">
      <contour>
        <pt x="416" y="412" on="1"/>
        <pt x="422" y="194" on="1"/>
        <pt x="428" y="193" on="1"/>
        <pt x="512" y="412" on="1"/>
        <pt x="963" y="1456" on="1"/>
        <pt x="1072" y="1456" on="1"/>
        <pt x="1189" y="412" on="1"/>
        <pt x="1202" y="194" on="1"/>
        <pt x="1208" y="193" on="1"/>
        <pt x="1286" y="412" on="1"/>
        <pt x="1695" y="1456" on="1"/>
        <pt x="1812" y="1456" on="1"/>
        <pt x="1233" y="0" on="1"/>
        <pt x="1124" y="0" on="1"/>
        <pt x="1001" y="1117" on="1"/>
        <pt x="990" y="1265" on="1"/>
        <pt x="984" y="1266" on="1"/>
        <pt x="927" y="1117" on="1"/>
        <pt x="444" y="0" on="1"/>
        <pt x="334" y="0" on="1"/>
        <pt x="221" y="1456" on="1"/>
        <pt x="340" y="1456" on="1"/>
      </contour>
    </TTGlyph>
    <TTGlyph name="W.smcp" xMin="225" yMin="0" xMax="1522" yMax="1165">
      <contour>
        <pt x="374" y="278" on="1"/>
        <pt x="371" y="167" on="1"/>
        <pt x="377" y="166" on="1"/>
        <pt x="420" y="279" on="1"/>
        <pt x="817" y="1165" on="1"/>
        <pt x="930" y="1165" on="1"/>
        <pt x="974" y="278" on="1"/>
        <pt x="970" y="166" on="1"/>
        <pt x="976" y="165" on="1"/>
        <pt x="1021" y="279" on="1"/>
        <pt x="1399" y="1165" on="1"/>
        <pt x="1522" y="1165" on="1"/>
        <pt x="998" y="0" on="1"/>
        <pt x="887" y="0" on="1"/>
        <pt x="838" y="916" on="1"/>
        <pt x="839" y="976" on="1"/>
        <pt x="833" y="978" on="1"/>
        <pt x="810" y="916" on="1"/>
        <pt x="392" y="0" on="1"/>
        <pt x="282" y="0" on="1"/>
        <pt x="225" y="1165" on="1"/>
        <pt x="347" y="1165" on="1"/>
      </contour>
    </TTGlyph>
    <TTGlyph name="Wacute" xMin="221" yMin="0" xMax="1812" yMax="1823">
      <component glyphName="W" x="0" y="0" flags="0x204"/>
      <component glyphName="acute" x="724" y="345" flags="0x4"/>
    </TTGlyph>
    <TTGlyph name="Wcircumflex" xMin="221" yMin="0" xMax="1812" yMax="1843">
      <component glyphName="W" x="0" y="0" flags="0x204"/>
      <component glyphName="circumflex" x="460" y="349" flags="0x4"/>
    </TTGlyph>
    <TTGlyph name="Wcircumflex.smcp" xMin="225" yMin="0" xMax="1522" yMax="1520">
      <component glyphName="W.smcp" x="0" y="0" flags="0x204"/>
      <component glyphName="circumflex" x="307" y="26" flags="0x4"/>
    </TTGlyph>
    <TTGlyph name="Wdieresis" xMin="221" yMin="0" xMax="1812" yMax="1798">
      <component glyphName="W" x="0" y="0" flags="0x204"/>
      <component glyphName="dieresis" x="455" y="342" flags="0x4"/>
    </TTGlyph>
    <TTGlyph name="Wgrave" xMin="221" yMin="0" xMax="1812" yMax="1827">
      <component glyphName="W" x="0" y="0" flags="0x204"/>
      <component glyphName="grave" x="548" y="351" flags="0x4"/>
    </TTGlyph>
    <TTGlyph name="X" xMin="-10" yMin="0" xMax="1272" yMax="1456">
      <contour>
        <pt x="653" y="834" on="1"/>
        <pt x="1131" y="1456" on="1"/>
        <pt x="1272" y="1456" on="1"/>
        <pt x="708" y="738" on="1"/>
        <pt x="1053" y="0" on="1"/>
        <pt x="915" y="0" on="1"/>
        <pt x="625" y="642" on="1"/>
        <pt x="131" y="0" on="1"/>
        <pt x="-10" y="0" on="1"/>
        <pt x="572" y="738" on="1"/>
        <pt x="237" y="1456" on="1"/>
        <pt x="377" y="1456" on="1"/>
      </contour>
    </TTGlyph>
    <TTGlyph name="X.smcp" xMin="-20" yMin="0" xMax="1125" yMax="1165">
      <contour>
        <pt x="579" y="685" on="1"/>
        <pt x="993" y="1165" on="1"/>
        <pt x="1123" y="1165" on="1"/>
        <pt x="1125" y="1160" on="1"/>
        <pt x="630" y="590" on="1"/>
        <pt x="910" y="0" on="1"/>
        <pt x="773" y="0" on="1"/>
        <pt x="542" y="495" on="1"/>
        <pt x="115" y="0" on="1"/>
        <pt x="-18" y="0" on="1"/>
        <pt x="-20" y="5" on="1"/>
        <pt x="492" y="590" on="1"/>
        <pt x="220" y="1165" on="1"/>
        <pt x="359" y="1165" on="1"/>
      </contour>
    </TTGlyph>
    <TTGlyph name="Xi" xMin="29" yMin="0" xMax="1153" yMax="1456">
      <contour>
        <pt x="49" y="101" on="1"/>
        <pt x="905" y="101" on="1"/>
        <pt x="885" y="0" on="1"/>
        <pt x="29" y="0" on="1"/>
      </contour>
      <contour>
        <pt x="275" y="784" on="1"/>
        <pt x="945" y="784" on="1"/>
        <pt x="924" y="682" on="1"/>
        <pt x="254" y="682" on="1"/>
      </contour>
      <contour>
        <pt x="330" y="1456" on="1"/>
        <pt x="1153" y="1456" on="1"/>
        <pt x="1133" y="1354" on="1"/>
        <pt x="310" y="1354" on="1"/>
      </contour>
    </TTGlyph>
    <TTGlyph name="Y" xMin="241" yMin="0" xMax="1338" yMax="1456">
      <contour>
        <pt x="628" y="653" on="1"/>
        <pt x="1204" y="1456" on="1"/>
        <pt x="1338" y="1456" on="1"/>
        <pt x="660" y="532" on="1"/>
        <pt x="554" y="0" on="1"/>
        <pt x="439" y="0" on="1"/>
        <pt x="547" y="540" on="1"/>
        <pt x="241" y="1456" on="1"/>
        <pt x="376" y="1456" on="1"/>
      </contour>
    </TTGlyph>
    <TTGlyph name="Y.smcp" xMin="194" yMin="0" xMax="1131" yMax="1165">
      <contour>
        <pt x="536" y="536" on="1"/>
        <pt x="999" y="1165" on="1"/>
        <pt x="1131" y="1165" on="1"/>
        <pt x="569" y="422" on="1"/>
        <pt x="485" y="0" on="1"/>
        <pt x="370" y="0" on="1"/>
        <pt x="456" y="428" on="1"/>
        <pt x="194" y="1165" on="1"/>
        <pt x="325" y="1165" on="1"/>
      </contour>
    </TTGlyph>
    <TTGlyph name="Yacute" xMin="241" yMin="0" xMax="1338" yMax="1816">
      <component glyphName="Y" x="0" y="0" flags="0x204"/>
      <component glyphName="acute" x="501" y="338" flags="0x4"/>
    </TTGlyph>
    <TTGlyph name="Yacute.smcp" xMin="194" yMin="0" xMax="1131" yMax="1495">
      <component glyphName="Y.smcp" x="0" y="0" flags="0x204"/>
      <component glyphName="acute" x="363" y="17" flags="0x4"/>
    </TTGlyph>
    <TTGlyph name="Ycircumflex" xMin="241" yMin="0" xMax="1338" yMax="1836">
      <component glyphName="Y" x="0" y="0" flags="0x204"/>
      <component glyphName="circumflex" x="237" y="342" flags="0x4"/>
    </TTGlyph>
    <TTGlyph name="Ycircumflex.smcp" xMin="194" yMin="0" xMax="1131" yMax="1515">
      <component glyphName="Y.smcp" x="0" y="0" flags="0x204"/>
      <component glyphName="circumflex" x="99" y="21" flags="0x4"/>
    </TTGlyph>
    <TTGlyph name="Ydieresis" xMin="241" yMin="0" xMax="1338" yMax="1791">
      <component glyphName="Y" x="0" y="0" flags="0x204"/>
      <component glyphName="dieresis" x="232" y="335" flags="0x4"/>
    </TTGlyph>
    <TTGlyph name="Ydieresis.smcp" xMin="194" yMin="0" xMax="1131" yMax="1470">
      <component glyphName="Y.smcp" x="0" y="0" flags="0x204"/>
      <component glyphName="dieresis" x="94" y="14" flags="0x4"/>
    </TTGlyph>
    <TTGlyph name="Ygrave" xMin="241" yMin="0" xMax="1338" yMax="1820">
      <component glyphName="Y" x="0" y="0" flags="0x204"/>
      <component glyphName="grave" x="325" y="344" flags="0x4"/>
    </TTGlyph>
    <TTGlyph name="Z" xMin="16" yMin="0" xMax="1109" yMax="1456">
      <contour>
        <pt x="162" y="101" on="1"/>
        <pt x="925" y="101" on="1"/>
        <pt x="905" y="0" on="1"/>
        <pt x="16" y="0" on="1"/>
        <pt x="22" y="92" on="1"/>
        <pt x="948" y="1354" on="1"/>
        <pt x="257" y="1354" on="1"/>
        <pt x="277" y="1456" on="1"/>
        <pt x="1109" y="1456" on="1"/>
        <pt x="1092" y="1369" on="1"/>
      </contour>
    </TTGlyph>
    <TTGlyph name="Z.smcp" xMin="-10" yMin="0" xMax="1045" yMax="1165">
      <contour>
        <pt x="160" y="105" on="1"/>
        <pt x="162" y="100" on="1"/>
        <pt x="856" y="100" on="1"/>
        <pt x="836" y="0" on="1"/>
        <pt x="-10" y="0" on="1"/>
        <pt x="6" y="80" on="1"/>
        <pt x="873" y="1059" on="1"/>
        <pt x="871" y="1064" on="1"/>
        <pt x="235" y="1064" on="1"/>
        <pt x="255" y="1165" on="1"/>
        <pt x="1045" y="1165" on="1"/>
        <pt x="1030" y="1089" on="1"/>
      </contour>
    </TTGlyph>
    <TTGlyph name="Zacute" xMin="16" yMin="0" xMax="1109" yMax="1823">
      <component glyphName="Z" x="0" y="0" flags="0x4"/>
      <component glyphName="acute" x="491" y="345" flags="0x4"/>
    </TTGlyph>
    <TTGlyph name="Zacute.smcp" xMin="-10" yMin="0" xMax="1045" yMax="1500">
      <component glyphName="Z.smcp" x="0" y="0" flags="0x204"/>
      <component glyphName="acute" x="338" y="22" flags="0x4"/>
    </TTGlyph>
    <TTGlyph name="Zcaron" xMin="16" yMin="0" xMax="1117" yMax="1845">
      <component glyphName="Z" x="0" y="0" flags="0x4"/>
      <component glyphName="caron" x="245" y="351" flags="0x4"/>
    </TTGlyph>
    <TTGlyph name="Zcaron.smcp" xMin="-10" yMin="0" xMax="1045" yMax="1522">
      <component glyphName="Z.smcp" x="0" y="0" flags="0x204"/>
      <component glyphName="caron" x="92" y="28" flags="0x4"/>
    </TTGlyph>
    <TTGlyph name="Zdotaccent" xMin="16" yMin="0" xMax="1109" yMax="1805">
      <component glyphName="Z" x="0" y="0" flags="0x4"/>
      <component glyphName="dotaccent" x="415" y="349" flags="0x4"/>
    </TTGlyph>
    <TTGlyph name="Zdotaccent.smcp" xMin="-10" yMin="0" xMax="1045" yMax="1482">
      <component glyphName="Z.smcp" x="0" y="0" flags="0x204"/>
      <component glyphName="dotaccent" x="262" y="26" flags="0x4"/>
    </TTGlyph>
    <TTGlyph name="Zeta" xMin="16" yMin="0" xMax="1109" yMax="1456">
      <component glyphName="Z" x="0" y="0" flags="0x4"/>
    </TTGlyph>
    <TTGlyph name="a" xMin="47" yMin="-21" xMax="980" yMax="1102">
      <contour>
        <pt x="702" y="0" on="1"/>
        <pt x="704" y="74" on="0"/>
        <pt x="708" y="135" on="0"/>
        <pt x="716" y="174" on="1"/>
        <pt x="644" y="90" on="0"/>
        <pt x="438" y="-21" on="0"/>
        <pt x="323" y="-21" on="1"/>
        <pt x="185" y="-21" on="0"/>
        <pt x="47" y="150" on="0"/>
        <pt x="75" y="288" on="1"/>
        <pt x="106" y="448" on="0"/>
        <pt x="376" y="618" on="0"/>
        <pt x="585" y="618" on="1"/>
        <pt x="804" y="618" on="1"/>
        <pt x="831" y="752" on="1"/>
        <pt x="856" y="875" on="0"/>
        <pt x="747" y="1000" on="0"/>
        <pt x="622" y="1000" on="1"/>
        <pt x="514" y="1000" on="0"/>
        <pt x="330" y="872" on="0"/>
        <pt x="313" y="783" on="1"/>
        <pt x="208" y="784" on="1"/>
        <pt x="206" y="790" on="1"/>
        <pt x="226" y="920" on="0"/>
        <pt x="476" y="1102" on="0"/>
        <pt x="647" y="1102" on="1"/>
        <pt x="804" y="1102" on="0"/>
        <pt x="980" y="917" on="0"/>
        <pt x="947" y="750" on="1"/>
        <pt x="841" y="218" on="1"/>
        <pt x="828" y="158" on="0"/>
        <pt x="819" y="54" on="0"/>
        <pt x="823" y="0" on="1"/>
      </contour>
      <contour>
        <pt x="358" y="85" on="1"/>
        <pt x="468" y="85" on="0"/>
        <pt x="682" y="207" on="0"/>
        <pt x="741" y="299" on="1"/>
        <pt x="786" y="526" on="1"/>
        <pt x="564" y="526" on="1"/>
        <pt x="425" y="526" on="0"/>
        <pt x="209" y="385" on="0"/>
        <pt x="189" y="284" on="1"/>
        <pt x="170" y="190" on="0"/>
        <pt x="258" y="85" on="0"/>
      </contour>
    </TTGlyph>
    <TTGlyph name="aacute" xMin="47" yMin="-21" xMax="981" yMax="1502">
      <component glyphName="a" x="0" y="0" flags="0x204"/>
      <component glyphName="acute" x="367" y="24" flags="0x4"/>
    </TTGlyph>
    <TTGlyph name="abreve" xMin="47" yMin="-21" xMax="986" yMax="1533">
      <component glyphName="a" x="0" y="0" flags="0x204"/>
      <component glyphName="breve" x="158" y="77" flags="0x4"/>
    </TTGlyph>
    <TTGlyph name="acircumflex" xMin="47" yMin="-21" xMax="980" yMax="1522">
      <component glyphName="a" x="0" y="0" flags="0x204"/>
      <component glyphName="circumflex" x="103" y="28" flags="0x4"/>
    </TTGlyph>
    <TTGlyph name="acute" xMin="243" yMin="1212" xMax="614" yMax="1478">
      <contour>
        <pt x="471" y="1478" on="1"/>
        <pt x="612" y="1478" on="1"/>
        <pt x="614" y="1472" on="1"/>
        <pt x="341" y="1212" on="1"/>
        <pt x="245" y="1212" on="1"/>
        <pt x="243" y="1217" on="1"/>
      </contour>
    </TTGlyph>
    <TTGlyph name="acutecomb" xMin="-405" yMin="1215" xMax="-97" yMax="1533">
      <contour>
        <pt x="-212" y="1533" on="1"/>
        <pt x="-97" y="1533" on="1"/>
        <pt x="-322" y="1215" on="1"/>
        <pt x="-405" y="1215" on="1"/>
      </contour>
    </TTGlyph>
    <TTGlyph name="adieresis" xMin="47" yMin="-21" xMax="1018" yMax="1477">
      <component glyphName="a" x="0" y="0" flags="0x204"/>
      <component glyphName="dieresis" x="98" y="21" flags="0x4"/>
    </TTGlyph>
    <TTGlyph name="ae" xMin="20" yMin="-21" xMax="1632" yMax="1102">
      <contour>
        <pt x="1092" y="-21" on="1"/>
        <pt x="972" y="-21" on="0"/>
        <pt x="802" y="94" on="0"/>
        <pt x="763" y="197" on="1"/>
        <pt x="701" y="109" on="0"/>
        <pt x="467" y="-21" on="0"/>
        <pt x="317" y="-21" on="1"/>
        <pt x="169" y="-21" on="0"/>
        <pt x="20" y="151" on="0"/>
        <pt x="49" y="293" on="1"/>
        <pt x="82" y="461" on="0"/>
        <pt x="323" y="632" on="0"/>
        <pt x="525" y="632" on="1"/>
        <pt x="767" y="632" on="1"/>
        <pt x="785" y="720" on="1"/>
        <pt x="813" y="862" on="0"/>
        <pt x="727" y="1000" on="0"/>
        <pt x="612" y="1000" on="1"/>
        <pt x="496" y="1000" on="0"/>
        <pt x="316" y="864" on="0"/>
        <pt x="297" y="765" on="1"/>
        <pt x="194" y="777" on="1"/>
        <pt x="193" y="783" on="1"/>
        <pt x="217" y="930" on="0"/>
        <pt x="455" y="1102" on="0"/>
        <pt x="632" y="1102" on="1"/>
        <pt x="737" y="1102" on="0"/>
        <pt x="882" y="998" on="0"/>
        <pt x="904" y="900" on="1"/>
        <pt x="980" y="997" on="0"/>
        <pt x="1178" y="1102" on="0"/>
        <pt x="1287" y="1102" on="1"/>
        <pt x="1462" y="1102" on="0"/>
        <pt x="1632" y="849" on="0"/>
        <pt x="1590" y="638" on="1"/>
        <pt x="1570" y="538" on="1"/>
        <pt x="871" y="538" on="1"/>
        <pt x="865" y="509" on="1"/>
        <pt x="824" y="307" on="0"/>
        <pt x="942" y="80" on="0"/>
        <pt x="1112" y="80" on="1"/>
        <pt x="1201" y="80" on="0"/>
        <pt x="1370" y="147" on="0"/>
        <pt x="1437" y="199" on="1"/>
        <pt x="1464" y="112" on="1"/>
        <pt x="1400" y="57" on="0"/>
        <pt x="1218" y="-21" on="0"/>
      </contour>
      <contour>
        <pt x="354" y="79" on="1"/>
        <pt x="440" y="79" on="0"/>
        <pt x="645" y="187" on="0"/>
        <pt x="691" y="248" on="1"/>
        <pt x="748" y="536" on="1"/>
        <pt x="508" y="536" on="1"/>
        <pt x="375" y="536" on="0"/>
        <pt x="185" y="391" on="0"/>
        <pt x="165" y="289" on="1"/>
        <pt x="144" y="186" on="0"/>
        <pt x="239" y="79" on="0"/>
      </contour>
      <contour>
        <pt x="1267" y="1000" on="1"/>
        <pt x="1149" y="1000" on="0"/>
        <pt x="944" y="795" on="0"/>
        <pt x="900" y="642" on="1"/>
        <pt x="902" y="636" on="1"/>
        <pt x="1474" y="636" on="1"/>
        <pt x="1480" y="667" on="1"/>
        <pt x="1511" y="822" on="0"/>
        <pt x="1407" y="1000" on="0"/>
      </contour>
    </TTGlyph>
    <TTGlyph name="aeacute" xMin="20" yMin="-21" xMax="1632" yMax="1502">
      <component glyphName="ae" x="0" y="0" flags="0x204"/>
      <component glyphName="acute" x="660" y="24" flags="0x4"/>
    </TTGlyph>
    <TTGlyph name="agrave" xMin="47" yMin="-21" xMax="980" yMax="1506">
      <component glyphName="a" x="0" y="0" flags="0x204"/>
      <component glyphName="grave" x="191" y="30" flags="0x4"/>
    </TTGlyph>
    <TTGlyph name="alpha" xMin="77" yMin="-21" xMax="1048" yMax="1102">
      <contour>
        <pt x="1048" y="1082" on="1"/>
        <pt x="887" y="274" on="1"/>
        <pt x="864" y="163" on="0"/>
        <pt x="896" y="87" on="0"/>
        <pt x="941" y="87" on="1"/>
        <pt x="951" y="87" on="0"/>
        <pt x="975" y="91" on="0"/>
        <pt x="988" y="95" on="1"/>
        <pt x="986" y="2" on="1"/>
        <pt x="961" y="-11" on="0"/>
        <pt x="915" y="-21" on="0"/>
        <pt x="889" y="-21" on="1"/>
        <pt x="820" y="-21" on="0"/>
        <pt x="750" y="72" on="0"/>
        <pt x="756" y="172" on="1"/>
        <pt x="687" y="79" on="0"/>
        <pt x="510" y="-21" on="0"/>
        <pt x="403" y="-21" on="1"/>
        <pt x="234" y="-21" on="0"/>
        <pt x="77" y="274" on="0"/>
        <pt x="124" y="511" on="1"/>
        <pt x="128" y="532" on="1"/>
        <pt x="183" y="808" on="0"/>
        <pt x="443" y="1102" on="0"/>
        <pt x="629" y="1102" on="1"/>
        <pt x="728" y="1102" on="0"/>
        <pt x="864" y="992" on="0"/>
        <pt x="897" y="894" on="1"/>
        <pt x="948" y="1082" on="1"/>
      </contour>
      <contour>
        <pt x="241" y="511" on="1"/>
        <pt x="199" y="303" on="0"/>
        <pt x="297" y="80" on="0"/>
        <pt x="445" y="80" on="1"/>
        <pt x="545" y="80" on="0"/>
        <pt x="715" y="210" on="0"/>
        <pt x="779" y="321" on="1"/>
        <pt x="864" y="743" on="1"/>
        <pt x="847" y="857" on="0"/>
        <pt x="736" y="1000" on="0"/>
        <pt x="631" y="1000" on="1"/>
        <pt x="495" y="1000" on="0"/>
        <pt x="285" y="733" on="0"/>
        <pt x="245" y="532" on="1"/>
      </contour>
    </TTGlyph>
    <TTGlyph name="alpha.alt" xMin="77" yMin="-21" xMax="1133" yMax="1102">
      <contour>
        <pt x="825" y="297" on="1"/>
        <pt x="819" y="300" on="1"/>
        <pt x="751" y="153" on="0"/>
        <pt x="537" y="-21" on="0"/>
        <pt x="403" y="-21" on="1"/>
        <pt x="234" y="-21" on="0"/>
        <pt x="77" y="274" on="0"/>
        <pt x="124" y="511" on="1"/>
        <pt x="128" y="532" on="1"/>
        <pt x="183" y="808" on="0"/>
        <pt x="443" y="1102" on="0"/>
        <pt x="629" y="1102" on="1"/>
        <pt x="751" y="1102" on="0"/>
        <pt x="899" y="923" on="0"/>
        <pt x="915" y="772" on="1"/>
        <pt x="1019" y="1082" on="1"/>
        <pt x="1133" y="1082" on="1"/>
        <pt x="934" y="540" on="1"/>
        <pt x="923" y="0" on="1"/>
        <pt x="809" y="0" on="1"/>
      </contour>
      <contour>
        <pt x="241" y="511" on="1"/>
        <pt x="199" y="303" on="0"/>
        <pt x="297" y="80" on="0"/>
        <pt x="445" y="80" on="1"/>
        <pt x="554" y="80" on="0"/>
        <pt x="761" y="315" on="0"/>
        <pt x="824" y="494" on="1"/>
        <pt x="840" y="573" on="1"/>
        <pt x="850" y="746" on="0"/>
        <pt x="757" y="1000" on="0"/>
        <pt x="631" y="1000" on="1"/>
        <pt x="495" y="1000" on="0"/>
        <pt x="285" y="733" on="0"/>
        <pt x="245" y="532" on="1"/>
      </contour>
    </TTGlyph>
    <TTGlyph name="alphatonos" xMin="77" yMin="-21" xMax="1048" yMax="1579">
      <component glyphName="alpha" x="0" y="0" flags="0x204"/>
      <component glyphName="tonos" x="338" y="-38" flags="0x4"/>
    </TTGlyph>
    <TTGlyph name="amacron" xMin="47" yMin="-21" xMax="1024" yMax="1465">
      <component glyphName="a" x="0" y="0" flags="0x204"/>
      <component glyphName="macron" x="130" y="9" flags="0x4"/>
    </TTGlyph>
    <TTGlyph name="ampersand" xMin="49" yMin="-21" xMax="1125" yMax="1477">
      <contour>
        <pt x="422" y="794" on="1"/>
        <pt x="362" y="896" on="0"/>
        <pt x="315" y="1060" on="0"/>
        <pt x="330" y="1147" on="1"/>
        <pt x="356" y="1311" on="0"/>
        <pt x="546" y="1477" on="0"/>
        <pt x="693" y="1477" on="1"/>
        <pt x="823" y="1477" on="0"/>
        <pt x="961" y="1314" on="0"/>
        <pt x="942" y="1192" on="1"/>
        <pt x="927" y="1097" on="0"/>
        <pt x="824" y="974" on="0"/>
        <pt x="731" y="907" on="1"/>
        <pt x="565" y="786" on="1"/>
        <pt x="868" y="309" on="1"/>
        <pt x="925" y="380" on="0"/>
        <pt x="1003" y="553" on="0"/>
        <pt x="1019" y="651" on="1"/>
        <pt x="1125" y="651" on="1"/>
        <pt x="1103" y="518" on="0"/>
        <pt x="1003" y="308" on="0"/>
        <pt x="924" y="222" on="1"/>
        <pt x="1065" y="0" on="1"/>
        <pt x="926" y="0" on="1"/>
        <pt x="837" y="139" on="1"/>
        <pt x="746" y="62" on="0"/>
        <pt x="546" y="-21" on="0"/>
        <pt x="438" y="-21" on="1"/>
        <pt x="250" y="-21" on="0"/>
        <pt x="49" y="196" on="0"/>
        <pt x="77" y="371" on="1"/>
        <pt x="97" y="496" on="0"/>
        <pt x="259" y="681" on="0"/>
        <pt x="407" y="784" on="1"/>
      </contour>
      <contour>
        <pt x="454" y="80" on="1"/>
        <pt x="535" y="80" on="0"/>
        <pt x="708" y="153" on="0"/>
        <pt x="785" y="221" on="1"/>
        <pt x="480" y="701" on="1"/>
        <pt x="477" y="704" on="0"/>
        <pt x="473" y="711" on="0"/>
        <pt x="470" y="716" on="1"/>
        <pt x="422" y="681" on="1"/>
        <pt x="301" y="587" on="0"/>
        <pt x="203" y="435" on="0"/>
        <pt x="193" y="371" on="1"/>
        <pt x="172" y="242" on="0"/>
        <pt x="303" y="80" on="0"/>
      </contour>
      <contour>
        <pt x="446" y="1149" on="1"/>
        <pt x="434" y="1081" on="0"/>
        <pt x="470" y="942" on="0"/>
        <pt x="517" y="862" on="1"/>
        <pt x="701" y="993" on="1"/>
        <pt x="762" y="1038" on="0"/>
        <pt x="822" y="1136" on="0"/>
        <pt x="832" y="1192" on="1"/>
        <pt x="845" y="1273" on="0"/>
        <pt x="764" y="1375" on="0"/>
        <pt x="677" y="1375" on="1"/>
        <pt x="587" y="1375" on="0"/>
        <pt x="460" y="1244" on="0"/>
      </contour>
    </TTGlyph>
    <TTGlyph name="anoteleia" xMin="199" yMin="624" xMax="382" yMax="804">
      <component glyphName="periodcentered" x="0" y="0" flags="0x204"/>
    </TTGlyph>
    <TTGlyph name="aogonek" xMin="47" yMin="-392" xMax="980" yMax="1102">
      <component glyphName="a" x="0" y="0" flags="0x204"/>
      <component glyphName="ogonek" x="563" y="0" flags="0x4"/>
    </TTGlyph>
    <TTGlyph name="approxequal" xMin="88" yMin="334" xMax="1083" yMax="1001">
      <contour>
        <pt x="194" y="854" on="1"/>
        <pt x="252" y="922" on="0"/>
        <pt x="382" y="1000" on="0"/>
        <pt x="443" y="1000" on="1"/>
        <pt x="507" y="1001" on="0"/>
        <pt x="563" y="976" on="0"/>
        <pt x="645" y="927" on="1"/>
        <pt x="720" y="880" on="0"/>
        <pt x="775" y="856" on="0"/>
        <pt x="836" y="856" on="1"/>
        <pt x="891" y="856" on="0"/>
        <pt x="1024" y="934" on="0"/>
        <pt x="1078" y="1000" on="1"/>
        <pt x="1083" y="997" on="1"/>
        <pt x="1067" y="887" on="1"/>
        <pt x="1008" y="818" on="0"/>
        <pt x="878" y="741" on="0"/>
        <pt x="819" y="741" on="1"/>
        <pt x="762" y="741" on="0"/>
        <pt x="694" y="770" on="0"/>
        <pt x="630" y="810" on="1"/>
        <pt x="541" y="863" on="0"/>
        <pt x="490" y="886" on="0"/>
        <pt x="426" y="885" on="1"/>
        <pt x="370" y="885" on="0"/>
        <pt x="237" y="806" on="0"/>
        <pt x="184" y="741" on="1"/>
        <pt x="179" y="744" on="1"/>
      </contour>
      <contour>
        <pt x="103" y="447" on="1"/>
        <pt x="162" y="515" on="0"/>
        <pt x="292" y="593" on="0"/>
        <pt x="352" y="593" on="1"/>
        <pt x="416" y="594" on="0"/>
        <pt x="471" y="570" on="0"/>
        <pt x="555" y="520" on="1"/>
        <pt x="635" y="471" on="0"/>
        <pt x="685" y="448" on="0"/>
        <pt x="745" y="448" on="1"/>
        <pt x="800" y="448" on="0"/>
        <pt x="933" y="527" on="0"/>
        <pt x="986" y="593" on="1"/>
        <pt x="991" y="590" on="1"/>
        <pt x="976" y="480" on="1"/>
        <pt x="917" y="411" on="0"/>
        <pt x="787" y="334" on="0"/>
        <pt x="727" y="334" on="1"/>
        <pt x="671" y="334" on="0"/>
        <pt x="604" y="362" on="0"/>
        <pt x="539" y="403" on="1"/>
        <pt x="443" y="459" on="0"/>
        <pt x="398" y="480" on="0"/>
        <pt x="334" y="479" on="1"/>
        <pt x="278" y="479" on="0"/>
        <pt x="145" y="399" on="0"/>
        <pt x="93" y="334" on="1"/>
        <pt x="88" y="337" on="1"/>
      </contour>
    </TTGlyph>
    <TTGlyph name="aring" xMin="47" yMin="-21" xMax="980" yMax="1575">
      <component glyphName="a" x="0" y="0" flags="0x204"/>
      <component glyphName="ring" x="205" y="85" flags="0x4"/>
    </TTGlyph>
    <TTGlyph name="aringacute" xMin="47" yMin="-21" xMax="1019" yMax="1762">
      <component glyphName="a" x="0" y="0" flags="0x204"/>
      <component glyphName="ringacute" x="213" y="71" flags="0x4"/>
    </TTGlyph>
    <TTGlyph name="asciicircum" xMin="137" yMin="729" xMax="778" yMax="1456">
      <contour>
        <pt x="249" y="729" on="1"/>
        <pt x="137" y="729" on="1"/>
        <pt x="560" y="1456" on="1"/>
        <pt x="646" y="1456" on="1"/>
        <pt x="778" y="729" on="1"/>
        <pt x="666" y="729" on="1"/>
        <pt x="583" y="1213" on="1"/>
        <pt x="577" y="1315" on="1"/>
        <pt x="571" y="1316" on="1"/>
        <pt x="523" y="1213" on="1"/>
      </contour>
    </TTGlyph>
    <TTGlyph name="asciitilde" xMin="143" yMin="423" xMax="1222" yMax="787">
      <contour>
        <pt x="1222" y="740" on="1"/>
        <pt x="1200" y="606" on="0"/>
        <pt x="1022" y="423" on="0"/>
        <pt x="908" y="423" on="1"/>
        <pt x="830" y="423" on="0"/>
        <pt x="701" y="496" on="0"/>
        <pt x="633" y="573" on="1"/>
        <pt x="582" y="627" on="0"/>
        <pt x="490" y="680" on="0"/>
        <pt x="439" y="680" on="1"/>
        <pt x="369" y="680" on="0"/>
        <pt x="248" y="557" on="0"/>
        <pt x="233" y="459" on="1"/>
        <pt x="143" y="474" on="1"/>
        <pt x="164" y="610" on="0"/>
        <pt x="340" y="787" on="0"/>
        <pt x="456" y="787" on="1"/>
        <pt x="533" y="787" on="0"/>
        <pt x="664" y="711" on="0"/>
        <pt x="732" y="637" on="1"/>
        <pt x="781" y="581" on="0"/>
        <pt x="872" y="529" on="0"/>
        <pt x="925" y="529" on="1"/>
        <pt x="993" y="529" on="0"/>
        <pt x="1116" y="658" on="0"/>
        <pt x="1132" y="755" on="1"/>
      </contour>
    </TTGlyph>
    <TTGlyph name="asterisk" xMin="169" yMin="637" xMax="926" yMax="1456">
      <contour>
        <pt x="453" y="1000" on="1"/>
        <pt x="169" y="1108" on="1"/>
        <pt x="220" y="1209" on="1"/>
        <pt x="501" y="1086" on="1"/>
        <pt x="571" y="1456" on="1"/>
        <pt x="671" y="1456" on="1"/>
        <pt x="590" y="1083" on="1"/>
        <pt x="914" y="1210" on="1"/>
        <pt x="926" y="1109" on="1"/>
        <pt x="595" y="994" on="1"/>
        <pt x="742" y="700" on="1"/>
        <pt x="647" y="637" on="1"/>
        <pt x="511" y="942" on="1"/>
        <pt x="263" y="639" on="1"/>
        <pt x="193" y="700" on="1"/>
      </contour>
    </TTGlyph>
    <TTGlyph name="at" xMin="28" yMin="-453" xMax="1749" yMax="1420">
      <contour>
        <pt x="1650" y="513" on="1"/>
        <pt x="1597" y="296" on="0"/>
        <pt x="1334" y="-21" on="0"/>
        <pt x="1142" y="-21" on="1"/>
        <pt x="1074" y="-21" on="0"/>
        <pt x="994" y="82" on="0"/>
        <pt x="996" y="173" on="1"/>
        <pt x="928" y="76" on="0"/>
        <pt x="763" y="-21" on="0"/>
        <pt x="668" y="-21" on="1"/>
        <pt x="555" y="-21" on="0"/>
        <pt x="469" y="223" on="0"/>
        <pt x="525" y="416" on="1"/>
        <pt x="597" y="670" on="0"/>
        <pt x="877" y="977" on="0"/>
        <pt x="1033" y="977" on="1"/>
        <pt x="1114" y="977" on="0"/>
        <pt x="1220" y="921" on="0"/>
        <pt x="1271" y="869" on="1"/>
        <pt x="1268" y="867" on="1"/>
        <pt x="1271" y="867" on="1"/>
        <pt x="1111" y="293" on="1"/>
        <pt x="1075" y="161" on="0"/>
        <pt x="1129" y="65" on="0"/>
        <pt x="1180" y="65" on="1"/>
        <pt x="1302" y="65" on="0"/>
        <pt x="1514" y="319" on="0"/>
        <pt x="1563" y="513" on="1"/>
        <pt x="1657" y="903" on="0"/>
        <pt x="1432" y="1333" on="0"/>
        <pt x="1097" y="1333" on="1"/>
        <pt x="817" y="1333" on="0"/>
        <pt x="314" y="855" on="0"/>
        <pt x="223" y="478" on="1"/>
        <pt x="129" y="99" on="0"/>
        <pt x="373" y="-368" on="0"/>
        <pt x="685" y="-368" on="1"/>
        <pt x="762" y="-368" on="0"/>
        <pt x="945" y="-324" on="0"/>
        <pt x="1008" y="-289" on="1"/>
        <pt x="1023" y="-364" on="1"/>
        <pt x="954" y="-405" on="0"/>
        <pt x="753" y="-453" on="0"/>
        <pt x="665" y="-453" on="1"/>
        <pt x="334" y="-453" on="0"/>
        <pt x="28" y="55" on="0"/>
        <pt x="129" y="478" on="1"/>
        <pt x="230" y="902" on="0"/>
        <pt x="769" y="1420" on="0"/>
        <pt x="1118" y="1420" on="1"/>
        <pt x="1457" y="1420" on="0"/>
        <pt x="1749" y="927" on="0"/>
      </contour>
      <contour>
        <pt x="631" y="416" on="1"/>
        <pt x="585" y="261" on="0"/>
        <pt x="625" y="77" on="0"/>
        <pt x="713" y="77" on="1"/>
        <pt x="788" y="77" on="0"/>
        <pt x="938" y="164" on="0"/>
        <pt x="1010" y="276" on="1"/>
        <pt x="1011" y="284" on="0"/>
        <pt x="1012" y="289" on="0"/>
        <pt x="1014" y="293" on="1"/>
        <pt x="1166" y="839" on="1"/>
        <pt x="1140" y="860" on="0"/>
        <pt x="1073" y="886" on="0"/>
        <pt x="1031" y="886" on="1"/>
        <pt x="914" y="886" on="0"/>
        <pt x="697" y="644" on="0"/>
      </contour>
    </TTGlyph>
    <TTGlyph name="atilde" xMin="47" yMin="-21" xMax="1017" yMax="1521">
      <component glyphName="a" x="0" y="0" flags="0x204"/>
      <component glyphName="tilde" x="128" y="20" flags="0x4"/>
    </TTGlyph>
    <TTGlyph name="b" xMin="65" yMin="-21" xMax="1034" yMax="1560">
      <contour>
        <pt x="979" y="496" on="1"/>
        <pt x="927" y="237" on="0"/>
        <pt x="692" y="-21" on="0"/>
        <pt x="510" y="-21" on="1"/>
        <pt x="410" y="-21" on="0"/>
        <pt x="252" y="81" on="0"/>
        <pt x="211" y="168" on="1"/>
        <pt x="165" y="0" on="1"/>
        <pt x="65" y="0" on="1"/>
        <pt x="377" y="1560" on="1"/>
        <pt x="493" y="1560" on="1"/>
        <pt x="367" y="935" on="1"/>
        <pt x="372" y="931" on="1"/>
        <pt x="431" y="1012" on="0"/>
        <pt x="595" y="1102" on="0"/>
        <pt x="695" y="1102" on="1"/>
        <pt x="865" y="1102" on="0"/>
        <pt x="1034" y="769" on="0"/>
        <pt x="983" y="517" on="1"/>
      </contour>
      <contour>
        <pt x="866" y="517" on="1"/>
        <pt x="909" y="735" on="0"/>
        <pt x="800" y="998" on="0"/>
        <pt x="652" y="998" on="1"/>
        <pt x="548" y="998" on="0"/>
        <pt x="389" y="865" on="0"/>
        <pt x="333" y="763" on="1"/>
        <pt x="235" y="273" on="1"/>
        <pt x="257" y="186" on="0"/>
        <pt x="396" y="83" on="0"/>
        <pt x="508" y="83" on="1"/>
        <pt x="642" y="83" on="0"/>
        <pt x="823" y="304" on="0"/>
        <pt x="862" y="496" on="1"/>
      </contour>
    </TTGlyph>
    <TTGlyph name="backslash" xMin="255" yMin="-125" xMax="617" yMax="1456">
      <contour>
        <pt x="255" y="1456" on="1"/>
        <pt x="368" y="1456" on="1"/>
        <pt x="617" y="-125" on="1"/>
        <pt x="504" y="-125" on="1"/>
      </contour>
    </TTGlyph>
    <TTGlyph name="bar" xMin="57" yMin="-270" xMax="431" yMax="1456">
      <contour>
        <pt x="155" y="-270" on="1"/>
        <pt x="57" y="-270" on="1"/>
        <pt x="333" y="1456" on="1"/>
        <pt x="431" y="1456" on="1"/>
      </contour>
    </TTGlyph>
    <TTGlyph name="beta" xMin="3" yMin="-399" xMax="1106" yMax="1477">
      <contour>
        <pt x="768" y="1477" on="1"/>
        <pt x="929" y="1477" on="0"/>
        <pt x="1106" y="1259" on="0"/>
        <pt x="1074" y="1093" on="1"/>
        <pt x="1051" y="984" on="0"/>
        <pt x="922" y="821" on="0"/>
        <pt x="825" y="779" on="1"/>
        <pt x="939" y="738" on="0"/>
        <pt x="1041" y="536" on="0"/>
        <pt x="1015" y="404" on="1"/>
        <pt x="972" y="191" on="0"/>
        <pt x="704" y="-21" on="0"/>
        <pt x="512" y="-21" on="1"/>
        <pt x="429" y="-21" on="0"/>
        <pt x="269" y="45" on="0"/>
        <pt x="222" y="109" on="1"/>
        <pt x="120" y="-399" on="1"/>
        <pt x="3" y="-399" on="1"/>
        <pt x="296" y="1063" on="1"/>
        <pt x="333" y="1249" on="0"/>
        <pt x="603" y="1477" on="0"/>
      </contour>
      <contour>
        <pt x="548" y="823" on="1"/>
        <pt x="634" y="823" on="1"/>
        <pt x="764" y="823" on="0"/>
        <pt x="933" y="970" on="0"/>
        <pt x="960" y="1098" on="1"/>
        <pt x="983" y="1217" on="0"/>
        <pt x="877" y="1375" on="0"/>
        <pt x="748" y="1375" on="1"/>
        <pt x="639" y="1375" on="0"/>
        <pt x="439" y="1194" on="0"/>
        <pt x="413" y="1063" on="1"/>
        <pt x="246" y="228" on="1"/>
        <pt x="274" y="158" on="0"/>
        <pt x="420" y="80" on="0"/>
        <pt x="523" y="80" on="1"/>
        <pt x="661" y="80" on="0"/>
        <pt x="868" y="255" on="0"/>
        <pt x="898" y="400" on="1"/>
        <pt x="927" y="549" on="0"/>
        <pt x="804" y="721" on="0"/>
        <pt x="660" y="721" on="1"/>
        <pt x="527" y="721" on="1"/>
        <pt x="544" y="803" on="1"/>
      </contour>
    </TTGlyph>
    <TTGlyph name="braceleft" xMin="85" yMin="-398" xMax="795" yMax="1597">
      <contour>
        <pt x="462" y="-398" on="1"/>
        <pt x="300" y="-343" on="0"/>
        <pt x="193" y="-106" on="0"/>
        <pt x="220" y="64" on="1"/>
        <pt x="256" y="290" on="1"/>
        <pt x="276" y="417" on="0"/>
        <pt x="196" y="549" on="0"/>
        <pt x="85" y="549" on="1"/>
        <pt x="98" y="630" on="1"/>
        <pt x="102" y="653" on="1"/>
        <pt x="207" y="653" on="0"/>
        <pt x="336" y="789" on="0"/>
        <pt x="356" y="910" on="1"/>
        <pt x="392" y="1138" on="1"/>
        <pt x="420" y="1315" on="0"/>
        <pt x="600" y="1546" on="0"/>
        <pt x="778" y="1597" on="1"/>
        <pt x="784" y="1596" on="1"/>
        <pt x="795" y="1524" on="1"/>
        <pt x="671" y="1483" on="0"/>
        <pt x="532" y="1282" on="0"/>
        <pt x="509" y="1138" on="1"/>
        <pt x="473" y="910" on="1"/>
        <pt x="454" y="795" on="0"/>
        <pt x="343" y="634" on="0"/>
        <pt x="249" y="599" on="1"/>
        <pt x="328" y="559" on="0"/>
        <pt x="390" y="396" on="0"/>
        <pt x="373" y="290" on="1"/>
        <pt x="337" y="64" on="1"/>
        <pt x="313" y="-84" on="0"/>
        <pt x="390" y="-275" on="0"/>
        <pt x="503" y="-318" on="1"/>
      </contour>
    </TTGlyph>
    <TTGlyph name="braceright" xMin="-108" yMin="-399" xMax="605" yMax="1597">
      <contour>
        <pt x="-108" y="-324" on="1"/>
        <pt x="16" y="-282" on="0"/>
        <pt x="157" y="-85" on="0"/>
        <pt x="180" y="58" on="1"/>
        <pt x="216" y="284" on="1"/>
        <pt x="234" y="401" on="0"/>
        <pt x="349" y="561" on="0"/>
        <pt x="449" y="596" on="1"/>
        <pt x="364" y="632" on="0"/>
        <pt x="298" y="794" on="0"/>
        <pt x="316" y="904" on="1"/>
        <pt x="352" y="1132" on="1"/>
        <pt x="376" y="1281" on="0"/>
        <pt x="301" y="1476" on="0"/>
        <pt x="190" y="1518" on="1"/>
        <pt x="228" y="1597" on="1"/>
        <pt x="389" y="1542" on="0"/>
        <pt x="495" y="1303" on="0"/>
        <pt x="468" y="1132" on="1"/>
        <pt x="432" y="904" on="1"/>
        <pt x="411" y="777" on="0"/>
        <pt x="494" y="647" on="0"/>
        <pt x="605" y="647" on="1"/>
        <pt x="596" y="594" on="1"/>
        <pt x="588" y="543" on="1"/>
        <pt x="483" y="543" on="0"/>
        <pt x="352" y="404" on="0"/>
        <pt x="332" y="284" on="1"/>
        <pt x="296" y="58" on="1"/>
        <pt x="267" y="-118" on="0"/>
        <pt x="89" y="-347" on="0"/>
        <pt x="-88" y="-399" on="1"/>
        <pt x="-94" y="-397" on="1"/>
      </contour>
    </TTGlyph>
    <TTGlyph name="bracketleft" xMin="35" yMin="-312" xMax="662" yMax="1664">
      <contour>
        <pt x="646" y="1562" on="1"/>
        <pt x="452" y="1562" on="1"/>
        <pt x="168" y="-210" on="1"/>
        <pt x="362" y="-210" on="1"/>
        <pt x="346" y="-312" on="1"/>
        <pt x="35" y="-312" on="1"/>
        <pt x="351" y="1664" on="1"/>
        <pt x="662" y="1664" on="1"/>
      </contour>
    </TTGlyph>
    <TTGlyph name="bracketright" xMin="-114" yMin="-312" xMax="513" yMax="1664">
      <contour>
        <pt x="202" y="1664" on="1"/>
        <pt x="513" y="1664" on="1"/>
        <pt x="197" y="-312" on="1"/>
        <pt x="-114" y="-312" on="1"/>
        <pt x="-98" y="-210" on="1"/>
        <pt x="97" y="-210" on="1"/>
        <pt x="381" y="1562" on="1"/>
        <pt x="186" y="1562" on="1"/>
      </contour>
    </TTGlyph>
    <TTGlyph name="breve" xMin="279" yMin="1198" xMax="828" yMax="1456">
      <contour>
        <pt x="826" y="1456" on="1"/>
        <pt x="828" y="1450" on="1"/>
        <pt x="813" y="1334" on="0"/>
        <pt x="649" y="1198" on="0"/>
        <pt x="524" y="1198" on="1"/>
        <pt x="404" y="1198" on="0"/>
        <pt x="279" y="1340" on="0"/>
        <pt x="301" y="1451" on="1"/>
        <pt x="303" y="1456" on="1"/>
        <pt x="394" y="1456" on="1"/>
        <pt x="381" y="1377" on="0"/>
        <pt x="448" y="1285" on="0"/>
        <pt x="538" y="1285" on="1"/>
        <pt x="620" y="1285" on="0"/>
        <pt x="725" y="1382" on="0"/>
        <pt x="737" y="1456" on="1"/>
      </contour>
    </TTGlyph>
    <TTGlyph name="breveacutecomb" xMin="324" yMin="1243" xMax="873" yMax="1655">
      <contour>
        <pt x="723" y="1655" on="1"/>
        <pt x="819" y="1655" on="1"/>
        <pt x="822" y="1649" on="1"/>
        <pt x="629" y="1449" on="1"/>
        <pt x="560" y="1449" on="1"/>
        <pt x="557" y="1454" on="1"/>
      </contour>
      <contour>
        <pt x="871" y="1456" on="1"/>
        <pt x="873" y="1450" on="1"/>
        <pt x="858" y="1353" on="0"/>
        <pt x="696" y="1243" on="0"/>
        <pt x="570" y="1243" on="1"/>
        <pt x="453" y="1243" on="0"/>
        <pt x="324" y="1361" on="0"/>
        <pt x="348" y="1450" on="1"/>
        <pt x="350" y="1456" on="1"/>
        <pt x="440" y="1456" on="1"/>
        <pt x="427" y="1390" on="0"/>
        <pt x="494" y="1314" on="0"/>
        <pt x="584" y="1314" on="1"/>
        <pt x="664" y="1314" on="0"/>
        <pt x="770" y="1396" on="0"/>
        <pt x="782" y="1456" on="1"/>
      </contour>
    </TTGlyph>
    <TTGlyph name="brevegravecomb" xMin="320" yMin="1243" xMax="869" yMax="1682">
      <contour>
        <pt x="681" y="1466" on="1"/>
        <pt x="570" y="1466" on="1"/>
        <pt x="433" y="1682" on="1"/>
        <pt x="581" y="1682" on="1"/>
      </contour>
      <contour>
        <pt x="867" y="1456" on="1"/>
        <pt x="869" y="1450" on="1"/>
        <pt x="854" y="1353" on="0"/>
        <pt x="692" y="1243" on="0"/>
        <pt x="566" y="1243" on="1"/>
        <pt x="449" y="1243" on="0"/>
        <pt x="320" y="1361" on="0"/>
        <pt x="344" y="1450" on="1"/>
        <pt x="346" y="1456" on="1"/>
        <pt x="436" y="1456" on="1"/>
        <pt x="423" y="1390" on="0"/>
        <pt x="490" y="1314" on="0"/>
        <pt x="580" y="1314" on="1"/>
        <pt x="660" y="1314" on="0"/>
        <pt x="766" y="1396" on="0"/>
        <pt x="778" y="1456" on="1"/>
      </contour>
    </TTGlyph>
    <TTGlyph name="brevehookcomb" xMin="316" yMin="1243" xMax="865" yMax="1798">
      <contour>
        <pt x="574" y="1473" on="1"/>
        <pt x="595" y="1580" on="1"/>
        <pt x="677" y="1584" on="0"/>
        <pt x="748" y="1615" on="0"/>
        <pt x="753" y="1656" on="1"/>
        <pt x="753" y="1662" on="1"/>
        <pt x="764" y="1699" on="0"/>
        <pt x="666" y="1737" on="0"/>
        <pt x="596" y="1737" on="1"/>
        <pt x="616" y="1798" on="1"/>
        <pt x="741" y="1798" on="0"/>
        <pt x="864" y="1727" on="0"/>
        <pt x="850" y="1657" on="1"/>
        <pt x="838" y="1596" on="0"/>
        <pt x="739" y="1534" on="0"/>
        <pt x="670" y="1528" on="1"/>
        <pt x="658" y="1473" on="1"/>
      </contour>
      <contour>
        <pt x="863" y="1456" on="1"/>
        <pt x="865" y="1450" on="1"/>
        <pt x="850" y="1353" on="0"/>
        <pt x="688" y="1243" on="0"/>
        <pt x="562" y="1243" on="1"/>
        <pt x="445" y="1243" on="0"/>
        <pt x="316" y="1361" on="0"/>
        <pt x="340" y="1450" on="1"/>
        <pt x="342" y="1456" on="1"/>
        <pt x="432" y="1456" on="1"/>
        <pt x="419" y="1390" on="0"/>
        <pt x="486" y="1314" on="0"/>
        <pt x="576" y="1314" on="1"/>
        <pt x="656" y="1314" on="0"/>
        <pt x="762" y="1396" on="0"/>
        <pt x="774" y="1456" on="1"/>
      </contour>
    </TTGlyph>
    <TTGlyph name="brevetildecomb" xMin="321" yMin="1243" xMax="926" yMax="1731">
      <contour>
        <pt x="868" y="1456" on="1"/>
        <pt x="870" y="1450" on="1"/>
        <pt x="855" y="1353" on="0"/>
        <pt x="693" y="1243" on="0"/>
        <pt x="567" y="1243" on="1"/>
        <pt x="450" y="1243" on="0"/>
        <pt x="321" y="1361" on="0"/>
        <pt x="345" y="1450" on="1"/>
        <pt x="347" y="1456" on="1"/>
        <pt x="437" y="1456" on="1"/>
        <pt x="424" y="1390" on="0"/>
        <pt x="491" y="1314" on="0"/>
        <pt x="581" y="1314" on="1"/>
        <pt x="661" y="1314" on="0"/>
        <pt x="767" y="1396" on="0"/>
        <pt x="779" y="1456" on="1"/>
      </contour>
      <contour>
        <pt x="926" y="1714" on="1"/>
        <pt x="910" y="1635" on="0"/>
        <pt x="806" y="1542" on="0"/>
        <pt x="741" y="1542" on="1"/>
        <pt x="689" y="1542" on="0"/>
        <pt x="583" y="1635" on="0"/>
        <pt x="540" y="1635" on="1"/>
        <pt x="505" y="1635" on="0"/>
        <pt x="441" y="1576" on="0"/>
        <pt x="432" y="1531" on="1"/>
        <pt x="373" y="1546" on="1"/>
        <pt x="388" y="1623" on="0"/>
        <pt x="490" y="1717" on="0"/>
        <pt x="556" y="1717" on="1"/>
        <pt x="601" y="1717" on="0"/>
        <pt x="715" y="1622" on="0"/>
        <pt x="757" y="1622" on="1"/>
        <pt x="791" y="1622" on="0"/>
        <pt x="857" y="1684" on="0"/>
        <pt x="867" y="1731" on="1"/>
      </contour>
    </TTGlyph>
    <TTGlyph name="brokenbar" xMin="13" yMin="-270" xMax="474" yMax="1456">
      <contour>
        <pt x="13" y="-270" on="1"/>
        <pt x="167" y="501" on="1"/>
        <pt x="283" y="501" on="1"/>
        <pt x="129" y="-270" on="1"/>
      </contour>
      <contour>
        <pt x="323" y="698" on="1"/>
        <pt x="207" y="698" on="1"/>
        <pt x="358" y="1456" on="1"/>
        <pt x="474" y="1456" on="1"/>
      </contour>
    </TTGlyph>
    <TTGlyph name="bullet" xMin="183" yMin="540" xMax="574" yMax="961">
      <contour>
        <pt x="211" y="782" on="1"/>
        <pt x="228" y="866" on="0"/>
        <pt x="340" y="961" on="0"/>
        <pt x="421" y="961" on="1"/>
        <pt x="495" y="961" on="0"/>
        <pt x="574" y="858" on="0"/>
        <pt x="559" y="782" on="1"/>
        <pt x="546" y="717" on="1"/>
        <pt x="529" y="633" on="0"/>
        <pt x="418" y="540" on="0"/>
        <pt x="337" y="540" on="1"/>
        <pt x="263" y="540" on="0"/>
        <pt x="183" y="640" on="0"/>
        <pt x="198" y="717" on="1"/>
      </contour>
    </TTGlyph>
    <TTGlyph name="c" xMin="70" yMin="-21" xMax="984" yMax="1102">
      <contour>
        <pt x="469" y="80" on="1"/>
        <pt x="575" y="80" on="0"/>
        <pt x="768" y="217" on="0"/>
        <pt x="787" y="337" on="1"/>
        <pt x="889" y="337" on="1"/>
        <pt x="891" y="331" on="1"/>
        <pt x="870" y="174" on="0"/>
        <pt x="609" y="-21" on="0"/>
        <pt x="453" y="-21" on="1"/>
        <pt x="255" y="-21" on="0"/>
        <pt x="70" y="285" on="0"/>
        <pt x="108" y="520" on="1"/>
        <pt x="115" y="562" on="1"/>
        <pt x="154" y="807" on="0"/>
        <pt x="424" y="1102" on="0"/>
        <pt x="631" y="1102" on="1"/>
        <pt x="792" y="1102" on="0"/>
        <pt x="984" y="890" on="0"/>
        <pt x="953" y="720" on="1"/>
        <pt x="951" y="715" on="1"/>
        <pt x="847" y="715" on="1"/>
        <pt x="869" y="850" on="0"/>
        <pt x="734" y="1000" on="0"/>
        <pt x="615" y="1000" on="1"/>
        <pt x="461" y="1000" on="0"/>
        <pt x="261" y="747" on="0"/>
        <pt x="231" y="562" on="1"/>
        <pt x="224" y="520" on="1"/>
        <pt x="192" y="321" on="0"/>
        <pt x="306" y="80" on="0"/>
      </contour>
    </TTGlyph>
    <TTGlyph name="cacute" xMin="70" yMin="-21" xMax="984" yMax="1501">
      <component glyphName="c" x="0" y="0" flags="0x204"/>
      <component glyphName="acute" x="328" y="23" flags="0x4"/>
    </TTGlyph>
    <TTGlyph name="caron" xMin="342" yMin="1252" xMax="872" yMax="1494">
      <contour>
        <pt x="575" y="1325" on="1"/>
        <pt x="762" y="1494" on="1"/>
        <pt x="872" y="1494" on="1"/>
        <pt x="868" y="1477" on="1"/>
        <pt x="605" y="1252" on="1"/>
        <pt x="514" y="1252" on="1"/>
        <pt x="342" y="1477" on="1"/>
        <pt x="346" y="1494" on="1"/>
        <pt x="455" y="1494" on="1"/>
      </contour>
    </TTGlyph>
    <TTGlyph name="ccaron" xMin="70" yMin="-21" xMax="984" yMax="1523">
      <component glyphName="c" x="0" y="0" flags="0x204"/>
      <component glyphName="caron" x="82" y="29" flags="0x4"/>
    </TTGlyph>
    <TTGlyph name="ccedilla" xMin="70" yMin="-443" xMax="984" yMax="1102">
      <component glyphName="c" x="0" y="0" flags="0x204"/>
      <component glyphName="cedilla" x="334" y="-8" flags="0x4"/>
    </TTGlyph>
    <TTGlyph name="ccircumflex" xMin="70" yMin="-21" xMax="984" yMax="1521">
      <component glyphName="c" x="0" y="0" flags="0x204"/>
      <component glyphName="circumflex" x="64" y="27" flags="0x4"/>
    </TTGlyph>
    <TTGlyph name="cedilla" xMin="-68" yMin="-435" xMax="271" yMax="0">
      <contour>
        <pt x="152" y="0" on="1"/>
        <pt x="127" y="-64" on="1"/>
        <pt x="198" y="-73" on="0"/>
        <pt x="271" y="-152" on="0"/>
        <pt x="255" y="-235" on="1"/>
        <pt x="235" y="-332" on="0"/>
        <pt x="71" y="-435" on="0"/>
        <pt x="-68" y="-435" on="1"/>
        <pt x="-59" y="-357" on="1"/>
        <pt x="19" y="-357" on="0"/>
        <pt x="148" y="-296" on="0"/>
        <pt x="160" y="-237" on="1"/>
        <pt x="172" y="-176" on="0"/>
        <pt x="107" y="-135" on="0"/>
        <pt x="10" y="-127" on="1"/>
        <pt x="62" y="0" on="1"/>
      </contour>
    </TTGlyph>
    <TTGlyph name="cent" xMin="97" yMin="-245" xMax="1003" yMax="1318">
      <contour>
        <pt x="491" y="80" on="1"/>
        <pt x="597" y="80" on="0"/>
        <pt x="790" y="217" on="0"/>
        <pt x="809" y="337" on="1"/>
        <pt x="911" y="337" on="1"/>
        <pt x="914" y="331" on="1"/>
        <pt x="893" y="184" on="0"/>
        <pt x="658" y="-7" on="0"/>
        <pt x="511" y="-19" on="1"/>
        <pt x="466" y="-245" on="1"/>
        <pt x="350" y="-245" on="1"/>
        <pt x="396" y="-13" on="1"/>
        <pt x="237" y="17" on="0"/>
        <pt x="97" y="311" on="0"/>
        <pt x="130" y="520" on="1"/>
        <pt x="137" y="562" on="1"/>
        <pt x="174" y="796" on="0"/>
        <pt x="426" y="1088" on="0"/>
        <pt x="619" y="1101" on="1"/>
        <pt x="663" y="1318" on="1"/>
        <pt x="779" y="1318" on="1"/>
        <pt x="734" y="1094" on="1"/>
        <pt x="862" y="1067" on="0"/>
        <pt x="1003" y="865" on="0"/>
        <pt x="980" y="715" on="1"/>
        <pt x="869" y="715" on="1"/>
        <pt x="891" y="850" on="0"/>
        <pt x="756" y="1000" on="0"/>
        <pt x="637" y="1000" on="1"/>
        <pt x="483" y="1000" on="0"/>
        <pt x="283" y="747" on="0"/>
        <pt x="253" y="562" on="1"/>
        <pt x="246" y="520" on="1"/>
        <pt x="214" y="321" on="0"/>
        <pt x="328" y="80" on="0"/>
      </contour>
    </TTGlyph>
    <TTGlyph name="chi" xMin="-62" yMin="-427" xMax="1080" yMax="1093">
      <contour>
        <pt x="285" y="1093" on="1"/>
        <pt x="380" y="1093" on="0"/>
        <pt x="477" y="940" on="0"/>
        <pt x="499" y="839" on="1"/>
        <pt x="564" y="514" on="1"/>
        <pt x="570" y="512" on="1"/>
        <pt x="960" y="1082" on="1"/>
        <pt x="1080" y="1082" on="1"/>
        <pt x="594" y="369" on="1"/>
        <pt x="695" y="-127" on="1"/>
        <pt x="720" y="-232" on="0"/>
        <pt x="757" y="-318" on="0"/>
        <pt x="801" y="-318" on="1"/>
        <pt x="813" y="-318" on="0"/>
        <pt x="843" y="-314" on="0"/>
        <pt x="857" y="-312" on="1"/>
        <pt x="839" y="-415" on="1"/>
        <pt x="828" y="-420" on="0"/>
        <pt x="788" y="-427" on="0"/>
        <pt x="773" y="-427" on="1"/>
        <pt x="692" y="-427" on="0"/>
        <pt x="604" y="-301" on="0"/>
        <pt x="577" y="-163" on="1"/>
        <pt x="499" y="219" on="1"/>
        <pt x="493" y="221" on="1"/>
        <pt x="61" y="-414" on="1"/>
        <pt x="-62" y="-414" on="1"/>
        <pt x="469" y="364" on="1"/>
        <pt x="381" y="797" on="1"/>
        <pt x="358" y="897" on="0"/>
        <pt x="309" y="988" on="0"/>
        <pt x="247" y="988" on="1"/>
        <pt x="236" y="988" on="0"/>
        <pt x="193" y="984" on="0"/>
        <pt x="182" y="982" on="1"/>
        <pt x="197" y="1081" on="1"/>
        <pt x="211" y="1085" on="0"/>
        <pt x="265" y="1093" on="0"/>
      </contour>
    </TTGlyph>
    <TTGlyph name="circumflex" xMin="319" yMin="1252" xMax="843" yMax="1494">
      <contour>
        <pt x="843" y="1270" on="1"/>
        <pt x="839" y="1252" on="1"/>
        <pt x="732" y="1252" on="1"/>
        <pt x="612" y="1420" on="1"/>
        <pt x="425" y="1252" on="1"/>
        <pt x="319" y="1252" on="1"/>
        <pt x="324" y="1273" on="1"/>
        <pt x="581" y="1494" on="1"/>
        <pt x="673" y="1494" on="1"/>
      </contour>
    </TTGlyph>
    <TTGlyph name="circumflexacutecomb" xMin="264" yMin="1252" xMax="1153" yMax="1633">
      <contour>
        <pt x="558" y="1494" on="1"/>
        <pt x="669" y="1494" on="1"/>
        <pt x="866" y="1257" on="1"/>
        <pt x="864" y="1252" on="1"/>
        <pt x="737" y="1252" on="1"/>
        <pt x="600" y="1424" on="1"/>
        <pt x="392" y="1252" on="1"/>
        <pt x="266" y="1252" on="1"/>
        <pt x="264" y="1258" on="1"/>
      </contour>
      <contour>
        <pt x="1026" y="1633" on="1"/>
        <pt x="1150" y="1633" on="1"/>
        <pt x="1153" y="1627" on="1"/>
        <pt x="941" y="1402" on="1"/>
        <pt x="843" y="1402" on="1"/>
      </contour>
    </TTGlyph>
    <TTGlyph name="circumflexgravecomb" xMin="140" yMin="1252" xMax="880" yMax="1633">
      <contour>
        <pt x="359" y="1402" on="1"/>
        <pt x="263" y="1402" on="1"/>
        <pt x="140" y="1633" on="1"/>
        <pt x="270" y="1633" on="1"/>
      </contour>
      <contour>
        <pt x="572" y="1494" on="1"/>
        <pt x="683" y="1494" on="1"/>
        <pt x="880" y="1257" on="1"/>
        <pt x="878" y="1252" on="1"/>
        <pt x="751" y="1252" on="1"/>
        <pt x="614" y="1424" on="1"/>
        <pt x="406" y="1252" on="1"/>
        <pt x="280" y="1252" on="1"/>
        <pt x="278" y="1258" on="1"/>
      </contour>
    </TTGlyph>
    <TTGlyph name="circumflexhookcomb" xMin="280" yMin="1252" xMax="1160" yMax="1713">
      <contour>
        <pt x="895" y="1378" on="1"/>
        <pt x="916" y="1490" on="1"/>
        <pt x="990" y="1495" on="0"/>
        <pt x="1049" y="1522" on="0"/>
        <pt x="1057" y="1562" on="1"/>
        <pt x="1065" y="1602" on="0"/>
        <pt x="983" y="1639" on="0"/>
        <pt x="922" y="1639" on="1"/>
        <pt x="941" y="1713" on="1"/>
        <pt x="1052" y="1713" on="0"/>
        <pt x="1160" y="1637" on="0"/>
        <pt x="1146" y="1565" on="1"/>
        <pt x="1133" y="1501" on="0"/>
        <pt x="1045" y="1437" on="0"/>
        <pt x="982" y="1430" on="1"/>
        <pt x="972" y="1378" on="1"/>
      </contour>
      <contour>
        <pt x="574" y="1494" on="1"/>
        <pt x="685" y="1494" on="1"/>
        <pt x="882" y="1257" on="1"/>
        <pt x="880" y="1252" on="1"/>
        <pt x="753" y="1252" on="1"/>
        <pt x="616" y="1424" on="1"/>
        <pt x="408" y="1252" on="1"/>
        <pt x="282" y="1252" on="1"/>
        <pt x="280" y="1258" on="1"/>
      </contour>
    </TTGlyph>
    <TTGlyph name="circumflextildecomb" xMin="278" yMin="1252" xMax="926" yMax="1731">
      <contour>
        <pt x="926" y="1714" on="1"/>
        <pt x="910" y="1635" on="0"/>
        <pt x="806" y="1542" on="0"/>
        <pt x="741" y="1542" on="1"/>
        <pt x="689" y="1542" on="0"/>
        <pt x="583" y="1635" on="0"/>
        <pt x="540" y="1635" on="1"/>
        <pt x="505" y="1635" on="0"/>
        <pt x="441" y="1576" on="0"/>
        <pt x="432" y="1531" on="1"/>
        <pt x="373" y="1546" on="1"/>
        <pt x="388" y="1623" on="0"/>
        <pt x="490" y="1717" on="0"/>
        <pt x="556" y="1717" on="1"/>
        <pt x="601" y="1717" on="0"/>
        <pt x="715" y="1622" on="0"/>
        <pt x="757" y="1622" on="1"/>
        <pt x="791" y="1622" on="0"/>
        <pt x="857" y="1684" on="0"/>
        <pt x="867" y="1731" on="1"/>
      </contour>
      <contour>
        <pt x="572" y="1494" on="1"/>
        <pt x="683" y="1494" on="1"/>
        <pt x="880" y="1257" on="1"/>
        <pt x="878" y="1252" on="1"/>
        <pt x="751" y="1252" on="1"/>
        <pt x="614" y="1424" on="1"/>
        <pt x="406" y="1252" on="1"/>
        <pt x="280" y="1252" on="1"/>
        <pt x="278" y="1258" on="1"/>
      </contour>
    </TTGlyph>
    <TTGlyph name="colon" xMin="64" yMin="0" xMax="409" yMax="1080">
      <component glyphName="period" x="-11" y="0" flags="0x4"/>
      <component glyphName="period" x="170" y="916" flags="0x4"/>
    </TTGlyph>
    <TTGlyph name="comma" xMin="-57" yMin="-258" xMax="213" yMax="188">
      <contour>
        <pt x="179" y="18" on="1"/>
        <pt x="21" y="-258" on="1"/>
        <pt x="-57" y="-258" on="1"/>
        <pt x="63" y="21" on="1"/>
        <pt x="97" y="188" on="1"/>
        <pt x="213" y="188" on="1"/>
      </contour>
    </TTGlyph>
    <TTGlyph name="commaaccent" xMin="18" yMin="-415" xMax="231" yMax="-84">
      <contour>
        <pt x="207" y="-206" on="1"/>
        <pt x="85" y="-415" on="1"/>
        <pt x="18" y="-415" on="1"/>
        <pt x="109" y="-204" on="1"/>
        <pt x="133" y="-84" on="1"/>
        <pt x="231" y="-84" on="1"/>
      </contour>
    </TTGlyph>
    <TTGlyph name="commaaccentrotate" xMin="302" yMin="1206" xMax="524" yMax="1559">
      <contour>
        <pt x="330" y="1343" on="1"/>
        <pt x="456" y="1559" on="1"/>
        <pt x="524" y="1559" on="1"/>
        <pt x="444" y="1341" on="1"/>
        <pt x="417" y="1206" on="1"/>
        <pt x="302" y="1206" on="1"/>
      </contour>
    </TTGlyph>
    <TTGlyph name="copyright" xMin="99" yMin="-21" xMax="1519" yMax="1476">
      <contour>
        <pt x="1064" y="596" on="1"/>
        <pt x="1066" y="590" on="1"/>
        <pt x="1044" y="434" on="0"/>
        <pt x="868" y="282" on="0"/>
        <pt x="729" y="282" on="1"/>
        <pt x="593" y="282" on="0"/>
        <pt x="453" y="497" on="0"/>
        <pt x="481" y="669" on="1"/>
        <pt x="500" y="788" on="1"/>
        <pt x="528" y="966" on="0"/>
        <pt x="730" y="1175" on="0"/>
        <pt x="872" y="1175" on="1"/>
        <pt x="1004" y="1175" on="0"/>
        <pt x="1140" y="1014" on="0"/>
        <pt x="1116" y="862" on="1"/>
        <pt x="1021" y="862" on="1"/>
        <pt x="1040" y="979" on="0"/>
        <pt x="957" y="1085" on="0"/>
        <pt x="858" y="1085" on="1"/>
        <pt x="760" y="1085" on="0"/>
        <pt x="615" y="916" on="0"/>
        <pt x="595" y="789" on="1"/>
        <pt x="576" y="669" on="1"/>
        <pt x="554" y="532" on="0"/>
        <pt x="641" y="372" on="0"/>
        <pt x="744" y="372" on="1"/>
        <pt x="839" y="372" on="0"/>
        <pt x="958" y="481" on="0"/>
        <pt x="977" y="596" on="1"/>
      </contour>
      <contour>
        <pt x="231" y="729" on="1"/>
        <pt x="184" y="439" on="0"/>
        <pt x="460" y="65" on="0"/>
        <pt x="704" y="65" on="1"/>
        <pt x="933" y="65" on="0"/>
        <pt x="1344" y="453" on="0"/>
        <pt x="1389" y="729" on="1"/>
        <pt x="1434" y="1017" on="0"/>
        <pt x="1158" y="1389" on="0"/>
        <pt x="916" y="1389" on="1"/>
        <pt x="684" y="1389" on="0"/>
        <pt x="274" y="1003" on="0"/>
      </contour>
      <contour>
        <pt x="150" y="729" on="1"/>
        <pt x="202" y="1056" on="0"/>
        <pt x="651" y="1476" on="0"/>
        <pt x="930" y="1476" on="1"/>
        <pt x="1193" y="1476" on="0"/>
        <pt x="1519" y="1040" on="0"/>
        <pt x="1470" y="729" on="1"/>
        <pt x="1417" y="401" on="0"/>
        <pt x="968" y="-21" on="0"/>
        <pt x="691" y="-21" on="1"/>
        <pt x="426" y="-21" on="0"/>
        <pt x="99" y="416" on="0"/>
      </contour>
    </TTGlyph>
    <TTGlyph name="crossbar" xMin="174" yMin="686" xMax="766" yMax="788">
      <contour>
        <pt x="745" y="686" on="1"/>
        <pt x="174" y="686" on="1"/>
        <pt x="195" y="788" on="1"/>
        <pt x="766" y="788" on="1"/>
      </contour>
    </TTGlyph>
    <TTGlyph name="currency" xMin="33" yMin="-27" xMax="1433" yMax="1265">
      <contour>
        <pt x="1000" y="126" on="1"/>
        <pt x="912" y="55" on="0"/>
        <pt x="709" y="-20" on="0"/>
        <pt x="604" y="-20" on="1"/>
        <pt x="508" y="-20" on="0"/>
        <pt x="338" y="61" on="0"/>
        <pt x="278" y="136" on="1"/>
        <pt x="98" y="-26" on="1"/>
        <pt x="33" y="60" on="1"/>
        <pt x="219" y="226" on="1"/>
        <pt x="178" y="306" on="0"/>
        <pt x="154" y="501" on="0"/>
        <pt x="176" y="608" on="1"/>
        <pt x="199" y="726" on="0"/>
        <pt x="301" y="930" on="0"/>
        <pt x="374" y="1011" on="1"/>
        <pt x="256" y="1177" on="1"/>
        <pt x="356" y="1264" on="1"/>
        <pt x="472" y="1100" on="1"/>
        <pt x="558" y="1165" on="0"/>
        <pt x="753" y="1234" on="0"/>
        <pt x="855" y="1234" on="1"/>
        <pt x="947" y="1234" on="0"/>
        <pt x="1111" y="1157" on="0"/>
        <pt x="1172" y="1088" on="1"/>
        <pt x="1368" y="1265" on="1"/>
        <pt x="1433" y="1177" on="1"/>
        <pt x="1234" y="997" on="1"/>
        <pt x="1277" y="915" on="0"/>
        <pt x="1303" y="716" on="0"/>
        <pt x="1282" y="608" on="1"/>
        <pt x="1259" y="494" on="0"/>
        <pt x="1163" y="298" on="0"/>
        <pt x="1096" y="219" on="1"/>
        <pt x="1210" y="60" on="1"/>
        <pt x="1110" y="-27" on="1"/>
      </contour>
      <contour>
        <pt x="285" y="608" on="1"/>
        <pt x="239" y="380" on="0"/>
        <pt x="438" y="91" on="0"/>
        <pt x="626" y="91" on="1"/>
        <pt x="796" y="91" on="0"/>
        <pt x="1130" y="397" on="0"/>
        <pt x="1173" y="608" on="1"/>
        <pt x="1217" y="835" on="0"/>
        <pt x="1018" y="1122" on="0"/>
        <pt x="832" y="1122" on="1"/>
        <pt x="660" y="1122" on="0"/>
        <pt x="326" y="817" on="0"/>
      </contour>
    </TTGlyph>
    <TTGlyph name="cyrillicbreve" xMin="279" yMin="1198" xMax="828" yMax="1456">
      <component glyphName="breve" x="0" y="0" flags="0x204"/>
    </TTGlyph>
    <TTGlyph name="cyrillichook" xMin="-268" yMin="-437" xMax="229" yMax="135">
      <contour>
        <pt x="229" y="135" on="1"/>
        <pt x="184" y="-89" on="1"/>
        <pt x="148" y="-267" on="0"/>
        <pt x="-30" y="-437" on="0"/>
        <pt x="-167" y="-437" on="1"/>
        <pt x="-193" y="-437" on="0"/>
        <pt x="-243" y="-427" on="0"/>
        <pt x="-268" y="-418" on="1"/>
        <pt x="-235" y="-315" on="1"/>
        <pt x="-221" y="-320" on="0"/>
        <pt x="-165" y="-330" on="0"/>
        <pt x="-146" y="-330" on="1"/>
        <pt x="-71" y="-330" on="0"/>
        <pt x="46" y="-203" on="0"/>
        <pt x="69" y="-89" on="1"/>
        <pt x="114" y="135" on="1"/>
      </contour>
    </TTGlyph>
    <TTGlyph name="cyrillichookleft" xMin="-87" yMin="-383" xMax="276" yMax="42">
      <contour>
        <pt x="157" y="42" on="1"/>
        <pt x="221" y="-9" on="0"/>
        <pt x="276" y="-145" on="0"/>
        <pt x="263" y="-214" on="1"/>
        <pt x="245" y="-299" on="0"/>
        <pt x="133" y="-383" on="0"/>
        <pt x="56" y="-383" on="1"/>
        <pt x="9" y="-383" on="0"/>
        <pt x="-63" y="-357" on="0"/>
        <pt x="-87" y="-339" on="1"/>
        <pt x="-48" y="-256" on="1"/>
        <pt x="-26" y="-270" on="0"/>
        <pt x="19" y="-288" on="0"/>
        <pt x="51" y="-288" on="1"/>
        <pt x="99" y="-288" on="0"/>
        <pt x="156" y="-232" on="0"/>
        <pt x="162" y="-203" on="1"/>
        <pt x="173" y="-145" on="0"/>
        <pt x="132" y="-61" on="0"/>
        <pt x="82" y="0" on="1"/>
      </contour>
    </TTGlyph>
    <TTGlyph name="cyrillictic" xMin="-22" yMin="-355" xMax="190" yMax="124">
      <contour>
        <pt x="94" y="-355" on="1"/>
        <pt x="-22" y="-355" on="1"/>
        <pt x="74" y="124" on="1"/>
        <pt x="190" y="124" on="1"/>
      </contour>
    </TTGlyph>
    <TTGlyph name="d" xMin="81" yMin="-21" xMax="1144" yMax="1560">
      <contour>
        <pt x="132" y="552" on="1"/>
        <pt x="187" y="829" on="0"/>
        <pt x="425" y="1102" on="0"/>
        <pt x="610" y="1102" on="1"/>
        <pt x="710" y="1102" on="0"/>
        <pt x="862" y="1009" on="0"/>
        <pt x="902" y="925" on="1"/>
        <pt x="1029" y="1560" on="1"/>
        <pt x="1144" y="1560" on="1"/>
        <pt x="832" y="0" on="1"/>
        <pt x="730" y="0" on="1"/>
        <pt x="750" y="144" on="1"/>
        <pt x="687" y="65" on="0"/>
        <pt x="521" y="-21" on="0"/>
        <pt x="422" y="-21" on="1"/>
        <pt x="253" y="-21" on="0"/>
        <pt x="81" y="294" on="0"/>
        <pt x="128" y="531" on="1"/>
      </contour>
      <contour>
        <pt x="245" y="531" on="1"/>
        <pt x="203" y="324" on="0"/>
        <pt x="316" y="83" on="0"/>
        <pt x="465" y="83" on="1"/>
        <pt x="561" y="83" on="0"/>
        <pt x="717" y="195" on="0"/>
        <pt x="775" y="291" on="1"/>
        <pt x="877" y="800" on="1"/>
        <pt x="854" y="887" on="0"/>
        <pt x="725" y="998" on="0"/>
        <pt x="612" y="998" on="1"/>
        <pt x="477" y="998" on="0"/>
        <pt x="289" y="755" on="0"/>
        <pt x="249" y="552" on="1"/>
      </contour>
    </TTGlyph>
    <TTGlyph name="dagger" xMin="153" yMin="0" xMax="1091" yMax="1456">
      <contour>
        <pt x="1074" y="977" on="1"/>
        <pt x="674" y="977" on="1"/>
        <pt x="518" y="0" on="1"/>
        <pt x="402" y="0" on="1"/>
        <pt x="558" y="977" on="1"/>
        <pt x="153" y="977" on="1"/>
        <pt x="170" y="1082" on="1"/>
        <pt x="575" y="1082" on="1"/>
        <pt x="635" y="1456" on="1"/>
        <pt x="751" y="1456" on="1"/>
        <pt x="691" y="1082" on="1"/>
        <pt x="1091" y="1082" on="1"/>
      </contour>
    </TTGlyph>
    <TTGlyph name="daggerdbl" xMin="13" yMin="-416" xMax="1106" yMax="1456">
      <contour>
        <pt x="933" y="0" on="1"/>
        <pt x="523" y="0" on="1"/>
        <pt x="457" y="-416" on="1"/>
        <pt x="340" y="-416" on="1"/>
        <pt x="406" y="0" on="1"/>
        <pt x="13" y="0" on="1"/>
        <pt x="29" y="101" on="1"/>
        <pt x="422" y="101" on="1"/>
        <pt x="563" y="979" on="1"/>
        <pt x="170" y="979" on="1"/>
        <pt x="186" y="1082" on="1"/>
        <pt x="580" y="1082" on="1"/>
        <pt x="640" y="1456" on="1"/>
        <pt x="757" y="1456" on="1"/>
        <pt x="697" y="1082" on="1"/>
        <pt x="1106" y="1082" on="1"/>
        <pt x="1090" y="979" on="1"/>
        <pt x="680" y="979" on="1"/>
        <pt x="539" y="101" on="1"/>
        <pt x="949" y="101" on="1"/>
      </contour>
    </TTGlyph>
    <TTGlyph name="dasiaoxia" xMin="263" yMin="1135" xMax="820" yMax="1477">
      <contour>
        <pt x="507" y="1164" on="1"/>
        <pt x="664" y="1477" on="1"/>
        <pt x="820" y="1477" on="1"/>
        <pt x="816" y="1456" on="1"/>
        <pt x="558" y="1137" on="1"/>
        <pt x="501" y="1137" on="1"/>
      </contour>
      <contour>
        <pt x="292" y="1278" on="1"/>
        <pt x="453" y="1476" on="1"/>
        <pt x="539" y="1476" on="1"/>
        <pt x="422" y="1272" on="1"/>
        <pt x="395" y="1135" on="1"/>
        <pt x="263" y="1135" on="1"/>
      </contour>
    </TTGlyph>
    <TTGlyph name="dcaron" xMin="81" yMin="-21" xMax="1407" yMax="1560">
      <component glyphName="d" x="0" y="0" flags="0x4"/>
      <component glyphName="commaaccent" x="1176" y="1643" flags="0x4"/>
    </TTGlyph>
    <TTGlyph name="dcroat" xMin="81" yMin="-21" xMax="1269" yMax="1560">
      <contour>
        <pt x="1248" y="1257" on="1"/>
        <pt x="1083" y="1257" on="1"/>
        <pt x="832" y="0" on="1"/>
        <pt x="730" y="0" on="1"/>
        <pt x="750" y="144" on="1"/>
        <pt x="687" y="65" on="0"/>
        <pt x="521" y="-21" on="0"/>
        <pt x="422" y="-21" on="1"/>
        <pt x="253" y="-21" on="0"/>
        <pt x="81" y="294" on="0"/>
        <pt x="128" y="531" on="1"/>
        <pt x="132" y="552" on="1"/>
        <pt x="187" y="829" on="0"/>
        <pt x="425" y="1102" on="0"/>
        <pt x="610" y="1102" on="1"/>
        <pt x="710" y="1102" on="0"/>
        <pt x="862" y="1009" on="0"/>
        <pt x="902" y="925" on="1"/>
        <pt x="968" y="1257" on="1"/>
        <pt x="677" y="1257" on="1"/>
        <pt x="698" y="1359" on="1"/>
        <pt x="989" y="1359" on="1"/>
        <pt x="1029" y="1560" on="1"/>
        <pt x="1144" y="1560" on="1"/>
        <pt x="1104" y="1359" on="1"/>
        <pt x="1269" y="1359" on="1"/>
      </contour>
      <contour>
        <pt x="245" y="531" on="1"/>
        <pt x="203" y="324" on="0"/>
        <pt x="316" y="83" on="0"/>
        <pt x="465" y="83" on="1"/>
        <pt x="561" y="83" on="0"/>
        <pt x="717" y="195" on="0"/>
        <pt x="775" y="291" on="1"/>
        <pt x="877" y="800" on="1"/>
        <pt x="854" y="887" on="0"/>
        <pt x="725" y="998" on="0"/>
        <pt x="612" y="998" on="1"/>
        <pt x="477" y="998" on="0"/>
        <pt x="289" y="755" on="0"/>
        <pt x="249" y="552" on="1"/>
      </contour>
    </TTGlyph>
    <TTGlyph name="degree" xMin="277" yMin="980" xMax="771" yMax="1477">
      <contour>
        <pt x="297" y="1227" on="1"/>
        <pt x="319" y="1336" on="0"/>
        <pt x="480" y="1477" on="0"/>
        <pt x="576" y="1477" on="1"/>
        <pt x="662" y="1477" on="0"/>
        <pt x="771" y="1327" on="0"/>
        <pt x="751" y="1227" on="1"/>
        <pt x="728" y="1116" on="0"/>
        <pt x="572" y="980" on="0"/>
        <pt x="477" y="980" on="1"/>
        <pt x="389" y="980" on="0"/>
        <pt x="277" y="1125" on="0"/>
      </contour>
      <contour>
        <pt x="383" y="1227" on="1"/>
        <pt x="369" y="1155" on="0"/>
        <pt x="433" y="1071" on="0"/>
        <pt x="495" y="1071" on="1"/>
        <pt x="550" y="1071" on="0"/>
        <pt x="651" y="1160" on="0"/>
        <pt x="665" y="1227" on="1"/>
        <pt x="679" y="1299" on="0"/>
        <pt x="619" y="1386" on="0"/>
        <pt x="558" y="1386" on="1"/>
        <pt x="501" y="1386" on="0"/>
        <pt x="396" y="1293" on="0"/>
      </contour>
    </TTGlyph>
    <TTGlyph name="delta" xMin="63" yMin="-21" xMax="1093" yMax="1456">
      <contour>
        <pt x="1093" y="1456" on="1"/>
        <pt x="1073" y="1356" on="1"/>
        <pt x="578" y="1356" on="1"/>
        <pt x="823" y="1179" on="0"/>
        <pt x="1050" y="775" on="0"/>
        <pt x="1007" y="557" on="1"/>
        <pt x="1001" y="524" on="1"/>
        <pt x="949" y="268" on="0"/>
        <pt x="653" y="-21" on="0"/>
        <pt x="448" y="-21" on="1"/>
        <pt x="258" y="-21" on="0"/>
        <pt x="63" y="289" on="0"/>
        <pt x="110" y="524" on="1"/>
        <pt x="116" y="557" on="1"/>
        <pt x="163" y="792" on="0"/>
        <pt x="447" y="1072" on="0"/>
        <pt x="645" y="1085" on="1"/>
        <pt x="656" y="1085" on="0"/>
        <pt x="695" y="1081" on="0"/>
        <pt x="708" y="1076" on="1"/>
        <pt x="711" y="1082" on="1"/>
        <pt x="660" y="1146" on="0"/>
        <pt x="499" y="1292" on="0"/>
        <pt x="407" y="1363" on="1"/>
        <pt x="425" y="1456" on="1"/>
      </contour>
      <contour>
        <pt x="226" y="524" on="1"/>
        <pt x="185" y="324" on="0"/>
        <pt x="309" y="80" on="0"/>
        <pt x="468" y="80" on="1"/>
        <pt x="611" y="80" on="0"/>
        <pt x="847" y="341" on="0"/>
        <pt x="885" y="524" on="1"/>
        <pt x="891" y="557" on="1"/>
        <pt x="922" y="712" on="0"/>
        <pt x="841" y="920" on="0"/>
        <pt x="772" y="981" on="1"/>
        <pt x="747" y="988" on="0"/>
        <pt x="676" y="1000" on="0"/>
        <pt x="650" y="1000" on="1"/>
        <pt x="505" y="1000" on="0"/>
        <pt x="268" y="737" on="0"/>
        <pt x="232" y="557" on="1"/>
      </contour>
    </TTGlyph>
    <TTGlyph name="dieresis" xMin="294" yMin="1299" xMax="920" yMax="1456">
      <contour>
        <pt x="895" y="1299" on="1"/>
        <pt x="731" y="1299" on="1"/>
        <pt x="756" y="1456" on="1"/>
        <pt x="920" y="1456" on="1"/>
      </contour>
      <contour>
        <pt x="459" y="1299" on="1"/>
        <pt x="294" y="1299" on="1"/>
        <pt x="319" y="1456" on="1"/>
        <pt x="484" y="1456" on="1"/>
      </contour>
    </TTGlyph>
    <TTGlyph name="dieresistonos" xMin="332" yMin="1304" xMax="972" yMax="1691">
      <contour>
        <pt x="942" y="1304" on="1"/>
        <pt x="792" y="1304" on="1"/>
        <pt x="822" y="1456" on="1"/>
        <pt x="972" y="1456" on="1"/>
      </contour>
      <contour>
        <pt x="484" y="1304" on="1"/>
        <pt x="332" y="1304" on="1"/>
        <pt x="362" y="1456" on="1"/>
        <pt x="514" y="1456" on="1"/>
      </contour>
      <contour>
        <pt x="705" y="1691" on="1"/>
        <pt x="870" y="1691" on="1"/>
        <pt x="712" y="1472" on="1"/>
        <pt x="627" y="1472" on="1"/>
      </contour>
    </TTGlyph>
    <TTGlyph name="divide" xMin="116" yMin="212" xMax="1067" yMax="1170">
      <contour>
        <pt x="1044" y="644" on="1"/>
        <pt x="116" y="644" on="1"/>
        <pt x="139" y="760" on="1"/>
        <pt x="1067" y="760" on="1"/>
      </contour>
      <contour>
        <pt x="726" y="1010" on="1"/>
        <pt x="591" y="1010" on="1"/>
        <pt x="623" y="1170" on="1"/>
        <pt x="758" y="1170" on="1"/>
      </contour>
      <contour>
        <pt x="566" y="212" on="1"/>
        <pt x="431" y="212" on="1"/>
        <pt x="463" y="372" on="1"/>
        <pt x="598" y="372" on="1"/>
      </contour>
    </TTGlyph>
    <TTGlyph name="dollar" xMin="75" yMin="-208" xMax="1070" yMax="1677">
      <contour>
        <pt x="827" y="359" on="1"/>
        <pt x="845" y="473" on="0"/>
        <pt x="737" y="609" on="0"/>
        <pt x="578" y="674" on="1"/>
        <pt x="395" y="740" on="0"/>
        <pt x="238" y="926" on="0"/>
        <pt x="265" y="1095" on="1"/>
        <pt x="291" y="1264" on="0"/>
        <pt x="507" y="1462" on="0"/>
        <pt x="671" y="1475" on="1"/>
        <pt x="703" y="1677" on="1"/>
        <pt x="801" y="1677" on="1"/>
        <pt x="769" y="1474" on="1"/>
        <pt x="923" y="1457" on="0"/>
        <pt x="1070" y="1224" on="0"/>
        <pt x="1039" y="1028" on="1"/>
        <pt x="924" y="1028" on="1"/>
        <pt x="949" y="1186" on="0"/>
        <pt x="834" y="1370" on="0"/>
        <pt x="700" y="1370" on="1"/>
        <pt x="570" y="1370" on="0"/>
        <pt x="399" y="1213" on="0"/>
        <pt x="381" y="1097" on="1"/>
        <pt x="361" y="979" on="0"/>
        <pt x="464" y="845" on="0"/>
        <pt x="633" y="780" on="1"/>
        <pt x="815" y="711" on="0"/>
        <pt x="970" y="528" on="0"/>
        <pt x="944" y="361" on="1"/>
        <pt x="916" y="189" on="0"/>
        <pt x="694" y="-5" on="0"/>
        <pt x="526" y="-19" on="1"/>
        <pt x="496" y="-208" on="1"/>
        <pt x="398" y="-208" on="1"/>
        <pt x="428" y="-19" on="1"/>
        <pt x="267" y="-6" on="0"/>
        <pt x="75" y="205" on="0"/>
        <pt x="109" y="418" on="1"/>
        <pt x="225" y="418" on="1"/>
        <pt x="195" y="233" on="0"/>
        <pt x="354" y="85" on="0"/>
        <pt x="488" y="85" on="1"/>
        <pt x="619" y="85" on="0"/>
        <pt x="808" y="242" on="0"/>
      </contour>
    </TTGlyph>
    <TTGlyph name="dotaccent" xMin="324" yMin="1288" xMax="502" yMax="1456">
      <contour>
        <pt x="469" y="1288" on="1"/>
        <pt x="324" y="1288" on="1"/>
        <pt x="357" y="1456" on="1"/>
        <pt x="502" y="1456" on="1"/>
      </contour>
    </TTGlyph>
    <TTGlyph name="dotbelow" xMin="-762" yMin="-315" xMax="-584" yMax="-147">
      <contour>
        <pt x="-618" y="-315" on="1"/>
        <pt x="-762" y="-315" on="1"/>
        <pt x="-728" y="-147" on="1"/>
        <pt x="-584" y="-147" on="1"/>
      </contour>
    </TTGlyph>
    <TTGlyph name="dotlessi" xMin="75" yMin="0" xMax="408" yMax="1082">
      <contour>
        <pt x="192" y="0" on="1"/>
        <pt x="75" y="0" on="1"/>
        <pt x="291" y="1082" on="1"/>
        <pt x="408" y="1082" on="1"/>
      </contour>
    </TTGlyph>
    <TTGlyph name="e" xMin="65" yMin="-21" xMax="979" yMax="1102">
      <contour>
        <pt x="458" y="-21" on="1"/>
        <pt x="275" y="-21" on="0"/>
        <pt x="65" y="281" on="0"/>
        <pt x="102" y="509" on="1"/>
        <pt x="111" y="564" on="1"/>
        <pt x="149" y="805" on="0"/>
        <pt x="444" y="1102" on="0"/>
        <pt x="622" y="1102" on="1"/>
        <pt x="801" y="1102" on="0"/>
        <pt x="979" y="848" on="0"/>
        <pt x="946" y="640" on="1"/>
        <pt x="930" y="538" on="1"/>
        <pt x="222" y="538" on="1"/>
        <pt x="218" y="509" on="1"/>
        <pt x="188" y="319" on="0"/>
        <pt x="327" y="80" on="0"/>
        <pt x="474" y="80" on="1"/>
        <pt x="573" y="80" on="0"/>
        <pt x="734" y="143" on="0"/>
        <pt x="795" y="200" on="1"/>
        <pt x="831" y="118" on="1"/>
        <pt x="764" y="54" on="0"/>
        <pt x="578" y="-21" on="0"/>
      </contour>
      <contour>
        <pt x="606" y="1000" on="1"/>
        <pt x="489" y="1000" on="0"/>
        <pt x="288" y="796" on="0"/>
        <pt x="249" y="645" on="1"/>
        <pt x="251" y="639" on="1"/>
        <pt x="831" y="639" on="1"/>
        <pt x="836" y="669" on="1"/>
        <pt x="859" y="816" on="0"/>
        <pt x="739" y="1000" on="0"/>
      </contour>
    </TTGlyph>
    <TTGlyph name="eacute" xMin="65" yMin="-21" xMax="979" yMax="1502">
      <component glyphName="e" x="0" y="0" flags="0x204"/>
      <component glyphName="acute" x="347" y="24" flags="0x4"/>
    </TTGlyph>
    <TTGlyph name="ebreve" xMin="65" yMin="-21" xMax="979" yMax="1533">
      <component glyphName="e" x="0" y="0" flags="0x204"/>
      <component glyphName="breve" x="138" y="77" flags="0x4"/>
    </TTGlyph>
    <TTGlyph name="ecaron" xMin="65" yMin="-21" xMax="979" yMax="1524">
      <component glyphName="e" x="0" y="0" flags="0x204"/>
      <component glyphName="caron" x="101" y="30" flags="0x4"/>
    </TTGlyph>
    <TTGlyph name="ecircumflex" xMin="65" yMin="-21" xMax="979" yMax="1522">
      <component glyphName="e" x="0" y="0" flags="0x204"/>
      <component glyphName="circumflex" x="83" y="28" flags="0x4"/>
    </TTGlyph>
    <TTGlyph name="edieresis" xMin="65" yMin="-21" xMax="998" yMax="1477">
      <component glyphName="e" x="0" y="0" flags="0x204"/>
      <component glyphName="dieresis" x="78" y="21" flags="0x4"/>
    </TTGlyph>
    <TTGlyph name="edotaccent" xMin="65" yMin="-21" xMax="979" yMax="1484">
      <component glyphName="e" x="0" y="0" flags="0x204"/>
      <component glyphName="dotaccent" x="271" y="28" flags="0x4"/>
    </TTGlyph>
    <TTGlyph name="egrave" xMin="65" yMin="-21" xMax="979" yMax="1506">
      <component glyphName="e" x="0" y="0" flags="0x204"/>
      <component glyphName="grave" x="171" y="30" flags="0x4"/>
    </TTGlyph>
    <TTGlyph name="eight" xMin="51" yMin="-21" xMax="1100" yMax="1477">
      <contour>
        <pt x="1063" y="1081" on="1"/>
        <pt x="1037" y="954" on="0"/>
        <pt x="876" y="780" on="0"/>
        <pt x="760" y="743" on="1"/>
        <pt x="871" y="700" on="0"/>
        <pt x="986" y="509" on="0"/>
        <pt x="962" y="386" on="1"/>
        <pt x="920" y="176" on="0"/>
        <pt x="643" y="-21" on="0"/>
        <pt x="446" y="-21" on="1"/>
        <pt x="262" y="-21" on="0"/>
        <pt x="51" y="192" on="0"/>
        <pt x="90" y="386" on="1"/>
        <pt x="117" y="524" on="0"/>
        <pt x="301" y="711" on="0"/>
        <pt x="435" y="749" on="1"/>
        <pt x="338" y="791" on="0"/>
        <pt x="244" y="966" on="0"/>
        <pt x="267" y="1081" on="1"/>
        <pt x="307" y="1282" on="0"/>
        <pt x="562" y="1477" on="0"/>
        <pt x="743" y="1477" on="1"/>
        <pt x="907" y="1477" on="0"/>
        <pt x="1100" y="1265" on="0"/>
      </contour>
      <contour>
        <pt x="846" y="385" on="1"/>
        <pt x="875" y="532" on="0"/>
        <pt x="728" y="696" on="0"/>
        <pt x="587" y="696" on="1"/>
        <pt x="456" y="696" on="0"/>
        <pt x="231" y="521" on="0"/>
        <pt x="205" y="385" on="1"/>
        <pt x="174" y="233" on="0"/>
        <pt x="319" y="80" on="0"/>
        <pt x="466" y="80" on="1"/>
        <pt x="597" y="80" on="0"/>
        <pt x="817" y="245" on="0"/>
      </contour>
      <contour>
        <pt x="947" y="1082" on="1"/>
        <pt x="974" y="1216" on="0"/>
        <pt x="846" y="1375" on="0"/>
        <pt x="723" y="1375" on="1"/>
        <pt x="606" y="1375" on="0"/>
        <pt x="408" y="1212" on="0"/>
        <pt x="382" y="1082" on="1"/>
        <pt x="355" y="944" on="0"/>
        <pt x="482" y="798" on="0"/>
        <pt x="610" y="798" on="1"/>
        <pt x="724" y="798" on="0"/>
        <pt x="922" y="956" on="0"/>
      </contour>
    </TTGlyph>
    <TTGlyph name="eight.lnum" xMin="79" yMin="-21" xMax="1146" yMax="1477">
      <contour>
        <pt x="1109" y="1081" on="1"/>
        <pt x="1083" y="953" on="0"/>
        <pt x="919" y="780" on="0"/>
        <pt x="800" y="743" on="1"/>
        <pt x="914" y="699" on="0"/>
        <pt x="1032" y="509" on="0"/>
        <pt x="1008" y="386" on="1"/>
        <pt x="966" y="176" on="0"/>
        <pt x="683" y="-21" on="0"/>
        <pt x="482" y="-21" on="1"/>
        <pt x="295" y="-21" on="0"/>
        <pt x="79" y="192" on="0"/>
        <pt x="118" y="386" on="1"/>
        <pt x="145" y="524" on="0"/>
        <pt x="332" y="711" on="0"/>
        <pt x="468" y="749" on="1"/>
        <pt x="369" y="791" on="0"/>
        <pt x="272" y="966" on="0"/>
        <pt x="295" y="1081" on="1"/>
        <pt x="335" y="1282" on="0"/>
        <pt x="594" y="1477" on="0"/>
        <pt x="779" y="1477" on="1"/>
        <pt x="947" y="1477" on="0"/>
        <pt x="1146" y="1265" on="0"/>
      </contour>
      <contour>
        <pt x="891" y="385" on="1"/>
        <pt x="920" y="532" on="0"/>
        <pt x="767" y="696" on="0"/>
        <pt x="623" y="696" on="1"/>
        <pt x="488" y="696" on="0"/>
        <pt x="260" y="521" on="0"/>
        <pt x="234" y="385" on="1"/>
        <pt x="203" y="233" on="0"/>
        <pt x="351" y="80" on="0"/>
        <pt x="502" y="80" on="1"/>
        <pt x="636" y="80" on="0"/>
        <pt x="862" y="245" on="0"/>
      </contour>
      <contour>
        <pt x="992" y="1082" on="1"/>
        <pt x="1019" y="1216" on="0"/>
        <pt x="886" y="1375" on="0"/>
        <pt x="759" y="1375" on="1"/>
        <pt x="639" y="1375" on="0"/>
        <pt x="437" y="1212" on="0"/>
        <pt x="411" y="1082" on="1"/>
        <pt x="384" y="944" on="0"/>
        <pt x="514" y="798" on="0"/>
        <pt x="646" y="798" on="1"/>
        <pt x="764" y="798" on="0"/>
        <pt x="967" y="955" on="0"/>
      </contour>
    </TTGlyph>
    <TTGlyph name="eight.smcp" xMin="55" yMin="-17" xMax="970" yMax="1181">
      <contour>
        <pt x="941" y="868" on="1"/>
        <pt x="920" y="769" on="0"/>
        <pt x="791" y="633" on="0"/>
        <pt x="698" y="601" on="1"/>
        <pt x="788" y="564" on="0"/>
        <pt x="881" y="415" on="0"/>
        <pt x="863" y="319" on="1"/>
        <pt x="829" y="151" on="0"/>
        <pt x="583" y="-17" on="0"/>
        <pt x="416" y="-17" on="1"/>
        <pt x="255" y="-17" on="0"/>
        <pt x="55" y="164" on="0"/>
        <pt x="87" y="319" on="1"/>
        <pt x="108" y="426" on="0"/>
        <pt x="261" y="574" on="0"/>
        <pt x="373" y="606" on="1"/>
        <pt x="291" y="642" on="0"/>
        <pt x="209" y="779" on="0"/>
        <pt x="228" y="868" on="1"/>
        <pt x="259" y="1027" on="0"/>
        <pt x="491" y="1181" on="0"/>
        <pt x="653" y="1181" on="1"/>
        <pt x="794" y="1181" on="0"/>
        <pt x="970" y="1014" on="0"/>
      </contour>
      <contour>
        <pt x="747" y="319" on="1"/>
        <pt x="768" y="428" on="0"/>
        <pt x="641" y="553" on="0"/>
        <pt x="528" y="553" on="1"/>
        <pt x="418" y="553" on="0"/>
        <pt x="222" y="420" on="0"/>
        <pt x="202" y="319" on="1"/>
        <pt x="179" y="205" on="0"/>
        <pt x="313" y="84" on="0"/>
        <pt x="436" y="84" on="1"/>
        <pt x="540" y="84" on="0"/>
        <pt x="726" y="214" on="0"/>
      </contour>
      <contour>
        <pt x="825" y="868" on="1"/>
        <pt x="844" y="967" on="0"/>
        <pt x="732" y="1080" on="0"/>
        <pt x="633" y="1080" on="1"/>
        <pt x="533" y="1080" on="0"/>
        <pt x="363" y="964" on="0"/>
        <pt x="344" y="868" on="1"/>
        <pt x="323" y="766" on="0"/>
        <pt x="441" y="654" on="0"/>
        <pt x="550" y="654" on="1"/>
        <pt x="640" y="654" on="0"/>
        <pt x="806" y="774" on="0"/>
      </contour>
    </TTGlyph>
    <TTGlyph name="eight.sup" xMin="59" yMin="-11" xMax="734" yMax="812">
      <contour>
        <pt x="714" y="595" on="1"/>
        <pt x="700" y="529" on="0"/>
        <pt x="611" y="436" on="0"/>
        <pt x="546" y="413" on="1"/>
        <pt x="608" y="385" on="0"/>
        <pt x="673" y="284" on="0"/>
        <pt x="661" y="221" on="1"/>
        <pt x="637" y="104" on="0"/>
        <pt x="456" y="-11" on="0"/>
        <pt x="331" y="-11" on="1"/>
        <pt x="211" y="-11" on="0"/>
        <pt x="59" y="113" on="0"/>
        <pt x="81" y="221" on="1"/>
        <pt x="94" y="292" on="0"/>
        <pt x="200" y="392" on="0"/>
        <pt x="279" y="417" on="1"/>
        <pt x="222" y="443" on="0"/>
        <pt x="166" y="536" on="0"/>
        <pt x="179" y="595" on="1"/>
        <pt x="201" y="705" on="0"/>
        <pt x="372" y="812" on="0"/>
        <pt x="494" y="812" on="1"/>
        <pt x="599" y="812" on="0"/>
        <pt x="734" y="696" on="0"/>
      </contour>
      <contour>
        <pt x="558" y="223" on="1"/>
        <pt x="571" y="292" on="0"/>
        <pt x="483" y="370" on="0"/>
        <pt x="406" y="370" on="1"/>
        <pt x="330" y="370" on="0"/>
        <pt x="197" y="287" on="0"/>
        <pt x="185" y="223" on="1"/>
        <pt x="170" y="152" on="0"/>
        <pt x="264" y="79" on="0"/>
        <pt x="349" y="79" on="1"/>
        <pt x="420" y="79" on="0"/>
        <pt x="545" y="158" on="0"/>
      </contour>
      <contour>
        <pt x="607" y="592" on="1"/>
        <pt x="619" y="654" on="0"/>
        <pt x="543" y="721" on="0"/>
        <pt x="476" y="721" on="1"/>
        <pt x="408" y="721" on="0"/>
        <pt x="295" y="651" on="0"/>
        <pt x="283" y="592" on="1"/>
        <pt x="270" y="528" on="0"/>
        <pt x="351" y="460" on="0"/>
        <pt x="425" y="460" on="1"/>
        <pt x="486" y="460" on="0"/>
        <pt x="595" y="533" on="0"/>
      </contour>
    </TTGlyph>
    <TTGlyph name="ellipsis" xMin="93" yMin="0" xMax="1007" yMax="164">
      <component glyphName="period" x="18" y="0" flags="0x4"/>
      <component glyphName="period" x="401" y="0" flags="0x4"/>
      <component glyphName="period" x="768" y="0" flags="0x4"/>
    </TTGlyph>
    <TTGlyph name="emacron" xMin="65" yMin="-21" xMax="1004" yMax="1465">
      <component glyphName="e" x="0" y="0" flags="0x204"/>
      <component glyphName="macron" x="110" y="9" flags="0x4"/>
    </TTGlyph>
    <TTGlyph name="emdash" xMin="264" yMin="686" xMax="1539" yMax="788">
      <component glyphName="minus" x="-74" y="0" scalex="1.59997558594" scaley="1.0" flags="0x4"/>
    </TTGlyph>
    <TTGlyph name="endash" xMin="239" yMin="686" xMax="1275" yMax="788">
      <component glyphName="minus" x="-35" y="0" scalex="1.29998779297" scaley="1.0" flags="0x4"/>
    </TTGlyph>
    <TTGlyph name="eng" xMin="65" yMin="-437" xMax="1010" yMax="1102">
      <contour>
        <pt x="359" y="910" on="1"/>
        <pt x="426" y="1004" on="0"/>
        <pt x="607" y="1102" on="0"/>
        <pt x="719" y="1102" on="1"/>
        <pt x="872" y="1102" on="0"/>
        <pt x="1010" y="883" on="0"/>
        <pt x="966" y="659" on="1"/>
        <pt x="816" y="-89" on="1"/>
        <pt x="780" y="-267" on="0"/>
        <pt x="600" y="-437" on="0"/>
        <pt x="463" y="-437" on="1"/>
        <pt x="434" y="-437" on="0"/>
        <pt x="379" y="-427" on="0"/>
        <pt x="351" y="-418" on="1"/>
        <pt x="386" y="-315" on="1"/>
        <pt x="399" y="-320" on="0"/>
        <pt x="461" y="-330" on="0"/>
        <pt x="484" y="-330" on="1"/>
        <pt x="559" y="-330" on="0"/>
        <pt x="677" y="-203" on="0"/>
        <pt x="700" y="-89" on="1"/>
        <pt x="850" y="658" on="1"/>
        <pt x="889" y="857" on="0"/>
        <pt x="794" y="998" on="0"/>
        <pt x="672" y="998" on="1"/>
        <pt x="564" y="998" on="0"/>
        <pt x="390" y="870" on="0"/>
        <pt x="333" y="764" on="1"/>
        <pt x="181" y="0" on="1"/>
        <pt x="65" y="0" on="1"/>
        <pt x="281" y="1082" on="1"/>
        <pt x="385" y="1082" on="1"/>
      </contour>
    </TTGlyph>
    <TTGlyph name="eogonek" xMin="65" yMin="-332" xMax="979" yMax="1102">
      <component glyphName="e" x="0" y="0" flags="0x204"/>
      <component glyphName="ogonek" x="492" y="60" flags="0x4"/>
    </TTGlyph>
    <TTGlyph name="epsilon" xMin="49" yMin="-18" xMax="1016" yMax="1099">
      <contour>
        <pt x="705" y="524" on="1"/>
        <pt x="701" y="502" on="1"/>
        <pt x="527" y="502" on="1"/>
        <pt x="391" y="502" on="0"/>
        <pt x="215" y="399" on="0"/>
        <pt x="195" y="295" on="1"/>
        <pt x="174" y="192" on="0"/>
        <pt x="306" y="82" on="0"/>
        <pt x="448" y="82" on="1"/>
        <pt x="573" y="82" on="0"/>
        <pt x="777" y="215" on="0"/>
        <pt x="796" y="310" on="1"/>
        <pt x="902" y="310" on="1"/>
        <pt x="904" y="304" on="1"/>
        <pt x="875" y="137" on="0"/>
        <pt x="603" y="-18" on="0"/>
        <pt x="428" y="-18" on="1"/>
        <pt x="255" y="-18" on="0"/>
        <pt x="49" y="152" on="0"/>
        <pt x="78" y="297" on="1"/>
        <pt x="99" y="401" on="0"/>
        <pt x="231" y="530" on="0"/>
        <pt x="342" y="558" on="1"/>
        <pt x="259" y="593" on="0"/>
        <pt x="180" y="719" on="0"/>
        <pt x="196" y="794" on="1"/>
        <pt x="227" y="950" on="0"/>
        <pt x="464" y="1099" on="0"/>
        <pt x="652" y="1099" on="1"/>
        <pt x="809" y="1099" on="0"/>
        <pt x="1016" y="928" on="0"/>
        <pt x="985" y="796" on="1"/>
        <pt x="983" y="790" on="1"/>
        <pt x="876" y="790" on="1"/>
        <pt x="895" y="887" on="0"/>
        <pt x="756" y="998" on="0"/>
        <pt x="632" y="998" on="1"/>
        <pt x="502" y="998" on="0"/>
        <pt x="330" y="882" on="0"/>
        <pt x="313" y="796" on="1"/>
        <pt x="293" y="699" on="0"/>
        <pt x="404" y="602" on="0"/>
        <pt x="547" y="602" on="1"/>
        <pt x="721" y="602" on="1"/>
        <pt x="716" y="579" on="1"/>
        <pt x="717" y="579" on="1"/>
        <pt x="711" y="554" on="1"/>
        <pt x="706" y="524" on="1"/>
      </contour>
    </TTGlyph>
    <TTGlyph name="epsilontonos" xMin="49" yMin="-18" xMax="1016" yMax="1578">
      <component glyphName="epsilon" x="0" y="0" flags="0x204"/>
      <component glyphName="tonos" x="269" y="-39" flags="0x4"/>
    </TTGlyph>
    <TTGlyph name="equal" xMin="143" yMin="422" xMax="1022" yMax="939">
      <contour>
        <pt x="1001" y="833" on="1"/>
        <pt x="226" y="833" on="1"/>
        <pt x="247" y="939" on="1"/>
        <pt x="1022" y="939" on="1"/>
      </contour>
      <contour>
        <pt x="918" y="422" on="1"/>
        <pt x="143" y="422" on="1"/>
        <pt x="165" y="528" on="1"/>
        <pt x="940" y="528" on="1"/>
      </contour>
    </TTGlyph>
    <TTGlyph name="estimated" xMin="122" yMin="-20" xMax="1163" yMax="1102">
      <contour>
        <pt x="909" y="94" on="1"/>
        <pt x="817" y="39" on="0"/>
        <pt x="630" y="-20" on="0"/>
        <pt x="542" y="-20" on="1"/>
        <pt x="353" y="-20" on="0"/>
        <pt x="122" y="313" on="0"/>
        <pt x="167" y="541" on="1"/>
        <pt x="215" y="782" on="0"/>
        <pt x="574" y="1102" on="0"/>
        <pt x="766" y="1102" on="1"/>
        <pt x="946" y="1102" on="0"/>
        <pt x="1163" y="788" on="0"/>
        <pt x="1118" y="561" on="1"/>
        <pt x="1109" y="514" on="1"/>
        <pt x="395" y="514" on="1"/>
        <pt x="329" y="186" on="1"/>
        <pt x="371" y="133" on="0"/>
        <pt x="489" y="76" on="0"/>
        <pt x="561" y="76" on="1"/>
        <pt x="643" y="76" on="0"/>
        <pt x="837" y="137" on="0"/>
        <pt x="928" y="198" on="1"/>
      </contour>
      <contour>
        <pt x="748" y="1008" on="1"/>
        <pt x="684" y="1008" on="0"/>
        <pt x="533" y="942" on="0"/>
        <pt x="469" y="886" on="1"/>
        <pt x="414" y="609" on="1"/>
        <pt x="916" y="609" on="1"/>
        <pt x="973" y="895" on="1"/>
        <pt x="933" y="948" on="0"/>
        <pt x="817" y="1008" on="0"/>
      </contour>
    </TTGlyph>
    <TTGlyph name="eta" xMin="66" yMin="-415" xMax="1011" yMax="1102">
      <contour>
        <pt x="360" y="911" on="1"/>
        <pt x="427" y="1004" on="0"/>
        <pt x="608" y="1102" on="0"/>
        <pt x="719" y="1102" on="1"/>
        <pt x="874" y="1102" on="0"/>
        <pt x="1011" y="888" on="0"/>
        <pt x="966" y="659" on="1"/>
        <pt x="751" y="-415" on="1"/>
        <pt x="635" y="-415" on="1"/>
        <pt x="850" y="658" on="1"/>
        <pt x="889" y="857" on="0"/>
        <pt x="794" y="1000" on="0"/>
        <pt x="672" y="1000" on="1"/>
        <pt x="565" y="1000" on="0"/>
        <pt x="392" y="873" on="0"/>
        <pt x="335" y="768" on="1"/>
        <pt x="182" y="0" on="1"/>
        <pt x="66" y="0" on="1"/>
        <pt x="282" y="1082" on="1"/>
        <pt x="385" y="1082" on="1"/>
      </contour>
    </TTGlyph>
    <TTGlyph name="etatonos" xMin="66" yMin="-415" xMax="1011" yMax="1579">
      <component glyphName="eta" x="0" y="0" flags="0x204"/>
      <component glyphName="tonos" x="295" y="-38" flags="0x4"/>
    </TTGlyph>
    <TTGlyph name="eth" xMin="61" yMin="-21" xMax="1201" yMax="1517">
      <contour>
        <pt x="950" y="1299" on="1"/>
        <pt x="1030" y="1178" on="0"/>
        <pt x="1070" y="841" on="0"/>
        <pt x="1027" y="623" on="1"/>
        <pt x="1009" y="535" on="1"/>
        <pt x="957" y="274" on="0"/>
        <pt x="646" y="-21" on="0"/>
        <pt x="449" y="-21" on="1"/>
        <pt x="268" y="-21" on="0"/>
        <pt x="61" y="257" on="0"/>
        <pt x="101" y="455" on="1"/>
        <pt x="151" y="706" on="0"/>
        <pt x="442" y="965" on="0"/>
        <pt x="649" y="965" on="1"/>
        <pt x="741" y="965" on="0"/>
        <pt x="894" y="879" on="0"/>
        <pt x="932" y="809" on="1"/>
        <pt x="936" y="813" on="1"/>
        <pt x="949" y="956" on="0"/>
        <pt x="901" y="1166" on="0"/>
        <pt x="845" y="1242" on="1"/>
        <pt x="519" y="1063" on="1"/>
        <pt x="485" y="1137" on="1"/>
        <pt x="790" y="1304" on="1"/>
        <pt x="755" y="1335" on="0"/>
        <pt x="672" y="1388" on="0"/>
        <pt x="624" y="1413" on="1"/>
        <pt x="681" y="1517" on="1"/>
        <pt x="746" y="1487" on="0"/>
        <pt x="855" y="1411" on="0"/>
        <pt x="899" y="1364" on="1"/>
        <pt x="1167" y="1511" on="1"/>
        <pt x="1201" y="1437" on="1"/>
      </contour>
      <contour>
        <pt x="911" y="625" on="1"/>
        <pt x="915" y="645" on="0"/>
        <pt x="920" y="671" on="0"/>
        <pt x="922" y="684" on="1"/>
        <pt x="903" y="760" on="0"/>
        <pt x="757" y="861" on="0"/>
        <pt x="628" y="861" on="1"/>
        <pt x="481" y="861" on="0"/>
        <pt x="252" y="627" on="0"/>
        <pt x="218" y="455" on="1"/>
        <pt x="186" y="297" on="0"/>
        <pt x="319" y="82" on="0"/>
        <pt x="473" y="82" on="1"/>
        <pt x="609" y="82" on="0"/>
        <pt x="854" y="341" on="0"/>
        <pt x="893" y="535" on="1"/>
      </contour>
    </TTGlyph>
    <TTGlyph name="exclam" xMin="68" yMin="0" xMax="484" yMax="1456">
      <contour>
        <pt x="289" y="478" on="1"/>
        <pt x="173" y="478" on="1"/>
        <pt x="368" y="1456" on="1"/>
        <pt x="484" y="1456" on="1"/>
      </contour>
      <contour>
        <pt x="203" y="0" on="1"/>
        <pt x="68" y="0" on="1"/>
        <pt x="101" y="167" on="1"/>
        <pt x="236" y="167" on="1"/>
      </contour>
    </TTGlyph>
    <TTGlyph name="exclamdbl" xMin="68" yMin="0" xMax="928" yMax="1456">
      <component glyphName="exclam" x="0" y="0" flags="0x4"/>
      <component glyphName="exclam" x="444" y="0" flags="0x4"/>
    </TTGlyph>
    <TTGlyph name="exclamdown" xMin="-11" yMin="-374" xMax="406" yMax="1082">
      <contour>
        <pt x="106" y="-374" on="1"/>
        <pt x="-11" y="-374" on="1"/>
        <pt x="185" y="604" on="1"/>
        <pt x="302" y="604" on="1"/>
      </contour>
      <contour>
        <pt x="370" y="898" on="1"/>
        <pt x="235" y="898" on="1"/>
        <pt x="271" y="1082" on="1"/>
        <pt x="406" y="1082" on="1"/>
      </contour>
    </TTGlyph>
    <TTGlyph name="f" xMin="147" yMin="0" xMax="876" yMax="1581">
      <contour>
        <pt x="147" y="0" on="1"/>
        <pt x="344" y="984" on="1"/>
        <pt x="178" y="984" on="1"/>
        <pt x="197" y="1082" on="1"/>
        <pt x="363" y="1082" on="1"/>
        <pt x="395" y="1240" on="1"/>
        <pt x="430" y="1414" on="0"/>
        <pt x="613" y="1581" on="0"/>
        <pt x="753" y="1581" on="1"/>
        <pt x="782" y="1581" on="0"/>
        <pt x="846" y="1571" on="0"/>
        <pt x="876" y="1562" on="1"/>
        <pt x="843" y="1463" on="1"/>
        <pt x="822" y="1469" on="0"/>
        <pt x="776" y="1476" on="0"/>
        <pt x="744" y="1476" on="1"/>
        <pt x="660" y="1476" on="0"/>
        <pt x="533" y="1350" on="0"/>
        <pt x="511" y="1240" on="1"/>
        <pt x="479" y="1082" on="1"/>
        <pt x="717" y="1082" on="1"/>
        <pt x="698" y="984" on="1"/>
        <pt x="460" y="984" on="1"/>
        <pt x="263" y="0" on="1"/>
      </contour>
    </TTGlyph>
    <TTGlyph name="fi" xMin="130" yMin="0" xMax="1028" yMax="1581">
      <contour>
        <pt x="130" y="0" on="1"/>
        <pt x="327" y="984" on="1"/>
        <pt x="160" y="984" on="1"/>
        <pt x="179" y="1082" on="1"/>
        <pt x="346" y="1082" on="1"/>
        <pt x="374" y="1220" on="1"/>
        <pt x="411" y="1404" on="0"/>
        <pt x="621" y="1581" on="0"/>
        <pt x="783" y="1581" on="1"/>
        <pt x="841" y="1581" on="0"/>
        <pt x="968" y="1550" on="0"/>
        <pt x="1028" y="1522" on="1"/>
        <pt x="988" y="1419" on="1"/>
        <pt x="938" y="1444" on="0"/>
        <pt x="836" y="1472" on="0"/>
        <pt x="769" y="1472" on="1"/>
        <pt x="663" y="1472" on="0"/>
        <pt x="514" y="1340" on="0"/>
        <pt x="490" y="1220" on="1"/>
        <pt x="462" y="1082" on="1"/>
        <pt x="695" y="1082" on="1"/>
        <pt x="676" y="984" on="1"/>
        <pt x="443" y="984" on="1"/>
        <pt x="246" y="0" on="1"/>
      </contour>
      <contour>
        <pt x="786" y="0" on="1"/>
        <pt x="670" y="0" on="1"/>
        <pt x="886" y="1082" on="1"/>
        <pt x="1002" y="1082" on="1"/>
      </contour>
    </TTGlyph>
    <TTGlyph name="five" xMin="120" yMin="-21" xMax="1077" yMax="1456">
      <contour>
        <pt x="215" y="659" on="1"/>
        <pt x="418" y="1456" on="1"/>
        <pt x="1077" y="1456" on="1"/>
        <pt x="1059" y="1345" on="1"/>
        <pt x="499" y="1345" on="1"/>
        <pt x="366" y="826" on="1"/>
        <pt x="424" y="875" on="0"/>
        <pt x="556" y="930" on="0"/>
        <pt x="658" y="933" on="1"/>
        <pt x="833" y="936" on="0"/>
        <pt x="1004" y="680" on="0"/>
        <pt x="969" y="464" on="1"/>
        <pt x="932" y="235" on="0"/>
        <pt x="688" y="-21" on="0"/>
        <pt x="479" y="-21" on="1"/>
        <pt x="317" y="-21" on="0"/>
        <pt x="120" y="182" on="0"/>
        <pt x="155" y="378" on="1"/>
        <pt x="158" y="383" on="1"/>
        <pt x="262" y="383" on="1"/>
        <pt x="238" y="230" on="0"/>
        <pt x="366" y="80" on="0"/>
        <pt x="495" y="80" on="1"/>
        <pt x="638" y="80" on="0"/>
        <pt x="823" y="278" on="0"/>
        <pt x="853" y="462" on="1"/>
        <pt x="880" y="632" on="0"/>
        <pt x="764" y="822" on="0"/>
        <pt x="629" y="822" on="1"/>
        <pt x="505" y="822" on="0"/>
        <pt x="350" y="731" on="0"/>
        <pt x="307" y="643" on="1"/>
      </contour>
    </TTGlyph>
    <TTGlyph name="five.lnum" xMin="130" yMin="-21" xMax="1139" yMax="1456">
      <contour>
        <pt x="244" y="659" on="1"/>
        <pt x="479" y="1456" on="1"/>
        <pt x="1139" y="1456" on="1"/>
        <pt x="1117" y="1345" on="1"/>
        <pt x="556" y="1345" on="1"/>
        <pt x="402" y="826" on="1"/>
        <pt x="462" y="875" on="0"/>
        <pt x="596" y="930" on="0"/>
        <pt x="699" y="933" on="1"/>
        <pt x="874" y="936" on="0"/>
        <pt x="1035" y="680" on="0"/>
        <pt x="992" y="464" on="1"/>
        <pt x="944" y="230" on="0"/>
        <pt x="691" y="-21" on="0"/>
        <pt x="481" y="-21" on="1"/>
        <pt x="323" y="-21" on="0"/>
        <pt x="130" y="185" on="0"/>
        <pt x="170" y="383" on="1"/>
        <pt x="281" y="383" on="1"/>
        <pt x="249" y="226" on="0"/>
        <pt x="370" y="80" on="0"/>
        <pt x="501" y="80" on="1"/>
        <pt x="640" y="80" on="0"/>
        <pt x="839" y="280" on="0"/>
        <pt x="875" y="462" on="1"/>
        <pt x="910" y="635" on="0"/>
        <pt x="800" y="822" on="0"/>
        <pt x="664" y="822" on="1"/>
        <pt x="544" y="822" on="0"/>
        <pt x="382" y="730" on="0"/>
        <pt x="335" y="643" on="1"/>
      </contour>
    </TTGlyph>
</ttFont>
